<svg xmlns="http://www.w3.org/2000/svg" fill-rule="evenodd" stroke-miterlimit="1.41" viewBox="0 0 668 260" clip-rule="evenodd" stroke-linejoin="round">
  <path fill="#50514F" d="M586.3 38.2c-.15.03-.28.08-.42.17v11.16l-.07.58-.1 21.7-.3 2.5.1 18.6-.1 1.9v4.4l-.5 2.5h-3.1v1.1h.5v12.9h-.5l-.2 1c-3.3 1.8-5.5 5.2-5.5 9.2 0 4.8 3.4 8.7 7.8 9.9v1.6h-1v1.5h1.1v.5h-1v1.5h1c-.4 33.5-2 67.6-3.1 101h11.4c-1.1-33.4-2.7-67.5-3.1-101h1v-1.5H589v-.5h1v-1.5h-1.03v-1.5c4.35-1.3 7.76-5.2 7.76-9.9 0-4-2.22-7.5-5.5-9.2l-.2-1h-.5v-12.9h.5v-1h-3.1l-.5-2.5V95l-.16-1.9.06-18.64-.35-2.4-.1-21.6-.08-.6V38.4c-.14-.1-.27-.14-.4-.16h-.04zm-119.36 137c.12.02.22.13.22.27 0 .13-.1.23-.2.26v3.1c.3.04.56.3.56.63 0 .32-.24.6-.55.64l3.7 35.34 3.6 5.86h-.82v4.9H489v-.88l.44-3.22.46 3.22v.87h5.74l12.7 16.8h-57.46l.16-21.7h-.86l3.55-5.9 4.27-35.3c-.33-.1-.6-.3-.6-.7s.26-.6.6-.7v-1.2h-1.42c-.08 0-.15-.1-.2-.1l-.04-.1c-.02 0 0-.1 0-.1.03-.1.03-.3.03-.3h-.02c.06-.1.05-.3.08-.3l.03-.1c0-.1-.06-.2-.06-.3l.02-.1c0-.1-.04-.1-.03-.2v-.1c-.1-.1 0-.2 0-.1h.3v.1h-.1c0 .1 0 0-.1 0v.1h-.1s0-.1 0 0h-.1s.1 0 .1.1l-.1-.1.2-.1s0-.1.1-.2h.1c-.1.1 0 .2-.4.4v.1h-.1l.2.1h.1l.1-.2v.1h.1v.2h.1v-.2h.1v.2h.1v-.2h.1v.3h.1v-1.1c-.1 0-.2-.1-.2-.2 0-.2.1-.3.3-.3.1 0 .2.1.2.3s-.1.2-.2.2v1.1h.3c.3.2.5.4.8.6l.2-.2c.2 0 .3.1.3.2h.9l.2.1h-1c-.1.1-.2.2-.3.2-.1 0-.2 0-.3-.1h-1v1.2c.3 0 .5.3.5.6s-.2.5-.5.6l4.2 35.3 4.4-35.3c-.3-.1-.6-.3-.6-.7s.3-.6.6-.7v-3c-.1 0-.2-.1-.2-.3 0-.2.1-.3.3-.3h.1zm-9.68 1.53c-.04.04-.1.06-.16.06-.14 0-.25-.1-.28-.1h.44v-.1zm-.45.17v.06l.1-.03c.2.07.2.13.3.2.1.08 0 .17 0 .25l.1.02c.1 0 .1-.04.1-.05h.1c.1.04.1.06.1.13l-.1.05v.02h.4c-.1-.1-.2-.25-.2-.25v-.4h-.5zm1.4 0v.65h1.1c-.2-.18-.5-.36-.8-.64h-.2zm-.1 0h-.1v.4s-.1.15-.2.25h.3v-.65zm-1.2.14c0 .23 0 .28-.1.4v.02c.1 0 .1 0 .1.02v.07h.4v-.03c0-.08 0-.17-.1-.23 0-.1 0-.1-.1-.1l.1-.2z"/>
  <path fill="#50514F" d="M527.56 186.9v.86h.77v.16h-.77v1.37c.36 0 .64.3.64.7 0 .3-.24.6-.56.7.04.1.1.2.14.2.16.2.7.5.7.5h-.13v.7h-.27l.6 5.2h.33v1.2l-.1.2s.9 2.3 1.2 2.8c.4.4.7.5.7.5v.2l-.2.1s.3.8.4 1.2.1 1.2.1 1.2v5.8l.7.1v.4h-.2v1.8h1.2v1.1h.9v.2l-.8.9v10h3v1.2l.9.1v.8c-.9 0-.9.6-.9 1.2l.3.2v.5c-.1 0-.1 0-.1.1v.3c-.1 0-.1 0-.1.2v7.6l41.6-1V232h.8l.3 1.37v3.34l.6 1.4v5.8l9.6-.1 6.8 11.8-78.7-.5 3.4-7.7V230c0-.18-.1-.2-.2-.24v-.34c0-.1-.1-.18-.2-.17v-.5l.3-.18c0-.6 0-1.14-.9-1.2v-.76h.9v-1.2h2.9v-10.1l-.8-.9v-.2h.9V213h1.2v-1.78h-.2v-.42l.7-.1v-5.77s0-.83.1-1.2l.3-1.18-.3-.17v-.17s.3 0 .7-.5c.4-.4 1.2-2.8 1.2-2.8l-.2-.2v-1.2h.4l.5-5.2h-.3v-.7h-.2s.5-.3.7-.5c0 0 .1-.1.1-.2-.3 0-.6-.3-.6-.7 0-.3.3-.6.7-.7V188h-.8v-.16h.7V187h.1zm-.04 17.33c-.22.12-.42.27-.6.44l.6.26c.18-.1.38-.18.6-.26-.18-.17-.38-.32-.6-.44zm-2.12.15c-.07.12-.15.27-.2.45.1.1.18.2.26.3.06-.03.12-.06.2-.08-.08-.25-.16-.47-.26-.67zm4.16 0c-.1.2-.18.43-.25.68.1.02.2.05.2.08l.3-.3-.2-.45zm-1.3.42c-.2.07-.4.14-.57.23.1.1.3.2.4.3.1-.1.2-.16.4-.2-.1-.13-.2-.23-.3-.33zm-1.48 0c-.1.1-.2.2-.27.32.2.05.3.12.4.2h.1c.1-.1.3-.2.4-.3-.1-.08-.3-.15-.5-.22zm-1.63.18c-.07.2-.1.46-.13.74l.16-.3c.05-.07.1-.15.17-.2-.06-.1-.12-.17-.2-.24zm4.66 0c0 .1-.1.16-.2.24.1.06.2.14.2.22l.2.3c0-.3 0-.54-.1-.75zm-2.3.14c-.1.1-.3.2-.4.32.2.2.4.46.5.77.1-.3.3-.5.5-.7-.1-.1-.3-.2-.5-.3zm-1.8.07h-.1c.2.2.2.4.3.7 0-.3-.1-.6-.1-.8zm3.6 0c0 .2-.1.5-.1.7.1-.3.2-.5.3-.7l-.1-.1zm-.6 0c-.1 0-.2.1-.4.2.3.3.5.6.7.9v-.4c0-.3-.1-.5-.2-.8zm-2.2 0c-.1.2-.2.5-.3.7v.4c.2-.4.4-.7.7-1-.1-.1-.2-.2-.3-.2zm-1 0l-.1.1c-.1.1-.2.4-.2.6v4.4h.9v-4.1c-.1-.5-.2-.9-.4-1.3zm4.1 0c-.2.4-.3.8-.4 1.2v4l.8-.1V206c-.1-.23-.1-.45-.2-.62l-.1-.16zm-2.6.2c-.3.2-.5.6-.6.9v4.1h1.1v-4.2h.1c-.1-.4-.2-.7-.5-.9zm1.2 0c-.2.2-.4.5-.5.9h.1v4.1h1.1v-4.2c-.1-.4-.3-.7-.6-1zm94.4 3.1v.5h.4v1.1c-7.3 3-12.5 10.2-12.5 18.6 0 3.2.8 6.2 2.1 8.9h-4.3v7.5h60.4v-23.7h.2V220h-.9l-3.5-6.04H663c-.27-.3-.7-.6-1.2-.6s-.96.3-1.2.7H659l-3.5 6.03h-.9v1.3h.12v5.1h-4c-.8-7.5-5.65-13.8-12.33-16.5v-1h.4v-.6h-16.1z"/>
  <path fill="#50514F" d="M553.94 205.82c.2.35.26.66.25.96l.1-.25 1.1 1.53-.3.1c-.7-.85-1.4-1.1-2.2-1.08.9.3 1.6.8 1.9 1.56l.9-.25.5.5v.5c.1-.1.1-.4.3-.3l.1 1c.6.3 1 .8 1.3 1.2 0 .2.1.3.1.4l-.2.1c.1.2.1.4.1.6-.2.2-.3.3-.2.4 0 .1.1.2.3 0 0 .2 0 .5-.1.8-.2.2-.1.2-.2.3-.3.2-.5.5-.6.8-.6-.2-1-.1-1.4 0-.6.4-1.2.7-1.6 1.2l-1.9 1.4c-.3.2.1.8.2 1.1.2.4.9 1.2 1.5 1.8.2.5-.1.7-.4 1l-.5-.1c-.3-.1-.3.2-.2.2l.7.1c.1 0 0 .1-.2.1l-.8.1c-.1 0-.1.1 0 .2l.7.1c.1 0 0 .1-.1.1l-.6.2c-.1 0-.1.2.1.2h.4s-.2.1-.1.1h.3l-.6.8-.2 1.4-1.2-.1-2.6 1.7h-.4c.1-.1.3-.2.2-.4.1-.1.2-.1.3-.5-.1-.3-.2-.5-.4-.6h-.3c-.1-.3-.1-.6-.3-.8.3-.2.6-.4.7-.7.3-.4.4-.7.5-1.1.3-.1.6-.3.5-.4-.3.1-.9 0-1.1 0 0 .1.1.2.1.2-.1.4-.3.8-.6 1.1-.3.3-.5.2-.7.1 0-.2 0-.3-.1-.4-.1-.1-.2-.2-.5-.3-.2-.1-.5-.1-.8 0-.3.1-.5.3-.6.5-.1.2-.1.4 0 .7.1.3.4.4.5.6-.1.3-.2.5-.2.9v1.2c-.4-.2-.8-.5-1.2-.4-.5.1-.4.5-.5.8-.7.1-1.3 0-2-.2-.1.3-.2.7 0 .9-.1.3-.1.6.2.8.5.3 1 .3 1.6.3 0 .3.5.3 1 .3.1.3.5.3.8.4l.1-.1c.4.2.6.4.5.8 0 .9.3 1.5.6 2.1l1.2-.2c.1.4.1.7 0 1.2s-.5.9-.8 1.3c-.2-.4-.6-.6-1.2-.5-.1.2-.3.2-.4.2-.5-.2-1-.5-1.3.3-.2.2-.3.2-.5.3v.3c-.3.2-.6.4-.9.4l-.7.1c.3.2.9.3.9.6-.3.2-.6.3-1 .8.2.6-.1 1.2-.2 1.8l.5-.7.5.4c-.1-.5-.2-1 .2-1.4h.3v-.7c.4-.2.7-.4.8-.6l.4.1.4-.7h.1c.8.9 1.5 1.8 1.9 2.7-.3.7-.2 1.3.1 1.7-2.6.3-3.3.8-4.1 1.4l25.8.1v.1h12v-1h-1c.1-.2.3-.3.1-1.4-.1-.5-.1-1.1-.1-1.6.2-1.2 0-2.1-1.1-2.6.1-.3 0-.5-.4-.6-.1-.2-.2-.4-.4-.6.2-.1.5-.2.4-.8 0-.4.5-.8-.1-1.3l.1-.3c0-.7-.3-1.1-1.2-1l-.2.2c-.4-.1-.9-.1-1.3.1l-.2.3c-.2 0-.3.1-.4.2-.07.1-.15.3-.1.4-.2.3-.15.5-.2.8 0 0-.4.5-.3.6.1.1.24.1.24.1v.2l.1.1h-.1c.2.3 0 .5.1.6.2.1.5.1.6.4.1.2 0 .5-.1.6h-2c-.6-.7-1-.4-1.5.1-.3-.9-.9-1.7-1.4-2.5l.9-.5c.2-.7.4-1.5.6-2.4l1.9-.8c.9-.2 1.8-.5 2.6-.7.4-.5.5-.9.5-1.3.1-.6.1-1.2-.4-.8-.4.3-.6.1-.9.1 0-.4.1-1.2-.9-.5-.4.4-.9.3-1.3.3-.2-.6-.5-1.2-1.4-.6-.4.5-.9.5-1.4.5l-1.7-2-.2-.3-.1-.3c-.1-.8 0-1.6-1-2.8-.8-.6-1.3-1.5-2.3-1.8-.4-.3-.8-.8-1.2-1.4-.2-1-.7-1.7-1.8-1.9-.3-.3-.6-.6-.9-1.1.3-.4.5-.8.3-1.3v-.5c.1-.5-.2-1-.7-1.5-.3-.2-.5-.5-.9-.5-.1.1-.3.2-.7.2-.3 0-.4.1-.6.1h-.1l-.2-.3.5-.2c-.4-.1-.9-.3-1.2-.6v-.7l-1.2-.9.3-.1s.7.3 1.5.2l-.4-.1c-.5-.1-.5-.1-1-.4l-.3-.4c-.3-.3-.6-.8-.5-1.2-.2.3-.2.7.4 1.4l-.3.1-1.3-1.5.4-.1c-.4-.1-.7-.3-.9-.5zm2.55 11.67c.1.7.4 1.3.8 2-.1.6-.2 1.1-.5 1.6l-.5-.2-.1-.8h-.2l-.3.3c-.5-.4-.7-1.1-.8-1.4-.1-.4 0-.7 0-1 .6-.1 1.1-.4 1.5-.6zm6.1.9s.4.3.3.3c0 .2-.1.6.2.7l-.1.1c-.3.1-.4.4-.5.7-.3-.1-.5-.3-.5-.5.1-.2.3-.3.3-.5v-1zm1.6 1.6s.1 0 .2.1c0 .1.1.2.1.3-.2 0-.3-.1-.4-.2-.1-.1-.1-.2 0-.3zm.3 1.4c.6 0 1.3.1 1.9.1.2.4.5.6.7.8-.1.1-.1.3-.1.5.4.1.8.4 1.1.8l-.5.2v.4c0 .4-.2.7-.4 1.1l-1.1-.7c-.4-.2-.8-.1-1.1 0l-.1-.3c.4-.1.7-.4.9-.8-.1-.5-.1-.7-.6-1-.5-.2-.5-.1-.7 0l-.4.3s.2-.6.2-.9c0-.2-.2-.7-.2-.7zm4.2 2.8l.9 1.1-.3-.1h-.2c-.3-.1-.5 0-.8.1h-.2c-.1-.3-.1-.6 0-1 .1-.3.2-.2.4-.3zm2.8 5.4l-.8 2h-1.2l-.5-.2c-.2-.5-.5-.5-.9-.7v-.4c-.3 0-.2-.2-.2-.3-.2 0-.4-.1-.4-.3 1.5-.1 2.8-.2 3.8-.4zm-6.5.2l.8.1c-.2 0-.2 1.3.1 1.3-.4-.1-.8-.2-1-.5v-1zm-17.9.7c.8.2 1.7.3 2.5.2-.6.2-1.2.6-1.7 1.1-.5-.2-.6-.9-.8-1.4zm18.5 2.1c.2.2 1.2.2 1.2.1l-.1 1.1c0-.2-.1.5-.3.6l-.5.3c-.4-.5-.4-1.3-.3-2.1zm-12.3.7c0 .3-.3.6-.6 1s-.4.8-.2 1.1c0 .4-.2.7-.6 1l-.4-.1c-.6-.1-.4-.5-.5-.7 0-.3.1-.6.2-1 .5-.3 1-.8 1.5-1.4l.5-.1zm15 1.8l.3.2.3.2c0 .3-.1.5-.4.8-.9-.2-1 .8-1 1.6l-.4.3c0-.9.1-1.9.1-2.9.4.2.7.3 1-.3z"/>
  <path fill="#50514F" d="M0 239.02h667.68v21H0z"/>
  <path fill="#50514F" d="M8.26 144.56v9.4l-.23.04s-.2 1.5-.37 1.84c-.16.34-.4.46-.4.46v1.37H5.4v2.56l.3.94.44.3.2.4H6.3v.32l-1.58 53.2-4.68.7v.2l.76.2.25.7.5.2.52.7 1.26.5.26.7.5.2.5.7v.7l-.1.1c-.1 0-.1.1-.1.2L1.6 245l-.04.07c-.1.15-.1.3 0 .46L0 259.03v.04c0 .16.05.3.18.4.14.12.33.15.5.07.12-.05.2-.16.25-.28l7.46-12.93 7.4 12.86c0 .1.1.2.3.3.1.1.3 0 .5-.1.1-.1.2-.3.1-.5 0-.1 0-.1-.1-.1l-3.8-31.4v-.2l-.7-5.7c0-.1 0-.2-.1-.3v-.8l.5-.8.5-.3.2-.8 1.3-.5.5-.8.5-.3.3-.8.7-.3v-.2l-4.6-.8-.3-9.6v-.1l-1.2-43.6v-.3h-.1l.2-.4.4-.3.2-1V157H9.5v-1s-.2-.1-.4-.5c-.1-.3-.33-1.8-.33-1.8l-.2-.04v-9.4h-.3zm-1 17.96H9.6l-1.17 1.1-1.16-1.1zm-.35.54l1.1 1-1.1 1.05.1-2zm3.1 0l.1 2.04-1.1-1.05 1.1-1zm-1.5 1.44l1.5 1.33-1.4 2.2-1.4-2.2 1.5-1.4zm-1.6 2.2l1.1 1.6H6.8l.04-1.58zm3.3.05l.1 1.53H9.1l1.03-1.54zm-3.4 2.15h1.1l-1.2 1.8.1-1.74zm2.3 0h1.1l.1 1.7-1.1-1.7zm-.6.27l1.7 2.5-1.6 2.2-1.6-2.2 1.7-2.5zm-1.8 3.36l1.2 1.5H6.6l.04-1.5zm3.6.02l.1 1.5H9.1l1.13-1.5zm-3.7 2.15h1.3l-1.3 1.73.1-1.74zm2.5 0h1.3l.1 1.7-1.3-1.7zm-.6.24l1.8 2.4-1.8 2.2-1.8-2.2 1.8-2.4zm2 3.2l.1 1.62H9.1l1.3-1.62zm-3.9.02l1.3 1.6H6.4l.05-1.6zm-.1 2.24h1.3l-1.4 1.7.1-1.7zm2.7 0h1.3l.1 1.72-1.4-1.73zm-.7.17l2 2.45-2 2.65-2-2.68 2-2.5zm-2.1 3.33l1.5 1.97H6.2l.06-1.97zm4.2 0l.1 1.96H9.1l1.46-1.97zm.1 2.6l.1 2.2-1.6-2.2h1.6zm-2.8 0l-1.6 2.22.1-2.2H8zm.7.24l2.3 2.98-2.2 3.14-2.2-3.17 2.2-3zm-2.3 3.9l1.7 2.48-1.8-.03.1-2.5zm4.7.05l.1 2.4H9l1.7-2.5zm-5 3.1h1.9L6 196.5l.1-2.7zm3.1 0h1.8l.1 2.6-1.8-2.7zm-.6.2l2.5 3.5-2.5 3.4-2.5-3.5 2.4-3.5zM6 198.4l1.93 2.7h-2l.08-2.7zm5.1 0v2.7H9l1.93-2.7zm.1 3.3v3l-2.2-3h2zm-3.3 0l-2.2 3v-3h2.1zm.6.2l2.7 3.8-2.7 4.2-2.8-4.2 2.7-3.8zm2.8 4.8l.1 3.4H9l2.2-3.5zm-5.6 0l2.2 3.4-2.3-.1.1-3.4zm-.1 4h2.3l-2.5 3.8.1-3.9zm3.5 0h2.3l.1 3.8-2.5-3.8zm-.6.3l2.6 4.1h-.5v-.3l-2.2-.3-2.2.2v.3h-.4l2.6-4.1zm-2.6 11H11l-2.6 4.4-2.6-4.4zm5.6 1l.4 3.8H9.2l2.25-3.9zm-6.2 0l2.2 3.8H4.8l.48-3.9zm-.6 4.8h2.9L3.9 234l.7-6.2zm4.5 0H12l.77 6.2-3.6-6.2zm-.9.5l4.3 7.4H4l4.33-7.5zM4 236.9h8.67l-4.3 7.5L4 236.9zm9.2 1l.87 7.03H9.2l4.05-7zm-9.72.03l4.06 6.98h-4.9l.86-6.9zm-.95 7.92l5 .02-6.32 10.96 1.4-10.98zm6.67.03h5l1.33 10.9-6.33-10.9zm54.03-63.14c-.03.2-.27.37-.08.6l-.02.12h-.04c-.2.03-.3.23-.2.46 0 .12.1.22.1.28v.13l-.1 1.8c-.2 0-.3.02-.4 0-.1-.1-.1-.16-.2-.2v-.05c0-.13.1-.18.2-.34v-.03c0 .1.1.1.1 0h.2s.1 0 0 0c-.2-.1-.3-.1-.6.2v-.1h-.1l-.1.1v.1c-.1-.1-.3-.2-.3-.2-.1 0-.2 0-.2.1-.1 0-.1.1 0 .1-.1.1-.1.1 0 .1-.1 0 0 .1 0 .1-.1.1-.1.1 0 .1-.1.1 0 .1 0 0v.1c0 .1.1.2.1.3v.1c-.2.1-.2.1-.2.2-.1 0-.1.1-.1.1v.2c-.1 0 0 .1 0 .2 0 0-.1.1 0 .1v.1c0 .1 0 .2.1.2 0 .1-.1.1-.2 0l-.2-.1c-.1-.2-.2-.4-.3-.5-.1-.1-.4-.3-.7-.3l-.1-.5v-.3c0 .1.1.1.1.1l-.2-.1c0-.1.1 0 .2 0h.1-.1c.1 0 .2-.1.2-.2h-.1c0-.1.1-.1.1-.2h-.1l.1-.2-.1.1v-.2l-.1.1-.1.1c0-.1 0-.2-.1-.2v.2c0-.2-.1-.2-.3-.1v-.1.3-.1.1-.2.4l-.1-.1c0 .1 0 .2.1.2h-.1c0 .1.1.2.2.2 0 0-.1 0-.1.1 0 0 .1 0 .1.1h-.1.1v.1c0 .1-.1.1-.1.1h.2c.1.2.1.3.2.4v.5c-.3 0-.8-.1-1-.1h-.2l-.1.1c0 .1.2.2.2.2s-.4-.2-.5-.1.6.3.6.3-.3-.1-.4 0c0 .1.4.2.4.2s-.1 0-.1.1.6.2.6.2-.2 0-.2.1.5.1.5.1-.2.1-.1.2c0 .1.5 0 .5 0s-.2.2-.1.2c0 .1.3-.1.3-.1s-.1.2-.1.3l.2-.1-.1.2h.1s-.1.1-.1.2c.1.1.2 0 .2 0v.2l.1-.1v.2c.1.1.2-.1.2-.1s-.1.3 0 .3h.1s-.1.2 0 .2v.2c.1 0 .1-.1.1-.1v.1c.1 0 .1-.1.1-.1v.1c-.2.3-.3.7-.3.8-.1.2-.2.4-.2.6.1.1.1.1.2.1h.1c-.1.5-.3.9-.6 1.3-.1.3-.3.5-.4.8v.1c0 .2.2.3.2.3.1 0 .1.1.2.1s.1-.1.2 0c.2.1.5.1.7.1.1 0 .2.1.3.2h.1c0 .1-.1.1-.1.2-.2.1-.8.2-.7.5-.1.1-.3.1-.3.3v1.6h-.9v1c.2.3 0 .6.2.8.2.1 0 .7.2.8.1 0 .2.2 0 .6l-.2 11.8-.2 11.8s-.8.7-.3.8c.5 0-.3.8-.4.7v2.5h-4.2v.7h.3l.1.2v.9l.1.2v5.2H55v.3h-.3v.35H54v4.3h16.4v-5H70v-.3h-.4v-.3H69v-.3h-.24v-5l.14-.1v-1l.15-.1h.3v-.8h-4.5v-3c-.08.07-.9-.7-.4-.74.5-.07-.34-.8-.34-.8l-.2-11.7-.2-11.8c-.1-.4 0-.6.1-.6.2-.1 0-.7.2-.8.2-.1 0-.5.2-.8v-1h-.8v-2c0-.14-.1-.23-.2-.3-.1-.3-.3-.3-.5-.43v-.4c.2 0 .5.1.6 0h.3c.3 0 .6-.2.8-.3-.1-.3-.3-.6-.6-.9-.1-.2-.2-.5-.3-.7l-.1-.5c.2 0 .4-.1.2-.3h-.1c-.1-.1-.1-.3-.2-.5 0-.1 0-.3-.1-.4l.1-.1c.1.1.3.2.4.1.1-.1.2-.2 0-.5v-.1c.1-.1 0-.2 0-.3.2.1.2.1.1-.12.1.07.2.18.2.1.1-.1-.1-.2-.1-.3 0 0 .4.1.5.1.1-.1-.1-.2-.1-.2s.5 0 .5-.1-.2-.1-.2-.1.5 0 .6-.2c0-.1-.1-.1-.1-.1s.4-.1.3-.2c0-.1-.2-.1-.2-.1s.4-.2.4-.3c0-.2-.3 0-.3 0s.1-.1.1-.2-.2 0-.2 0c-.4.1-.7.1-1.1 0 .1-.1.3-.1.2-.3v-.7c0-.2-.3-.5-.4-.7v-.3h.1c.1-.1.2-.3.2-.5 0-.1-.1-.3-.2-.3v-.1c.2-.1 0-.5 0-.7zm-.15.87c.03.1.03.1.03.2l-.1-.1.1-.1zm.18.1c.03.1.05.1.06.2h-.1s0-.1.04-.1zm-.23.2h.08v.2-.1h.1zm.18.1c.1 0 .1.1.1.1zm-2.9.4h.1c.1 0 .1.1.1.1 0 .1.1.1.1.2v.2c0 .1-.1.2-.2.2 0 0 0-.1-.1 0 0 0 0-.1 0 0l-.1.1-.2-.2v-.2l.1-.1v-.1h.3zm3 .3l.4.5c0 .1.1.2.1.2-.1-.1-.2-.3-.4-.5v-.1zm.1.3l.4.4c0 .3-.1.6-.3.9l-.1.1-.1.1v-.1c.3-.3.2-.8.2-1.2zm-3.2.1v.1H60h.03zm.2 0v.1zm2.9.1c.1.2.1.4.1.5 0 .2 0 .4-.1.6l.1-1zm.5.5c.1 0 0 .5 0 .6 0 .1-.1.1-.2.1l.3-.6zm-1 .6h.3v.1l-.3.1zm.3.1c-.1.1-.2.1-.2.1h.3zm.1 0v.2l-.4.8c-.1 0-.1-.1-.1-.2.1 0 .2 0 .2-.2.1 0 .1 0 .1-.1.1 0 .1 0 0-.1v-.2l.3-.1zm-1 6.5c.1 0 .1.1.1.1v-.1zm.4.1l.2.1v.2h-.1v-.2zM56 228.4h.38v4.72H56v-4.72zm11.6 0h.4v4.72h-.37v-4.72zm-10.52 0h.9v4.72h-.9v-4.72zm8.92 0h.9v4.72H66v-4.72zm218.66-29.48c-.1 0-.15.2-.26.25l-.03-.05c-.15.14-.3.24-.46.3 0 .06-.1.08-.1.22.1.02.1.06 0 .14 0 .06-.1.1-.2.1v-.38c.1 0 .1-.02.1-.06v-.25h-.1.1-.1.1-.1l.1.1v-.1h.1v.2c-.1 0-.2-.1-.2-.2.1-.1 0-.2 0-.2-.2-.2-.5-.3-.7-.5l-.2-.2v.1c-.1.1.1.1.1.1 0 .1.1.1.1.2 0 0 0 .1.1.1-.1 0 0 .1.1.1 0 0 0 .1.1.1s.1.1.1.1.1.1.1 0c0 .1.1.1.1.1h.1c0 .1 0 .2.1.2 0 0 0 .1.1.1 0 .1.1.1.1.1s.1.1.1 0c0 0 0 .1.1 0v.1c-.1 0-.1.1-.1.2-.2.1-.4.4-.4.6 0 .4.3.7.7.7v.1c-.1 0-.1 0-.1.1s.1.1.1.1l.1.1.1.3v.7l-.1.1c0 .1-.1.1-.2.2-.2-.2-.4 0-.5.1v1c.1.6.2 1.1.2 1.7-.1.1-.6.3-.7.4v-.2l.1-.2v-.2c-.1 0 0-.1 0-.1.1-.1 0-.2-.1-.3h-.1c-.1-.1-.2-.2-.3.1 0-.1-.1-.1-.1-.1s0 .1.1.2c-.1.1-.1.2-.1.3v.2l-.1.5c-.6.2-1.8.4-2 .3l-.3-.9c0-.1-.1-.2-.1-.3-.1-.1-.3-.3-.4-.3l-.2.2-.1.1c-.1-.1-.1 0-.2 0h-.1c.1 0 .1 0 .2.1v.1l-.1.1v.1l.1.1v.2c0 .2.1.3 0 .4l.1.2c.1 0 .1.1.1.1.1.1.1.1.2 0l.2.1c.1 0 0 .1 0 .1v.1c-.1.1-.1.2-.2.3v.2l.1.3v.3c.1.2-.1.3-.2.3v.2c.1.2 0 .5.1.7v.3c.1.2.3.3.4.2 0-.2-.1-.3-.1-.4-.1 0-.1-.1-.1-.2-.1-.3-.1-.5 0-.6v-.1c.1 0 .2-.1.2-.1h.1c.1-.1.3.1.4 0 0-.1-.1-.1-.1-.1h.2c.1.1.1.2.2.3 0 0 .1.4 0 .4v.5c.1.2 0 .4 0 .6v.2s0 .1-.1.1v.2h-2.1v.2h-.7v.4h-.5v.5h-17.8l1.1 1.3v2.3h-.4v.4h-2l-.9.5.9.4v.4l1.8 1.4v2.7h-.9l.9 1.4V243h3.6v-1l-.4-.45v-19.4l.5-.45h4.1l.4.46v19.4l-.5.47.1 1.36h3.8V242l-.5-.45v-19.4l.4-.45h4.9l.4.46v19.4l-.4.46v1.36h4v-1.36l-.5-.45v-19.4l.4-.47h8.1l.4.46v19.4l-.4.43v1.3h4.1V242l-.4-.45v-19.4l.5-.46h5l.5.4v19.4l-.5.4v1.3h4V242l-.4-.45v-19.4l.4-.46h4l.5.4v19.4l-.4.4v1.3h3.6V223l.9-1.35h-.9V219l1.8-1.36v-.45l.9-.5-.9-.5h-2v-.5h-.4v-2.3l1-1.4h-18v-.5h-.4v-.5h-.8v-.2h-2.9v-2.2h.1c0 .1.1.2.1.3 0 .2.1.4 0 .6v.1l.1.2s0 .1-.1.1l.1.3c.1 0 .1 0 .2.1v.2c.1.1.2.2.4.1v-.2l-.1-.1v-.2s.1-.1.1-.2-.1-.2-.1-.3c-.1-.1-.1-.2-.1-.3.1-.3.1-.5.2-.7.1-.1.1 0 .2 0 0 .2.2.4 0 .5v.2c.1.3 0 .6-.1.9 0 .1 0 .2.1.2h.5v-.1l-.1-.1v-.3c-.1-.4 0-.5 0-.7.2-.2.2-.3.2-.3.1-.1.1-.2.2-.4l.2-.1-.1.2.1-.1c.1 0 .2 0 .3.1v.4l-.1.2v.2c-.3.2-.2.4-.1.4.2 0 .2 0 .3-.3v-.1l.1-.2c0-.2 0-.4.1-.6v-.2c-.1-.1-.1-.2-.1-.4v-.6c.1 0 .1-.1 0-.2 0-.1 0-.2-.1-.3l-.1-.2v-.2c.1 0 .1-.1.1-.2.1 0 .1 0 .1-.1l.1-.2v-.6l.1-.2c.1-.1.1-.2 0-.2l.1-.1c0-.1.1-.2.1-.3-.1.1-.2.1-.2.1-.1-.1-.1-.1-.2-.1v-.1h-.1c-.1 0-.2 0-.3.1-.1 0-.2.1-.2.2-.1.1-.2.2-.2.3-.2.3-.2.5-.2.8l-.1.2v.2c-.4.1-.9.1-1.4 0-.3-.1-.6-.3-.9-.4v-.3s0-.1.1-.1c-.1 0-.1-.1-.1-.1v-.3c0-.1.1-.2 0-.3 0-.1-.1-.1-.1-.2 0-.2.1-.3-.2-.1-.1-.1-.2-.2-.3 0l-.1-.1c-.1-.3-.1-1.2-.2-1.4 0-.4-.3-.8-.6-.4.1.1.1.3-.1.5-.1 0-.1 0-.1-.1l-.1-.1-.1-.2c.1-.1.1-.1.1-.2l.1-.1h.1v-.1h-.1.1v-.2.1l-.1-.1v.1l-.1-.1-.1.1v-.1h-.2l-.1.1v.1h-.1v-.6c.1-.1.1-.1 0-.1v-.3c.1 0 .1-.1.1-.1h-.1c.3-.1.6-.4.6-.7 0-.3-.3-.6-.5-.7v-.1h.1v-.2h-.1s-.1-.1 0-.1v-.1l-.1-.1h.3s.1 0 .1-.1v-.1c.1 0 .1-.1 0-.1v-.1h.1v-.3s.1 0 0-.1v-.1s.1-.1 0-.1l.1-.1zm-1.24.46c.03.05.03.08 0 .1h-.02v-.07h.02zm.1 0c.02.05.02.08 0 .1h-.03v-.07zm-.08 1.1v.15l-.04-.06v-.06h.04zm-.1.13l.03.1c0 .1 0 .1-.05.1h-.07c0 .1-.04.1-.06.1 0 0 0-.1.1-.1zm.27.3l.2.1c.2.1.3.3.3.5 0 .3-.2.5-.4.5h.2c0-.1-.1-.2-.1-.3.2 0 .3.1.4.2v-.4c-.1.1-.1.1-.3.1 0-.1.1-.2.1-.4l-.1.1v-.1zm-.1 0c.1 0 .1.1.1.1h-.2c.1.2.2.3.2.4-.1 0-.2-.1-.3-.1v.4c.1 0 .2-.1.4-.1 0 .1-.1.3-.1.4h.1v.1c-.2 0-.4-.2-.4-.5 0-.2.2-.5.4-.5zm.1 2.8v.4h-.2v-.1l.2-.2h.1zm.2.1h.1v.3-.3zm1.1 2.2c.1.1 0 .1 0 .2h.1l.1.4-.2-.1v-.3c.1 0 .1-.1.1-.1zm-1.4.3v.1c0 .1 0 .1-.1.1v-.1h.1zm-.5.4c-.2.2-.5.5-.7.8v-.4l.8-.3zm-4.4.5l.1.2h-.1s0-.1.1-.1zm3 .2v.3H280c.6 0 1.1-.1 1.7-.3zm-2.9 0v.1h.1zm7.6.1c.3.1.6.3.9.4-.3 0-.5-.1-.8-.2v-.1zm-7.6.1h.1v.2h-.1c.1 0 .1-.1.1-.1zm11 .1v.2-.1h.1zm-9.9.1c.7.1 1.2.1 1.9.1h.1v.1c-.1.1-.2.3-.3.4-.1.1 0 .2 0 .3v.5l.1.2c-.1 0-.3-.1-.4-.2 0-.5.1-1.1-.7-1-.2 0-.3 0-.4-.1l-.1-.1zm6.7 0c.3.1.6.2.8.2l.6.2h.2c-.1.1-.2.1-.2.2v.1c0 .2-.1.3-.1.5l-.6.5h-.1v-1.3h-.2v.1l-.2-.3zm2.3.2l-.1.1s-.1 0-.2.1l-.1.1c-.1.1-.2.1-.3.1l-.5-.1h1.4zm0 .1v.1h.1zm-1 1.1v.4h-.6l.6-.3zm-6.6.1l.5.2h-.6l.1-.3zm6.5.3l.1 2.1h-.6V210h.1l.1-.1h.1v-.2h-.1v-.15h-.1v-.1h.5zm-6.6 0h.2v2.1h-.4v-.4c.1-.1.1-.1.1-.2.1-.1.2-.3.1-.4v-.6.1c0-.1 0-.1-.1-.2l.1-.3zm.3 0h.4c0 .3.2.5.1.9.1.3.2.5.1.8.1.1.1.3 0 .4v.2h-.7l.1-2.1zm-.8.1v.1c-.1 0-.1.1-.1.2l.1-.2zm1.9.5h.1c.1.2 0 .4.1.6 0 .1 0 .2.1.3 0 .1.1.3.2.3v.4h-.4l-.1-.3.1-.4c.1-.1.1-.2 0-.3.1-.1.1-.2.1-.4 0-.1 0-.1.1-.1zm.5 0c.1 0 .2 0 .2.1l.1.1c-.1.2 0 .4 0 .5v.5c0 .1-.1.2 0 .4 0 .1 0 .1-.1.1h-.3v-.4c.1 0 .1-.1.2-.1 0-.1.1-.2 0-.3 0-.2-.1-.5-.1-.7zm3.8 0h.1l.1.1v.1l.1 1.4h-.2v-.2h-.1l.1-.4c.1-.1 0-.2 0-.3v-.2c.1 0 .1-.2.1-.3zm-.7.1c0 .1 0 .3.1.4l.1.2c0 .2 0 .3.1.4v.1c.1.1.1.2.3.1v.1s0 .1-.1.1v.1h-.6v-.1c.1-.1.1-.2 0-.3 0-.2.1-.4.1-.7.1-.1 0-.2.1-.3h.1zm-2.5 0l1 .1v1.2l-.1.2h-1v-.9c.1-.2.1-.3.1-.5zm2 .1h-.1c-.1.2 0 .4.2.4v1h-.7l-.1-.2v-1l.1-.1v-.1h.6zm-4.9.2zm-.3 0l.1.2c.1.2.1.4 0 .8v.2l-.1.1v-.2l.1-.5v-.5zm.6.8v.4h-.2v-.3l.2-.1zm-.2.3v.1h-.1l.1-.1zM144.7 192v11.7H143c-.06-.25-.2-.44-.37-.44-.17 0-.3.2-.35.46h-2.24c-.04-.2-.18-.4-.35-.4-.2 0-.4.2-.4.5H138v.7l-.3.3v.8h-1.36l1.05 1.5v4.7h-.5v.8h-.5v.47h-.3l.5.7v2h-.9l-.1-.1v-.1l-.1-.3c-.1-.3-.2-.7.1-.9l-.1-.7-.1-.6c-.2-.1-.4-.2-.2-.3.1-.9-.6-.6-.7-.4v.1c-.2.1-.4.2-.5.3.1.2.2.3.4.3-.1.2-.2.4-.1.6-.1 0-.3.2-.2.3v.3c-.2.3-.2.6-.2 1 0 .1-.1.3.1.3l-.1.2h-.1v.6h-.3l.4.6v.7h-1.6l.5 1h1v1.5h-.4l.4.8h-.7l.6 1.9v11.4l-.6.9v.8l-.3.1v.5l.3.2v3.6l-.3.3v1l60.2.1 60.2-.1v-1l-.3-.3v-3.7l.3-.2v-.5l-.3-.1v-.8l-.5-.9V223l.6-1.9h-.5l.4-.8h-.4v-2h1.1l.5-.94H253v-.74l.47-.55h-.5v-.5l-.1-.2c.1 0 .1-.23.1-.35 0-.35 0-.7-.2-1v-.3c0-.1-.2-.35-.2-.3.02-.25 0-.45-.1-.6.15-.05.3-.1.4-.28-.07-.18-.3-.25-.47-.35v-.2c-.1-.1-.8-.5-.64.4.23 0 0 .2-.13.3l-.07.6-.06.7c.25.1.14.5.1.8l-.08.3.02.1-.06.2h-.9v-2l.5-.7h-.2v-.5h-.4v-.8h-.43V207l1.05-1.4h-1.36v-.7l-.3-.2v-.7h-1.3c-.03-.2-.17-.4-.34-.4-.13 0-.3.2-.3.5h-2.26c-.06-.2-.2-.4-.37-.4s-.3.2-.36.5h-1.3V197h.1v.7c2.7.94 4.3.25 6 1.3v-.7c.1 0-.2-.2.2-.4 0-.1-.2-.2-.2-.5 0-.66.3-.1.6-.54.1-.3-.4-.6 0-.8-1.1-.7-2.3-.74-3.2-1.53-1.1-1.12-1.8-1.22-3.3-1.6v1h-.1V192h-.3v11.7h-.5c0-.23-.2-.42-.3-.42-.2 0-.3.2-.4.45h-2.2c0-.26-.1-.45-.3-.45s-.3.2-.3.44h-1.4v.7l-.3.22v.8H236l.97 1.46v4.68h-.37v.8h-.4v.48l-.25.84-.3 1.05h-4.05v-.3l-.2-.23v-.33c.24-.2.06-.3-.07-.4.2-.2.35-.5-.07-.4.1-.2.13-.3-.04-.5l-.08-.2-.07.1c-.22.1-.14.3-.05.4-.53 0-.1.3-.08.4-.13 0-.38.1-.07.3v.3l-.22.2v.3h-4.27v-.3l-.2-.2v-.3c.26-.2.08-.3-.05-.4.2-.2.36-.4-.06-.4.1-.2.12-.3-.06-.4v-.2.2c-.2.1-.1.2 0 .4-.5 0-.1.2-.1.4-.1 0-.4.1 0 .4v.3l-.2.2v.3h-4.3v-.3l-.2-.2v-.4c.2-.2.1-.3-.1-.4.2-.2.4-.4-.1-.4.1-.2.2-.3 0-.4l-.1-.2-.1.1c-.2.1-.1.3 0 .4-.5 0-.1.2-.1.4-.1.1-.3.1 0 .4v.3l-.2.2v.3H216v-.3l-.2-.3v-.4c.24-.2.06-.3-.07-.4.2-.2.35-.4-.07-.4.08-.2.1-.3-.05-.4v-.1.1c-.2.1-.1.3 0 .4-.5 0-.1.3 0 .4-.1 0-.4.1 0 .3v.3l-.2.2v.3H211c-.1-.3-.37-.7-.14-1 0-.3.22-.7-.3-.8-.17-.1-.25-.2-.22-.4l.87-1.5h-1v-1l-.5-.3.6-1.1h-.6v-.6l-.4-1.1v-1.9l.4-.4-.8-.5v-.8h-.2l.2-.7c-.1-.2-.3-.3-.4-.3l.1-.1c0-.1 0-.1-.1-.1v-.3h.2v-.1h-.2v-.1h-.1v.1h-.2v.1h.2v.3l-.1.1s0 .1.1.1c-.1.1-.3.2-.5.4l.2.7h-.3v.7l-.9.5.5.4v1.8l-.5 1v.3h-.8s-.7-2.3-1.2-3.2c-.5-1-1.4-2.2-2-2.9-.5-.7-1-1.1-1.6-1.6-.6-.4-1.5-1-2.2-1.3-.6-.3-2.1-.8-2.1-.8v-.3l-.6-.5s-.1-.2-2.1-.2h-.1c-2 0-2.1.2-2.1.2l-.7.5v.3s-1.5.5-2.1.8c-.6.3-1.6.9-2.2 1.3-.5.5-1 .9-1.6 1.5-.6.7-1.5 2-2 2.9-.5 1-1.2 3.3-1.2 3.3h-.9v-.3l-.5-1v-1.9l.5-.4-.9-.5v-.9h-.3l.2-.7c-.2-.2-.3-.3-.5-.3.1 0 .1-.1.1-.1 0-.1 0-.2-.1-.2v-.3h.2v-.1h-.2v-.1h-.1v.1h-.2v.1h.2v.3c0 .1-.1.1-.1.2s0 .1.1.2c-.2 0-.3.1-.5.3l.2.6h-.2v.7l-.8.5.4.4v1.8l-.4 1v.7h-.6l.6 1.1-.5.4v1h-1l.9 1.5c0 .1-.1.3-.3.4-.5.1-.2.5-.3.8.3.4 0 .7-.1 1H173v-.3l-.3-.2v-.3c.3-.2.05-.3-.07-.4 0-.1.44-.4-.1-.4.1-.1.2-.2 0-.4l-.1-.1-.1.2c-.2.1-.15.3-.07.4-.4 0-.24.2-.04.4-.1.1-.3.2 0 .4v.3l-.2.2v.3h-4.3v-.3l-.2-.2v-.4c.3-.3.05-.3-.1-.4.05-.2.47-.4-.1-.4.1-.1.2-.3 0-.4l-.1-.2-.1.1c-.2.1-.1.2-.04.4-.4 0-.24.2-.05.4-.2.1-.3.2-.1.3v.3l-.2.2v.3H162v-.3l-.2-.3v-.3c.3-.2.04-.3-.08-.3.02-.2.44-.4-.1-.4.1-.2.2-.3-.05-.4l-.1-.2-.06.1c-.2.1-.1.2 0 .4-.4 0-.3.2-.1.4-.1.1-.3.2 0 .4v.3l-.2.2v.3h-4.3v-.3l-.2-.2v-.4c.3-.2.1-.3 0-.3.1-.2.5-.4-.1-.4.1-.2.2-.3 0-.4v-.2l-.1.1c-.2.1-.1.2 0 .4-.4 0-.2.2 0 .4-.1.1-.3.2 0 .4v.3l-.2.2v.3H152l-.3-1-.3-.9v-.5h-.4v-.8h-.4v-4l1-1.4h-1.08v-.8l-.25-.2v-.7h-1.3c-.05-.2-.2-.4-.36-.4-.2 0-.3.2-.3.5H146c-.05-.2-.2-.4-.36-.4s-.3.2-.37.4h-.5v-7h.1v.74c2.95-.15 3.94 1 5.93 1.3v-.7c-.1-.1-.26-.1-.3-.45-.02-.14-.02-.25.2-.23 0-.3-.02-.6-.1-.8.1-.4.35-.6.66-.8-1.1-.7-1.86-1.1-3.2-1.6-1.1-.4-1.8-1.3-3.3-1.7v1h-.1v-1h-.3zm98.9 1.68h.1v2.8h-.1v-2.77zm-98.6.04h.1v2.8h-.1v-2.8zm348.1-13.5v5.6h-.5l.03 1.1.2.4-.7 4.2h-.8v1h-1.6l-.8-.9-2.2.4-.4 1.1.2.2-.2 1.1.2.2v.8l.5 1.3-.2 1.1.3.2v5.1l-.2.2.2.4-.2.8.2.5v8.1l-.2.2.2.2v4l-.6.4.2.4v4.6h-.7l-.9.5v1.1l.2.2v4.82h-27.8l-1.1-.2h-4.8l-.2.2v.9l.2.2v1.1l.24.2v12.4h-.9v.8l.2.4v5.5h84.4v-5.45l.2-.5v-.9h-.9V232l.2-.2v-1.1l.2-.2v-.9l-.2-.2h-5l-1.1.2h-27.7v-4.8l.2-.22v-1.1l-.87-.44h-.67v-4.6l.3-.43-.6-.4v-3.9l.2-.2-.2-.2v-8.1l.3-.4-.2-.9.26-.4-.3-.2v-5l.2-.2-.3-1.1.4-1.3v-.9l.2-.2-.3-1.1.2-.2-.4-1.1-2.2-.4-.9.9H495v-1h-.8l-.82-4.2.17-.4V186h-.47v-2c.23.13 1.22.63 2.43.82 1.5.14.7-.04 2.5.26 0 0-.1-.04-.1-.57 0-.5.5-.5.5-.9s-.3-.8-.3-1.1v-.3c-.7-.1-1.4.2-3.4-.9-.8-.5-1.3-.6-1.4-.6v-.3h-.2zm-36 49.6c.05 0 .1.1.1.1l-.04.1h-.1l-.1-.1h.1zm.7 0c.04 0 .1.1.1.1l-.05.1h-.15l-.06-.1h.1zm.7 0c.03 0 .07.1.1.1l-.06.1h-.1l-.06-.1h.1zm.7 0c.02 0 .06.1.1.1l-.07.1h-.1l-.07-.1h.13zm.7 0s.06.1.1.1l-.08.1h-.1l-.05-.1h.1zm.66 0c.04 0 .1.1.1.1l-.05.1h-.1v-.1h.1zm.7 0c.03 0 .08.1.1.1l-.06.1h-.1l-.07-.1h.1zm.68 0c.06 0 .1.1.1.1l-.04.1h-.1l-.1-.1h.1zm.7 0c.05 0 .1.1.1.1l-.05.1h-.1l-.1-.1h.1zm.7 0c.04 0 .1.1.1.1l-.06.1h-.05v-.1h.1zm.7 0c.03 0 .07.1.1.1l-.07.1h-.1l-.08-.1h.1zm.67 0c.1 0 .1.1.1.1v.1h-.1v-.1h.1zm.7 0c.1 0 .1.1.1.1v.1h-.1v-.1h.1zm.7 0c.1 0 .1.1.1.1v.1h-.1v-.1h.1zm.7 0c.1 0 .1.1.1.1v.1h-.1v-.1h.1zm.7 0c.1 0 .1.1.1.1v.1h-.1v-.1h.1zm.7 0c.1 0 .1.1.1.1v.1h-.1v-.1h.1zm.7 0c.1 0 .1.1.1.1v.1h-.1v-.1h.1zm.7 0c.1 0 .1.1.1.1v.1h-.1l-.1-.1h.1zm.7 0l.1.1v.1h-.1l-.1-.1h.1zm.7 0c.1 0 .1.1.1.1v.1h-.1v-.1h.1zm.7 0c.1 0 .1.1.1.1v.1h-.1v-.1h.1zm.7 0c.1 0 .1.1.1.1v.1h-.1l-.1-.1h.1zm.7 0c.1 0 .1.1.1.1v.1h-.1l-.1-.1h.1zm.7 0c.1 0 .1.1.1.1v.1h-.1l-.1-.1h.2zm.7 0l.1.1-.1.1h-.1l-.1-.1h.1zm.7 0c.1 0 .1.1.1.1v.1h-.1v-.1h.1zm.7 0c.1 0 .1.1.1.1v.1h-.1v-.1h.1zm.7 0c.1 0 .1.1.1.1v.1h-.1v-.1h.1zm.7 0c.1 0 .1.1.1.1v.1h-.1l-.1-.1h.1zm.7 0c.1 0 .1.1.1.1v.1h-.1v-.1h.1zm.7 0l.1.1v.1-.1h.1zm.7 0l.1.1-.1.1h-.1v-.1h.1zm.7 0c.1 0 .1.1.1.1v.1h-.1v-.1h.1zm.7 0c.1 0 .1.1.1.1v.1h-.1v-.1h.1zm.7 0c.1 0 .1.1.1.1v.1h-.1l-.1-.1h.2zm.7 0l.1.1-.1.1h-.1v-.1h.1zm.7 0c.1 0 .1.1.1.1v.1h-.1v-.1h.1zm.7 0c.1 0 .1.1.1.1v.1h-.1v-.1h.1zm.7 0c.1 0 .1.1.1.1v.1h-.1l-.1-.1h.1zm.7 0c.1 0 .1.1.1.1v.1h-.1v-.1h.1zm16.8 0l.1.1-.1.1h-.2l-.1-.1h.1zm.7 0l.1.1-.1.1h-.1l-.1-.1h.1zm.7 0l.1.1-.1.1h-.1l-.1-.1h.1zm.6 0c.1 0 .1.1.1.1v.1h-.1l-.1-.1h.1zm.7 0l.1.1v.1h-.1l-.1-.1h.1zm.7 0l.1.1-.1.1h-.1l-.1-.1h.1zm.7 0l.1.1-.1.1h-.1l-.1-.1h.1zm.7 0l.1.1-.1.1h-.1l-.1-.1h.1zm.7 0l.1.1-.1.1h-.1l-.1-.1h.1zm.7 0s0 .1.1.1l-.1.1h-.1l-.1-.1h.1zm.6 0l.1.1-.1.1h-.1l-.1-.1h.1zm.7 0l.1.1-.1.1h-.1l-.1-.1h.1zm.7 0l.1.1-.1.1h-.1l-.1-.1h.1zm.7 0l.1.1-.1.1h-.1l-.1-.1h.1zm.7 0l.1.1-.1.1h-.1l-.1-.1h.1zm.7 0l.1.1-.1.1h-.2l-.1-.1h.1zm.7 0l.1.1-.1.1h-.1l-.1-.1h.1zm.7 0l.1.1-.1.1h-.1l-.1-.1h.1zm.7 0l.1.1-.1.1h-.1l-.1-.1h.1zm.6 0s0 .1.1.1l-.1.1h-.1l-.1-.1h.1zm.7 0s0 .1.1.1l-.1.1h-.1l-.1-.1h.1zm.6 0l.1.1-.1.1h-.1l-.1-.1h.1zm.7 0l.1.1-.1.1h-.1l-.1-.1h.1zm.7 0l.1.1-.1.1h-.1l-.1-.1h.1zm.7 0l.1.1-.1.1h-.1l-.1-.1h.1zm.7 0l.1.1-.1.1h-.1l-.1-.1h.1zm.7 0l.1.1-.1.1h-.1v-.1h.1zm.7 0l.1.1-.1.1h-.1l-.1-.1h.1zm.7 0s0 .1.1.1l-.1.1h-.1l-.1-.1h.1zm.6 0l.1.1-.1.1h-.1v-.1h.1zm.7 0s0 .1.1.1l-.1.1h-.1v-.1h.1zm.7 0s0 .1.1.1l-.1.1h-.1v-.1h.1zm.6 0l.1.1v.1h-.1l-.1-.1h.1zm.7 0l.1.1-.1.1h-.1v-.1h.1zm.7 0l.1.1-.1.1h-.1v-.1h.2zm.7 0l.1.1-.1.1h-.1l-.1-.1h.1zm.7 0l.1.1-.1.1h-.1l-.1-.1h.1zm.7 0l.1.1-.1.1h-.1l-.1-.1h.1zm.7 0l.1.1-.1.1h-.1l-.1-.1h.1zm.7 0s0 .1.1.1l-.1.1h-.1v-.1h.1zm.6 0c.1 0 .1.1.1.1v.1h-.1v-.1h.1zm-72.1.1l.1.1s0 .1-.1.1h-.1v-.1h.1zm.2 0c.1 0 .1 0 .1.1.1 0 .1.1 0 .1h-.1v-.2zm.5 0v.1c-.1 0-.1.1-.1.1h-.1v-.1h.1zm.2 0s.1 0 .1.1v.1h-.1s0-.1-.1-.1l.1-.1zm.4 0l.1.1-.1.1h-.1v-.1h.1zm.3 0c.1 0 .1 0 .1.1.1 0 .1.1 0 .1h-.1v-.2zm.5 0v.2h-.1c-.1 0-.1 0 0-.1h.1zm.2 0c.1 0 .1 0 .1.1v.1h-.1v-.1l.1-.1zm.5 0v.2h-.1v-.1h.1zm.2 0c.1 0 .1 0 .1.1.1 0 .1.1 0 .1h-.1v-.1l.1-.1zm.5 0l.1.1-.1.1h-.1v-.1h.1zm.3 0c.1 0 .1 0 .1.1.1 0 .1.1 0 .1h-.1v-.2zm.5 0l.1.1v.1h-.2v-.1h.1zm.3 0s.1 0 .1.1v.1h-.1v-.1l.1-.1zm.4 0l.1.1c-.1 0-.1.1-.1.1h-.1v-.1h.1zm.2 0c.1 0 .1 0 .1.1.1 0 .1.1 0 .1h-.1v-.1l.1-.1zm.5 0l.1.1c-.1 0-.1.1-.1.1h-.1c-.1 0-.1 0 0-.1h.1zm.3 0c.1 0 .1 0 .1.1v.1h-.1s0-.1-.1-.1l.1-.1zm.5 0l.1.1v.1h-.1v-.1h.1zm.3 0s.1 0 .1.1v.1h-.1l-.1-.1.1-.1zm.4 0v.1c-.1 0-.1.1-.1.1h-.1v-.1h.1zm.2 0c.1 0 .1 0 .1.1v.1h-.1v-.1l.1-.1zm.5 0l.1.1-.1.1h-.1v-.1h.1zm.3 0c.1 0 .1 0 .1.1.1 0 .1.1 0 .1h-.1v-.2zm.5 0h.1v.1l-.1.1h-.1v-.1h.1zm.3 0s.1 0 .1.1v.1h-.1s0-.1-.1-.1l.1-.1zm.4 0l.1.1v.1h-.1v-.1h.1zm.3 0c.1 0 .1 0 .1.1.1 0 .1.1 0 .1h-.1v-.1l.1-.1zm.5 0l.1.1v.1h-.1v-.1h.1zm.2 0c.1 0 .1 0 .1.1.1 0 .1.1 0 .1h-.1v-.1l.1-.1zm.5 0l.1.1s0 .1-.1.1h-.2v-.1h.1zm.3 0c.1 0 .1 0 .1.1v.1h-.1v-.1l.1-.1zm.5 0l.1.1v.1h-.1v-.1h.1zm.3 0s.1 0 .1.1v.1h-.1s0-.1-.1-.1l.1-.1zm.4 0l.1.1-.1.1h-.1c-.1 0-.1 0 0-.1h.1zm.2 0c.1 0 .1 0 .2.1v.1h-.2v-.1l.1-.1zm.5 0l.1.1c-.1 0-.1.1-.1.1h-.1c-.1 0-.1 0 0-.1h.1zm.2 0c.1 0 .1 0 .1.1.1 0 .1.1 0 .1h-.1v-.2zm.5 0l.1.1v.1h-.2v-.1h.1zm.3 0s.1 0 .1.1v.1h-.1s0-.1-.1-.1l.1-.1zm.5 0v.2h-.1c-.1 0-.1 0 0-.1h.1zm.2 0l.1.1v.1h-.1l-.1-.1v-.1zm.4 0l.1.1c-.1 0-.1.1-.1.1h-.1v-.1h.1zm.2 0c.1 0 .1 0 .1.1.1 0 .1.1 0 .1h-.1v-.1l.1-.1zm.5 0l.1.1v.1h-.1c-.1 0-.1 0-.1-.1h.1zm.3 0s.1 0 .1.1v.1h-.1s0-.1-.1-.1l.1-.1zm.4 0l.1.1v.1h-.1v-.1h.1zm.3 0c.1 0 .1 0 .1.1v.1h-.1s0-.1-.1-.1l.1-.1zm.5 0l.1.1-.1.1h-.1v-.1h.1zm.3 0s.1 0 .1.1v.1h-.1s0-.1-.1-.1l.1-.1zm.4 0v.2h-.1v-.1h.1zm.2 0c.1 0 .1 0 .1.1v.1h-.1v-.1l.1-.1zm.5 0v.2h-.1c-.1 0-.1 0 0-.1h.1zm.2 0s.1 0 .1.1v.1h-.1l-.1-.1.1-.1zm.4 0l.1.1v.1h-.1v-.1h.1zm.3 0c.1 0 .1 0 .1.1.1 0 0 .1 0 .1h-.1v-.1l.1-.1zm.5 0v.2h-.1v-.1h.1zm.2 0s.1 0 .1.1v.1h-.1s0-.1-.1-.1l.1-.1zm.4 0l.1.1v.1h-.1v-.1h.1zm.3 0c.1 0 .1 0 .1.1.1 0 0 .1 0 .1h-.1v-.2zm.5 0v.1l-.1.1h-.1v-.1h.1zm.2 0l.1.1v.1h-.2v-.2zm.4 0l.1.1v.1h-.1v-.1h.1zm.3 0s.1 0 .1.1v.1h-.1s0-.1-.1-.1l.1-.1zm.4 0l.1.1v.1h-.2v-.1h.1zm.3 0s.1 0 .1.1v.1h-.1l-.1-.1.1-.1zm.4 0l.1.1v.1h-.2v-.1h.2zm.2 0c.1 0 .1 0 .1.1.1 0 .1.1 0 .1h-.1v-.1l.1-.1zm.5 0l.1.1v.1h-.1v-.1h.1zm.3 0c.1 0 .1 0 .1.1.1 0 .1.1 0 .1h-.1v-.1l.1-.1zm.5 0l.1.1v.1h-.1v-.1h.1zm.2 0c.1 0 .1 0 .1.1v.1h-.1v-.1l.1-.1zm.5 0v.2h-.1v-.1h.1zm.2 0s.1 0 .1.1v.1h-.1s0-.1-.1-.1l.1-.1zm.4 0l.1.1v.1h-.1v-.1h.1zm.3 0c.1 0 .1 0 .1.1.1 0 .1.1 0 .1h-.1v-.1l.1-.1zm.5 0l.1.1v.1h-.1v-.1h.1zm.3 0c.1 0 .1 0 .1.1.1 0 .1.1 0 .1h-.1v-.1l.1-.1zm.5 0l.1.1c-.1 0-.1.1-.1.1h-.1v-.1h.1zm.2 0s.1 0 .1.1v.1h-.1l-.1-.1v-.1zm.4 0l.1.1v.1h-.1v-.1h.1zm.3 0l.1.1v.1h-.1l-.1-.1v-.1zm16.5 0v.2h-.1v-.1h.1zm.2 0c.1 0 .1 0 .1.1.1 0 .1.1 0 .1h-.1v-.2zm.5 0v.1l-.1.1h-.1v-.1h.1zm.2 0c.1 0 .1 0 .1.1.1 0 0 .1 0 .1h-.1v-.2zm.5 0l.1.1-.1.1h-.1v-.1h.1zm.2 0c.1 0 .1 0 .1.1.1 0 .1.1 0 .1h-.1v-.2zm.5 0v.2h-.1v-.1h.1zm.2 0s.1 0 .1.1v.1h-.1l-.1-.1v-.1zm.4 0v.1c-.1 0-.1.1-.1.1h-.2v-.1h.1zm.2 0s.1 0 .1.1v.1h-.1s0-.1-.1-.1v-.1zm.4 0l.1.1c-.1 0-.1.1-.1.1h-.1v-.1h.1zm.2 0c.1 0 .1 0 .2.1.1 0 .1.1 0 .1h-.1v-.1l.1-.1zm.5 0l.1.1-.1.1h-.1v-.1h.1zm.2 0c.1 0 .1 0 .1.1.1 0 .1.1 0 .1h-.1v-.1l.1-.1zm.5 0l.1.1v.1h-.1v-.1h.1zm.2 0s.1 0 .1.1v.1h-.2v-.2zm.4 0l.1.1-.1.1h-.1v-.1h.1zm.2 0c.1 0 .1 0 .1.1v.1h-.1v-.1l.1-.1zm.5 0v.1c-.1 0-.1.1-.1.1h-.1v-.1h.1zm.2 0c.1 0 .1 0 .1.1v.1h-.1s0-.1-.1-.1l.1-.1zm.5 0l.1.1c-.1 0-.1.1-.1.1h-.1c-.1 0-.1 0 0-.1h.1zm.2 0s.1 0 .1.1v.1h-.1l-.1-.1.1-.1zm.4 0l.1.1c-.04 0-.1.1-.1.1h-.1v-.1h.1zm.3 0s.1 0 .1.1v.1h-.1l-.1-.1v-.1zm.4 0v.1c-.1 0-.1.1-.1.1h-.1c-.1 0-.1 0 0-.1h.1zm.2 0c.1 0 .1 0 .1.1.1 0 .1.1 0 .1h-.1v-.2zm.5 0v.2h-.1v-.1h.1zm.2 0c.1 0 .1 0 .1.1.1 0 .1.1 0 .1h-.1v-.1l.1-.1zm.5 0l.1.1v.1h-.2v-.1h.1zm.3 0s.1 0 .1.1v.1h-.1s0-.1-.1-.1l.07-.1zm.4 0l.1.1-.1.1h-.1v-.1h.1zm.26 0s.1 0 .1.1v.1h-.1s0-.1-.1-.1v-.1zm.4 0l.1.1s0 .1-.1.1h-.1v-.1h.1zm.2 0c.1 0 .1 0 .1.1.1 0 .1.1 0 .1h-.1v-.1l.1-.1zm.5 0l.1.1v.1h-.1v-.1h.1zm.3 0s.1 0 .1.1v.1h-.1s0-.1-.1-.1l.1-.1zm.4 0l.1.1-.1.1h-.1v-.1h.1zm.3 0c.1 0 .1 0 .1.1v.1h-.1v-.1l.1-.1zm.5 0l.1.1v.1h-.1v-.1h.1zm.3 0c.1 0 .1 0 .1.1.1 0 .1.1 0 .1h-.1v-.2zm.5 0v.1l-.1.1h-.1v-.1h.1zm.2 0c.1 0 .1 0 .1.1.1 0 .1.1 0 .1h-.1v-.1l.07-.1zm.5 0v.2h-.1v-.1h.1zm.2 0c.1 0 .1 0 .1.1.1 0 .1.1 0 .1h-.1v-.1l.03-.1zm.5 0v.2h-.1v-.1h.1zm.2 0s.1 0 .1.1v.1h-.1s0-.1-.1-.1l.1-.1zm.4 0l.1.1-.02.1h-.1v-.1h.1zm.3 0s.1 0 .1.1v.1h-.1s-.05-.1-.1-.1l.05-.1zm.4 0v.1c-.02 0-.04.1-.04.1h-.1v-.1h.1zm.2 0s.1 0 .1.1v.1h-.1s-.04-.1-.1-.1l.05-.1zm.4 0l.1.1v.1h-.1v-.1h.1zm.3 0s.1 0 .1.1v.1h-.1s0-.1-.1-.1v-.1zm.4 0l.1.1c-.1 0-.1.1-.1.1h-.1c-.1 0-.1 0-.03-.1h.1zm.3 0s.1 0 .1.1v.1h-.1l-.1-.1.05-.1zm.4 0l.1.1-.04.1h-.1v-.1h.1zm.27 0s.1 0 .1.1v.1h-.1l-.1-.1.03-.1zm.4 0l.04.1c-.1 0-.1.1-.1.1h-.1v-.1h.1zm.2 0c.1 0 .1 0 .1.1.1 0 0 .1 0 .1h-.1v-.1l.1-.1zm.5 0l.1.1-.07.1h-.1s-.1 0 0-.1h.1zm.3 0c.1 0 .1 0 .1.1.1 0 .1.1 0 .1h-.1v-.1l.1-.1zm.5 0l.1.1v.1h-.1v-.1h.1zm.3 0s.1 0 .1.1v.1h-.1s0-.1-.1-.1l.1-.1zm.4 0l.1.1v.1h-.1v-.1h.1zm.3 0c.1 0 .1 0 .1.1.1 0 0 .1 0 .1h-.1v-.2zm.5 0l.1.1c-.1 0-.1.1-.1.1h-.1v-.1h.1zm.2 0s.1 0 .1.1v.1h-.1s0-.1-.1-.1l.1-.1zm.4 0l.1.1-.1.1h-.1v-.1h.1zm.3 0s.1 0 .1.1v.1h-.1s0-.1-.1-.1l.1-.1zm.4 0l.1.1v.1h-.1v-.1h.1zm.3 0c.1 0 .1 0 .1.1v.1h-.1v-.1l.06-.1zm.5 0l.07.1v.1h-.1v-.1h.1zm.2 0c.07 0 .1 0 .1.1v.1h-.1s0-.1-.03-.1l.1-.1zm.48 0v.2h-.4v-.1h.1zm.2 0s.1 0 .1.1v.1h-.1l-.1-.1v-.1zm.4 0v.1c-.1 0-.1.1-.1.1h-.1v-.1h.1zm.2 0s.1 0 .1.1v.1h-.1s-.05-.1-.1-.1v-.1zm.4 0v.1l-.1.1h-.1v-.1h.1zm.2 0c.1 0 .1 0 .1.1.1 0 .1.1 0 .1h-.1v-.2zm.5 0l.1.1c-.05 0-.1.1-.1.1h-.1v-.1h.1zm.26 0s.1 0 .1.1v.1h-.1s-.06-.1-.1-.1v-.1zm.4 0l.1.1v.1h-.1v-.1h.1zm.3 0c.1 0 .1 0 .1.1v.1h-.1s0-.1-.1-.1v-.1zm-72.2.2h.1c0 .1 0 .1.1.1v.1h-.1c-.1 0-.1-.1 0-.1zm.3 0h.1v.1c0 .1 0 .1-.1.1h-.1v-.1zm.4 0h.1v.1l-.1.1h-.1v-.1zm.3 0h.1v.1c0 .1-.1.1-.1.1h-.1c.07 0 .1 0 .1-.1zm.3 0h.1l.1.1v.1h-.1c-.03 0-.03-.1 0-.1zm.38 0h.1v.1l-.1.1h-.1s.1 0 .1-.1zm.4 0h.1c0 .1.1.1.1.1l-.1.1h-.1v-.1zm.4 0h.1v.1c-.07.1-.1.1-.1.1h-.1v-.1zm.3 0h.1c0 .1 0 .1.03.1l-.1.1h-.1c-.1 0-.1-.1 0-.1zm.3 0h.1c.03.1.03.1 0 .1 0 .1-.06.1-.1.1h-.1c.06 0 .1 0 .1-.1zm.34 0h.1c0 .1 0 .1.1.1v.1h-.1v-.1zm.4 0h.1c.05.1.05.1 0 .1 0 .1-.04.1-.1.1h-.1v-.1zm.37 0h.1c0 .1 0 .1.07.1v.1h-.1v-.1zm.3 0h.1v.1c0 .1-.03.1-.1.1h-.1s.1 0 .1-.1zm.38 0h.1c0 .1.03.1.1.1l-.1.1h-.1v-.1zm.33 0h.1v.1c0 .1 0 .1-.1.1h-.1c.1 0 .1 0 .1-.1zm.4 0h.1c0 .1 0 .1.1.1l-.02.1h-.1v-.1zm.3 0h.2c.1.1.1.1 0 .1 0 .1 0 .1-.1.1.1 0 .1 0 .1-.1zm.4 0h.1c0 .1.1.1.1.1l-.1.1h-.1v-.1zm.4 0h.1v.1c0 .1 0 .1-.1.1v-.1zm.4 0h.1v.1l-.1.1h-.1v-.1zm.3 0h.1v.1c0 .1-.1.1-.1.1h-.1l.1-.1zm.3 0h.1c0 .1.1.1.1.1v.1h-.1c-.05 0-.05-.1 0-.1zm.4 0h.1v.1c0 .1 0 .1-.1.1h-.1v-.1zm.4 0h.1v.1l-.1.1h-.1v-.1zm.3 0h.1v.1c0 .1-.1.1-.1.1s.1 0 .1-.1zm.3 0h.1c0 .1 0 .1.1.1l-.1.1h-.1v-.1zm.3 0h.1v.1c0 .1-.1.1-.1.1h-.1v-.1zm.3 0h.1v.1l-.1.1h-.1c-.1 0-.05-.1 0-.1zm.3 0h.1v.1c0 .1-.1.1-.1.1h-.1s.1 0 .1-.1zm.3 0h.1l.1.1v.1h-.1v-.1zm.4 0h.1v.1c0 .1-.1.1-.1.1h-.1s.05 0 .05-.1zm.3 0h.1l.1.1v.1h-.1v-.1zm.3 0h.1v.1c0 .1-.1.1-.1.1h-.1s.1 0 .1-.1zm.3 0h.1l.1.1-.1.1h-.1v-.1zm.4 0h.1v.1l-.1.1h-.1v-.1zm.3 0h.1c0 .1.1.1.1.1l-.1.1h-.1v-.1zm.4 0h.1v.1c-.05.1-.1.1-.1.1h-.1c.05 0 .1 0 .1-.1zm.3 0h.1c0 .1 0 .1.1.1l-.1.1h-.1v-.1zm.36 0h.1v.1c0 .1-.1.1-.1.1h-.1c.1 0 .1 0 .1-.1zm.3 0h.2v.1l-.1.1h-.1v-.1zm.4 0h.2v.1c0 .1-.1.1-.1.1h-.1c.1 0 .1 0 .1-.1zm.4 0h.1c0 .1.1.1.1.1v.1h-.1v-.1zm.4 0h.1v.1c0 .1-.1.1-.1.1h-.1c.1 0 .1 0 .1-.1zm.3 0h.1c0 .1 0 .1.1.1l-.1.1h-.1v-.1zm.3 0h.2v.1c0 .1-.1.1-.1.1h-.1c.1 0 .1 0 .1-.1zm.4 0h.1c0 .1 0 .1.1.1l-.1.1h-.1v-.1zm.3 0h.2v.1c0 .1-.1.1-.1.1h-.1v-.1zm.4 0h.1c0 .1.1.1.1.1v.1h-.1v-.1zm.4 0h.18v.1l-.1.1h-.1v-.1zm.4 0h.1v.2h-.1v-.1zm.3 0h.1v.1c0 .1-.1.1-.1.1h-.1c.1 0 .1 0 .1-.1zm.3 0h.1c0 .1 0 .1.1.1v.1h-.1v-.1zm.4 0h.1v.1c0 .1 0 .1-.1.1s0 0 0-.1zm.4 0h.1v.2h-.1c-.1 0-.07-.1 0-.1zm.3 0h.1v.1c0 .1-.1.1-.1.1h-.1v-.1zm.3 0h.1c0 .1.1.1.1.1v.1h-.1v-.1zm.4 0h.1v.1c0 .1-.1.1-.1.1h-.1c.1 0 .1 0 .1-.1zm.3 0h.1l.1.1v.1h-.1v-.1zm.4 0h.1v.1c0 .1-.05.1-.1.1h-.3v-.1zm.35 0h.1v.1l-.1.1h-.1v-.1zm.3 0h.1c.1.1.1.1 0 .1 0 .1 0 .1-.1.1.1 0 .1 0 .1-.1zm.4 0h.2c0 .1 0 .1.05.1l-.04.1h-.1v-.1zm.4 0h.1v.1c0 .1-.1.1-.1.1h-.1s.03 0 .03-.1zm.33 0h.1v.2h-.1c-.05 0-.05-.1 0-.1zm.3 0h.1v.1c0 .1-.1.1-.1.1h-.1v-.1zm.3 0h.1c0 .1 0 .1.1.1l-.1.1h-.1v-.1zm.3 0h.1c.1.1.1.1 0 .1 0 .1 0 .1-.1.1.1 0 .1 0 .1-.1zm.4 0h.1c0 .1 0 .1.1.1l-.1.1h-.1c-.05 0-.05-.1 0-.1zm.4 0h.1v.1c0 .1 0 .1-.1.1h-.1v-.1zm.3 0h.1c0 .1 0 .1.1.1v.1h-.1v-.1zm.3 0h.1c.1.1.1.1 0 .1 0 .1 0 .1-.1.1h.2s.1 0 .1-.1zm.4 0h.2c0 .1 0 .1.07.1v.1h-.1v-.1zm.4 0h.1c.1.1.1.1 0 .1 0 .1 0 .1-.1.1s0 0 0-.1zm.4 0h.1c0 .1 0 .1.07.1v.1h-.1c-.1 0-.1-.1 0-.1zm.3 0h.1c.1.1.1.1 0 .1 0 .1 0 .1-.1.1s0 0 0-.1zm.4 0h.1c0 .1 0 .1.1.1v.1h-.1c-.1 0-.1-.1 0-.1zm.3 0h.15v.1c0 .1-.1.1-.1.1h-.1c.1 0 .1 0 .1-.1zm.4 0h.1c0 .1 0 .1.1.1v.1h-.1c-.1 0-.1-.1 0-.1zm.3 0h.1v.1c0 .1-.1.1-.1.1h-.1v-.1zm.3 0h.1c0 .1.08.1.1.1l-.04.1h-.1v-.1zm.4 0h.1c.06.1.06.1 0 .1 0 .1 0 .1-.1.1s.05 0 .05-.1zm16.4 0h.16v.2h-.1c-.08 0-.07-.1 0-.1zm.4 0h.1c.06.1.06.1 0 .1 0 .1 0 .1-.1.1.06 0 .1 0 .1-.1zm.4 0h.1c0 .1 0 .1.1.1v.1h-.1c-.1 0 0-.1 0-.1zm.33 0h.1v.1c0 .1-.02.1-.1.1s.1 0 .1-.1zm.38 0h.1v.2h-.1c-.1 0 0-.1 0-.1zm.3 0h.1c.06.1.06.1 0 .1 0 .1 0 .1-.1.1v-.1zm.4 0h.1l.1.1-.1.1h-.2v-.1zm.3 0h.1c.1.1.1.1 0 .1 0 .1 0 .1-.1.1.05 0 .1 0 .1-.1zm.4 0h.1v.2h-.1c-.06 0-.06-.1 0-.1zm.4 0h.2v.1l-.1.1h-.1s.1 0 .1-.1zm.4 0h.14v.1l-.1.1h-.1v-.1zm.4 0h.1v.1l-.1.1h-.1s.1 0 .1-.1zm.3 0h.1c0 .1 0 .1.04.1l-.1.1h-.1v-.1zm.3 0h.1v.1c0 .1-.1.1-.1.1h-.1c.1 0 .1 0 .1-.1zm.3 0h.2c0 .1 0 .1.06.1v.1h-.1v-.1zm.4 0h.1c.06.1.06.1 0 .1 0 .1 0 .1-.1.1l.1-.1zm.4 0h.1c0 .1 0 .1.1.1l-.1.1h-.1v-.1zm.3 0h.1v.1c0 .1 0 .1-.1.1v-.1zm.4 0h.1c0 .1.04.1.1.1l-.1.1h-.1v-.1zm.34 0h.1v.1c0 .1 0 .1-.1.1 0 0 .05 0 .05-.1zm.4 0h.1c0 .1 0 .1.08.1l-.1.1h-.1v-.1zm.3 0h.18v.1c0 .1-.1.1-.1.1h-.1s.1 0 .1-.1zm.4 0h.1c0 .1 0 .1.1.1l-.1.1h-.1v-.1zm.4 0h.1v.1c0 .1-.04.1-.1.1h-.1v-.1zm.37 0h.1c0 .1.04.1.1.1v.1h-.1v-.1zm.4 0h.1v.1c0 .1-.1.1-.1.1v-.1zm.3 0h.1c0 .1.04.1.1.1l-.05.1h-.1v-.1zm.35 0h.1v.1c0 .1-.1.1-.1.1h-.1l.1-.1zm.3 0h.1c0 .1.1.1.1.1l-.1.1h-.1v-.1zm.4 0h.1c0 .1.1.1 0 .1 0 .1 0 .1-.1.1v-.1zm.4 0h.1v.2h-.1v-.1zm.3 0h.1v.1c0 .1-.1.1-.1.1v-.1zm.3 0h.1l.1.1v.1h-.1c-.1 0-.1-.1 0-.1zm.3 0h.1v.1c0 .1-.1.1-.1.1h-.1c.1 0 .1 0 .1-.1zm.3 0h.1l.1.1v.1h-.1v-.1zm.4 0h.1v.1l-.1.1h-.1c.06 0 .1 0 .1-.1zm.3 0h.1l.1.1-.04.1h-.1c-.05 0-.05-.1 0-.1zm.37 0h.1v.1l-.1.1h-.1s.08 0 .08-.1zm.3 0h.1c0 .1 0 .1.1.1l-.1.1h-.1v-.1zm.3 0h.1v.1c0 .1-.1.1-.1.1h-.1v-.1zm.4 0h.1c0 .1.1.1.1.1v.1h-.1v-.1zm.4 0h.1c.08.1.08.1 0 .1 0 .1-.02.1-.1.1h-.2l.1-.1zm.4 0h.1v.1l-.1.1h-.1v-.1zm.3 0h.1v.1c0 .1-.06.1-.1.1h-.1s.1 0 .1-.1zm.4 0h.1v.1l-.1.1h-.1c-.07 0-.07-.1 0-.1zm.3 0h.1v.1c0 .1 0 .1-.1.1s0 0 0-.1zm.4 0h.1v.2h-.1c-.1 0-.1-.1 0-.1zm.3 0h.1v.1c0 .1 0 .1-.1.1.1 0 .1 0 .1-.1zm.3 0h.1v.2h-.2v-.1zm.3 0h.1v.1c0 .1 0 .1-.1.1h-.1s.05 0 .05-.1zm.4 0h.1c0 .1 0 .1.1.1l-.1.1h-.1v-.1zm.3 0h.1c.1.1.1.1 0 .1 0 .1 0 .1-.1.1s0 0 0-.1zm.4 0h.1c0 .1 0 .1.1.1l-.1.1h-.1v-.1zm.3 0h.1c.1.1.1.1 0 .1 0 .1 0 .1-.1.1s.03 0 .03-.1zm.4 0h.1v.2h-.1v-.1zm.3 0h.1v.1c0 .1-.05.1-.1.1h.1s.04 0 .05-.1zm.4 0h.1c0 .1 0 .1.02.1l-.1.1h-.1c-.1 0-.1-.1 0-.1zm.3 0h.1c.04.1.04.1 0 .1 0 .1 0 .1-.1.1l.1-.1zm.4 0h.1c0 .1.02.1.1.1l-.1.1h-.1c-.1 0-.1-.1 0-.1zm.33 0h.1v.1c0 .1-.1.1-.1.1v-.1zm.4 0h.1v.2h-.1v-.1zm.3 0h.1c.1.1.1.1 0 .1 0 .1 0 .1-.1.1.1 0 .1 0 .1-.1zm.4 0h.1c0 .1.1.1.1.1l-.1.1h-.1v-.1zm.4 0h.1v.1c0 .1 0 .1-.1.1v-.1zm.4 0h.1c0 .1 0 .1.1.1l-.1.1h-.1v-.1zm.3 0h.1v.1c0 .1-.1.1-.1.1h-.1v-.1zm.3 0h.1v.1l-.1.1h-.1v-.1zm.3 0h.1v.1c0 .1-.1.1-.1.1.1 0 .1 0 .1-.1zm.3 0h.1c0 .1.1.1.1.1v.1h-.1v-.1zm.4 0h.1c.1.1.1.1 0 .1 0 .1 0 .1-.1.1v-.1zm.4 0h.1c0 .1 0 .1.1.1v.1h-.1v-.1zm.3 0h.1c.1.1.1.1 0 .1 0 .1 0 .1-.1.1v-.1zm.4 0h.1v.1l-.1.1h-.1c-.1 0-.1-.1 0-.1zm.3 0h.1v.1c0 .1-.1.1-.1.1h-.1v-.1zm.3 0h.1v.1l-.1.1h-.1v-.1zm.3 0h.1v.1c0 .1-.1.1-.1.1v-.1zm.3 0h.1c0 .1 0 .1.1.1l-.1.1h-.1v-.1zm.4 0h.1c.1.1.1.1 0 .1 0 .1 0 .1-.1.1.1 0 .1 0 .1-.1zm.4 0h.1c0 .1 0 .1.1.1v.1h-.1v-.1zm.3 0h.1v.1c0 .1 0 .1-.1.1.1 0 .1 0 .1-.1zm.4 0h.1c0 .1.07.1.1.1l-.03.1h-.1c-.05 0-.05-.1 0-.1zm.37 0h.1v.1c0 .1-.1.1-.1.1h-.1v-.1zm-72.2.1h.1l.06.1-.1.1h-.1v-.1zm.7 0h.1v.1c0 .1-.1.1-.1.1h-.1v-.1zm.7 0h.1v.1c0 .1-.1.1-.1.1h-.1v-.1zm.7 0h.1v.1l-.1.1h-.1v-.1zm.7 0h.1l.1.1c0 .1-.08.1-.1.1h-.1l.03-.1zm.7 0h.1l.1.1c0 .1-.1.1-.1.1h-.1v-.1zm.7 0h.1l.1.1c0 .1-.1.1-.1.1h-.1v-.1zm.7 0h.1l.1.1-.1.1h-.1v-.1zm.7 0h.1l.1.1c0 .1-.1.1-.1.1h-.1v-.1zm.7 0h.1l.1.1-.1.1h-.2l.03-.1zm.7 0h.1v.1l-.1.1h-.1v-.1zm.7 0h.1v.1c0 .1-.07.1-.1.1h-.1l.03-.1zm.62 0h.1l.1.1c0 .1-.1.1-.1.1h-.1v-.1zm.7 0h.1l.1.1-.1.1h-.1v-.1zm.7 0h.1l.1.1-.1.1h-.1v-.1zm.7 0h.1l.1.1c0 .1 0 .1-.1.1h-.1l.1-.1zm.7 0h.1l.1.1-.1.1h-.1v-.1zm.7 0h.1l.04.1c0 .1 0 .1-.1.1h-.1l.1-.1zm.7 0h.1l.1.1-.1.1h-.1l.1-.1zm.7 0h.1l.04.1c0 .1 0 .1-.1.1h-.1l.1-.1zm.7 0h.1l.1.1c0 .1-.1.1-.1.1h-.1v-.1zm.7 0h.1l.1.1-.1.1h-.3l.1-.1zm.7 0h.1l.1.1c0 .1 0 .1-.1.1h-.1l.1-.1zm.7 0h.1l.1.1c0 .1 0 .1-.1.1h-.1l.1-.1zm.7 0h.1l.1.1c0 .1-.1.1-.1.1h-.1l.1-.1zm.7 0h.1l.1.1c0 .1-.1.1-.1.1h-.1v-.1zm.7 0h.1l.1.1c0 .1 0 .1-.1.1h-.1l.1-.1zm.7 0h.1l.1.1c0 .1-.1.1-.1.1h-.1v-.1zm.7 0h.1l.1.1c0 .1-.1.1-.1.1h-.1l.1-.1zm.7 0h.1l.1.1c0 .1-.06.1-.1.1h-.1l.1-.1zm.7 0h.1l.1.1c0 .1 0 .1-.1.1h-.1l.1-.1zm.7 0h.1l.1.1c0 .1 0 .1-.1.1h-.1l.1-.1zm.7 0h.1l.04.1c0 .1 0 .1-.1.1h-.1l.1-.1zm.7 0h.1v.1c0 .1-.1.1-.1.1h-.1v-.1zm.7 0h.1l.1.1c0 .1-.1.1-.1.1h-.1v-.1zm.7 0h.1l.1.1c0 .1 0 .1-.1.1h-.1l.1-.1zm.7 0h.1l.1.1c0 .1-.06.1-.1.1h-.1l.04-.1zm.7 0h.1l.1.1c0 .1-.1.1-.1.1h-.1v-.1zm.7 0h.1l.1.1-.1.1h-.2v-.1zm.7 0h.1l.1.1c-.1.1-.1.1-.16.1h-.1v-.1zm.7 0h.1l.1.1c0 .1-.1.1-.1.1h-.1v-.1zm16.8 0h.1v.1c0 .1-.1.1-.1.1h-.1v-.1zm.7 0h.1v.1c0 .1-.1.1-.1.1h-.1v-.1zm.7 0h.1v.1l-.1.1h-.1v-.1zm.7 0h.1v.1c0 .1-.1.1-.1.1h-.1v-.1zm.7 0h.1v.1l-.1.1h-.1v-.1zm.7 0h.1v.1l-.1.1h-.2l.1-.1zm.7 0h.1v.1l-.1.1h-.1v-.1zm.7 0h.1v.1l-.1.1h-.2l.1-.1zm.7 0h.1v.1c0 .1-.1.1-.1.1h-.1v-.1zm.6 0h.1v.1c0 .1-.1.1-.1.1h-.1l.1-.1zm.7 0h.1v.1c0 .1-.1.1-.1.1h-.1v-.1zm.7 0h.1v.1c0 .1-.1.1-.1.1h-.1v-.1zm.7 0h.1v.1c0 .1-.1.1-.1.1h-.1l.05-.1zm.6 0h.1l.1.1c0 .1-.1.1-.1.1h-.1v-.1zm.7 0h.1v.1c0 .1 0 .1-.1.1h-.1l.1-.1zm.7 0h.1l.1.1c0 .1 0 .1-.1.1h-.1l.1-.1zm.7 0h.1l.1.1c0 .1 0 .1-.1.1h-.1l.1-.1zm.7 0h.1v.1l-.1.1h-.1v-.1zm.7 0h.1v.1c0 .1-.1.1-.1.1h-.1v-.1zm.7 0h.1v.1c0 .1-.1.1-.1.1h-.1l.1-.1zm.7 0h.1v.1l-.1.1h-.1l.1-.1zm.7 0h.1v.1c0 .1 0 .1-.1.1h-.1l.1-.1zm.7 0h.1v.1c0 .1 0 .1-.1.1h-.1l.1-.1zm.7 0h.1v.1c0 .1 0 .1-.1.1h-.1l.1-.1zm.6 0h.1l.1.1c0 .1 0 .1-.1.1h-.1l.1-.1zm.7 0h.1l.1.1c0 .1-.1.1-.1.1h-.1v-.1zm.7 0h.1l.1.1c0 .1 0 .1-.1.1h-.1l.1-.1zm.7 0h.1l.1.1c0 .1 0 .1-.1.1h-.1l.1-.1zm.7 0h.1l.1.1-.1.1h-.1v-.1zm.7 0h.1l.1.1c0 .1-.1.1-.1.1h-.1v-.1zm.7 0h.1v.1l-.1.1h-.1v-.1zm.7 0h.1v.1c0 .1-.04.1-.1.1h-.1l.06-.1zm.7 0h.1v.1c0 .1-.1.1-.1.1h-.1v-.1zm.7 0h.1v.1c0 .1-.1.1-.1.1h-.1v-.1zm.7 0h.1v.1l-.1.1h-.1v-.1zm.6 0h.1l.1.1-.1.1h-.1l.1-.1zm.7 0h.1l.05.1c0 .1-.1.1-.1.1h-.1v-.1zm.7 0h.1v.1c0 .1 0 .1-.1.1h-.1l.1-.1zm.7 0h.1v.1c0 .1 0 .1-.1.1h-.1l.1-.1zm.7 0h.1v.1c0 .1 0 .1-.1.1h-.1l.1-.1zm.7 0h.06l.1.1c0 .1 0 .1-.1.1h-.1l.1-.1z"/>
  <path fill="#50514F" d="M38.8 219.33c-1.33 0-2.7.14-4.04.43-4.5.94-9.34 3.04-15.03 6.06-5.6 2.97-12.52 7.75-18.18 12.65h-1.8v2.84h70.4v-2.8H57.52c-.8-3-1.47-5.4-2.92-8.6-1.56-3.3-4.87-7-7.65-8.6-1.97-1.1-4.96-1.8-8.14-1.8zm-22.75 13l-.35.52c-.05.2-.05.4.1.5.6-.15.85-.1.76.14l-.24-.1s.26 2.3.34 2.4c.07 0 .25.4.25.4l.1 2.1H6.3c2.1-2.1 4.32-4.1 9.8-6.2zm92.9-21.6c-6.4 5.7-13.17 10.5-22.3 9.66-4.85 3.2-9.13 7.5-16.3 6.4l.66 17.1h109.7l1-12.9c-1.3-1-1.8-2.5-2.7-3.8-2 .5-3.7 1.2-6.6.9l-6.6-1.6 1-1.9-4.6 1.4h-1.6l-5-1.5.4 2.1c-3.1 1-5.6.5-8-.6-2.4 1.7-4.8 3.4-7.5 4.2l.7 4.1h-2v2.3h-5.4l.1-11.5c-14.9 1.2-18.2-8.3-24.5-14.7zm227.92-24.93c-.13.5-.3.55-.3.6 0 .06.12.1.24.42l-.2.42h-.6l.3.5-.3.56h.6l.3.45s-.2.1-.2.15c0 .06.2.1.2.1 0 .32 0 .67-.1 1-.1.05-.3.08-.2.27-.4.2-.6.58-.6 1.03 0 .58.5 1.06 1 1.14v.52s-.1.05-.1.1c0 .06.2.12.2.12l-.1.9s-.3 0-.3.3.3.3.3.3-.7.46-.9.62c-.2.17-.2.5-.2.5-8.3 1.94-12.1 9.84-9.9 15.97v.6l-.6.3v.92l-.3.3h-.3l-.3.3h-.6v6.1l.3.3v5.8l-.6 1.5v1.2h-1.8v-.9h-.6v-1.9l-.3-.3v-2.8l.3-.3v-3l.3-.3v-.6l-.3-.3v-.3l-.6-.6c.6-2.9-1.2-4.4-2.6-4.7v-.2c-.1-.1-.2-.2-.3-.4v-.2h.2l-.1-.1v-.2c.2-.1.3-.2.3-.4s-.1-.4-.3-.5v-.1s.2 0 .2-.1-.1-.1-.1-.1v-.1l.1-.1-.1-.1v-.3c.1-.1.2-.1.2-.3v-.3c-.1 0-.2.1-.2.3 0-.2-.1-.3-.2-.3s-.1.1-.2.3c0-.2-.1-.3-.2-.3l.1.3c.1.1.1.2.2.2v.3h-.1l.1.1v.1h-.1.2v.1c-.2.1-.3.3-.3.5s.1.4.3.4v.1h-.1.2v.2c0 .2-.1.2-.3.3v.2c-1.3.2-3.1 1.6-2.6 4.7l-.6.6v.3l-.3.3v.6l.3.3v3.1l.3.3v2.7l-.3.3v1.9h-.6v2.4h-.6l.6 1.5v8.2h48.2v-8.3l.6-1.6h-.6v-2h-.6V226l-.3-.3V223l.3-.3v-3l.3-.3v-.6l-.3-.3v-.3l-.6-.6c.6-3.06-1.2-4.47-2.6-4.7v-.1c-.1-.1-.2-.15-.3-.3v-.2s.2 0 .2-.02-.1-.1-.1-.1V212c.2 0 .3-.2.3-.4s-.1-.3-.3-.4v-.1h.1l-.1-.1v-.1h.1-.1v-.3c.1 0 .2-.1.2-.2l.1-.3c-.1.1-.2.2-.2.3 0-.1-.1-.2-.2-.3-.1.1-.1.1-.2.3 0-.1-.1-.2-.2-.3l.1.3c0 .2.1.2.2.3v.4s-.1 0-.1.1.1.1.1.1v.1s-.2 0-.2.1l.2.08v.1c-.2.07-.3.2-.3.4s.1.4.3.4v.2s-.1 0-.1.08.2.1.2.1v.2c-.1.2-.2.3-.3.3v.2c-1.4.4-3.1 1.8-2.6 4.7l-.6.6v.3l-.3.3v.6l.3.3v3.1l.3.3v2.7l-.3.3v1.8h-.6v.9h-2V228l-.6-1.55v-5.8l.3-.3v-6.1h-.6l-.3-.3h-.3l-.3-.3v-.9l-.6-.3v-.6c2.2-6.1-1.6-14-9.9-16 0 0 0-.3-.2-.5l-.9-.6s.3 0 .3-.3-.3-.3-.3-.3l-.2-.9s.1-.05.1-.1c0-.06-.1-.1-.1-.1v-.53c.6-.04 1-.52 1-1.1 0-.5-.3-.87-.6-1.06 0-.2-.2-.22-.3-.3-.1-.3-.2-.65-.2-1 0 0 .2 0 .2-.1 0-.02-.2-.1-.2-.12l.3-.42h.6l-.3-.5.3-.52h-.7l-.2-.4c.1-.3.3-.36.3-.4 0-.07-.2-.13-.3-.62zm0 1.23l.13.2h-.25l.13-.2zm-.62.36h.23l-.06.1-.05.1-.12-.2zm.4 0h.44l.1.2.1.2-.1.1-.1.2h-.5l-.1-.2-.1-.2.1-.2.1-.2zm.62 0h.27l-.14.2-.06-.2-.07-.1zm-.9.5l.07.1.06.1h-.27l.14-.2zm1.03 0l.12.2h-.23v-.2zm-.62.3h.24l-.12.2-.12-.2zm93.58 37.9l-.85.1-.1.1h.2l.4.4v.4c-2.1 2.4-4.1 4.7-6.1 6.6v-.1h-.1s-.1.1-.1.2h.1l-.2.1-3.6.3v-.2s-.1 0 0 0v-.1c0-.2-.1-.2-.1-.3h-.1c-.1.1-.1.1-.2.3.1 0 0 0 0 .1v.1l-3.8.1v-.1s-.1 0 0-.1c0-.2-.1-.2-.2-.3h-.1s-.1.1-.1.2h.1c.1.1 0 .1 0 .1v.1h-.1v.1L412 236h-.1v8.5h2.3c.4-3.6 4.4-6.3 7.4-6.3 2.9 0 5.9 1.4 7.3 5.1h.3v1.2h3.9V237l7.3-.1 7.3.1v7.7h3.9v-1.25h.3c1.5-3.7 4.4-5.1 7.4-5.1s6.95 2.7 7.4 6.3h2.3v-8.4h-.03l-3.4-1.7h-.03v-.1h-.1c-.05 0-.1-.05 0-.1v-.05c0-.1-.1-.2-.2-.2h-.1c-.1 0-.16.1-.2.2v.1c.1.06 0 .07 0 .1h-.02v.1l-3.8-.2v-.03h-.1s-.03-.06 0-.1v-.06h.07c-.1-.1-.1-.2-.2-.3h-.1c-.1 0-.2.1-.2.2v.1h-.1v.1l-3.7-.2-.2-.2h.1c0-.1-.1-.2-.2-.2h-.1l-.1.1c-2.1-1.9-4.1-4.1-6.2-6.6v-.2l.4-.5h.1l-.1-.2-.9-.1-.8.2-.1.1h.1l.4.5v.6c-1.7 2.4-3.6 4.5-5.8 6.3H440v.1h.72v.4h-.74v.1h.72v.5h-.73v.1h.72v.5h-.7v.1h.7v.2l-.5.3h-.6l-.5-.3v-.2h.7v-.1h-.7v-.5h.7v-.1h-.8v-.4h.7v-.1h-.7v-.4h.7v-.1h-3.4c-2.2-1.8-4.1-3.9-5.8-6.3v-.5l.4-.5h.1l-.1-.1-.8-.1zm-.48 1.3v.6h-.07c0-.1-.1-.2-.2-.2h-.1l.5-.5zm20.28 0l.43.5h-.1c-.2 0-.3 0-.3.1h-.1v-.7zm-19.3.1c1.67 2.2 3.52 4.3 5.6 6.1h-.55c-1.8-1.4-3.5-3-5-4.9v-1.2zm18.33 0v1.2c-1.5 1.9-3.2 3.5-5.1 4.9h-.6c2.1-1.8 3.9-3.9 5.6-6.2zm-19.9.5c-1.6 2.2-3.4 4.2-5.5 6.1h-.1v-.1c-.1 0-.1-.1 0-.1l-.1-.1c1.8-1.7 3.6-3.7 5.5-5.8zm21.4 0c1.8 2.2 3.7 4.2 5.5 5.8h-.1v.2h-.1c-2.2-1.8-4-3.9-5.5-6.1zm-20.9.1v.3c-.3.9-.8 1.6-1.2 2.4l.4-1 .5-1.4.1-.5v-.1zm20.3 0l.1.4.5 1.3.4.9c-.5-.8-.9-1.6-1.2-2.4v-.4zm-20.9 0c0 .1.1.1.2.1 0 0 .1 0 .1-.1l-.2.4-.6 1.3c-.2.5-.4 1-.6 1.3-.1.1-.1.2-.2.3l-.6.3c-.4.3-.8.8-1.1 1.2l-.1-.3c0-.1 0-.1-.1-.1v.3c-.3.1-.5.2-.7.4l-.3-.2v.1l.3.2c-.1.1-.1.2-.2.4h-.9l-1 .1c2.1-1.8 3.9-3.8 5.4-6zm21.4 0c1.5 2.1 3.3 4.2 5.4 5.9l-1-.1-.9-.1c-.1-.2-.1-.3-.2-.4l.2-.3v-.1h-.1l-.3.2c-.2-.2-.4-.4-.7-.4v-.5h-.1l-.1.3c-.3-.5-.7-.9-1-1.2l-.6-.4-.1-.3-.6-1.3-.6-1.3-.2-.4h.1c.1 0 .2 0 .2-.1zm-20.9.6v2.1c-.5.1-.9.3-1.4.6.5-.9 1-1.7 1.3-2.7zm20.3 0c.3.9.8 1.7 1.3 2.6-.4-.3-.9-.4-1.3-.6l-.1-2.1zm-19.3 0c1.4 1.8 3.1 3.4 4.9 4.7h-.8c-.2-.4-.4-.7-.6-1-.7-.7-1.7-1.5-3.1-1.6 0-.1.1-.2.2-.2l-.6-.1V229zm18.3 0v1.9h-.6c.1 0 .1.1.2.2-1.4.1-2.4.9-3.1 1.6-.3.2-.5.6-.7 1h-.8c1.8-1.3 3.4-2.9 4.9-4.7zm-18 2.4c1.3.1 2.2.7 2.9 1.4l.6.8H431v-.1l-.2-.1.03-1.9.3-.1c0-.1 0-.2.02-.3zm17.6 0v.3h.3v1.9H445c.16-.3.35-.6.6-.9.7-.8 1.53-1.4 2.9-1.5zm-19 .5v2l-1.7.1c-.2-.8.7-1.9 1.7-2zm20.2 0c1 .1 1.9 1.2 1.7 2H450v-2zm-23.6 1.6l-.4.5h-.1c.1-.3.2-.5.5-.6zm26.9 0c.2.1.4.3.5.5h-.2l-.4-.6zm-14.4.2v.4h-1.9l-.5-.4 2.4-.1zm1.7 0h2.4l-.5.4h-1.9v-.5zm-4.3 0l.5.4h-.5l-.6-.4h.5zm6.8 0h.6l-.6.4h-.5l.5-.4zm-7.8 0v.4h-.5l-.1-.4h.7zm.1 0h.1l.6.4h-.7v-.4zm8.4 0h.1v.4h-.7l.6-.4zm.2 0h.7l-.2.4h-.5v-.4zm-9.6 0l.1.4H432v-.4h2.57zm10.5 0h2.6v.4H445c.1-.2.1-.3.2-.4zm-13.2 0v.4h-1v-.4h1zm15.9 0h1v.4h-1v-.4zm-18.1.3v.3H428c-.1-.1-.1-.2-.15-.3l1.7-.1zm20.3 0h1.7l-.2.3h-1.6v-.3zm-24.2.2l-.1.1h.1zm28 0h.1v.1l-.1-.1zm-28.3 0v.1h-.4.3l-2 .1v-.2l1.2-.1h.8zm28.6 0h.8l1.2.1v.3l-2-.1h.4v-.2l-.4-.1c0-.1 0-.1-.1-.1zm-15.2 0v.4h-1.2l-.6-.5h1.8zm1.7 0h1.8l-.6.4h-1.2v-.4zm-3.7 0c.2.1.4.3.6.4h-.3l-.7-.5h.4zm5.6 0h.4c-.2.1-.5.3-.7.4h-.3l.5-.5zm-6.2 0l.6.4H435v-.4h.8zm6.8 0h.8v.4H442l.6-.5zm-7.8 0v.4h-.4c0-.2-.1-.3-.1-.5h.5zm8.7 0h.5l-.1.4h-.4v-.4zm-9.5 0c0 .1.1.3.1.4H432v-.4h2.8zm10.2 0h2.8v.4H445l.1-.5zm-13.1 0v.4h-1v-.4h1zm15.9 0h1v.4h-1v-.4zm-24.5.1l-.4.3h-.2l.3-.3h.3zm33.1 0h.3l.3.3h-.1l-.4-.3zm-33.5 0l-.4.3-3.2.2v-.3l3.6-.2zm33.9 0l3.6.2v.3l-3.3-.2-.3-.3zm-27.1 0v.7c-.8 0-1.3-.3-1.5-.7l1.5-.1zm20.2 0h1.5c-.2.4-.7.7-1.5.7v-.7zm-26.6 0v.1h-.2l.2-.2zm33 0l.2.2-.2-.1v-.2zm-37.3.1v.3l-4 .2v-.3l4.1-.2zm41.5 0l4.1.2v.3l-4.1-.2v-.3zm-35.2.1c-.4.3-1 .6-1.3.7h-.5v-.6l1.8-.1zm29 0l1.9.1v.6h-.5c-.4-.1-.9-.4-1.4-.7zm-15.4.1v.5h-.3l-.7-.6h1.1zm1.8 0h1.1l-.8.5h-.4v-.5zm-3 0l.7.5h-.1l-.9-.6h.3zm4.2 0h.3c-.3.2-.6.3-1 .5h-.1l.7-.6zm-4.7 0l.9.5H435v-.5h1.7zm5.2 0h1.6v.5H441l.9-.6zm-7.4 0h.4v.5h-.3l-.1-.5zm9.1 0h.3l-.1.5h-.3v-.5zm-9.3 0v.5H432v-.5h2.9zm9.9 0h2.9v.5h-2l.1-.5zm-12.9 0v.5h-1v-.5h1.1zm15.9 0h1v.5h-1v-.5zm-24.5 0v.7l-1.4.1 1-.8h.4zm33 0h.4c.3.2.6.5 1 .7h-1v-.6zm-41.5 0v.3h-.8l.7-.4h.1zm49.9 0h.1l.7.4-.8-.1v-.3zm-42.1 0c-.3.2-.6.5-1 .7h-.1l.9-.7.3-.1zm34.2 0h.2l.9.7h-.1l-.9-.8zm-34.6 0c-.3.2-.6.5-.9.7h-2.3v-.6l3.1-.2zm35 0l3.1.1v.7l-1.4-.1h-.8l-.9-.7zm-38.2.1v.7l-4 .2v-.7l4-.2zm41.5 0l4.1.2v.7l-4-.2v-.7zm-45.7.2v.7l-2.6.1 1.5-.8h1.1zm49.9 0l1.1.1 1.5.7-2.6-.2v-.7zm-26.2.1l.2.2-.3-.2zm.2 0h.2v.1l-.2-.1zm1.9 0h.1l-.2.1v-.1zm.3 0h.1l-.3.2.2-.2zm-2.7 0l.6.3v.2h-3v-.5h2.7zm3 0h2.8v.5H440v-.1l.6-.3zm-6.1 0h.3v.5h-.2v-.5zm9 0h.3v.5h-.2v-.5zm-9.2 0l.1.5h-3v-.5h3zm9.8 0h3v.5h-3c0-.2 0-.3.1-.5zm-12.8 0v.5h-1v-.5h1.1zm15.9 0h1v.5h-1v-.5zm-27.3.3v.7l-1.1.1v-.7h1.1zm38.8 0l1.1.1v.7h-1v-.6l-.1-.1zm-20.2 0l.2.1h-.2v-.1zm1.5 0v.1h-.2l.2-.1zm-21.5 0v.7l-4.1.3v-.7l4-.2zm41.5 0l4 .2v.8l-4-.3v-.7zm-45.7.2v.8l-3.5.3v-.6l.5-.3 2.9-.2zm49.9 0l2.9.2.5.3v.7l-3.5-.3v-.8zM599 217c-1.2 0-2.3.2-3.2.6l-.5.3h-.53l-.1-.1h-.3v.1c-.1.04-.14.1-.2.17v.4c0 .1.1.2.1.3-.4.44-.7 1-.83 1.7-.1.1-.17.3-.2.5 0 .24.06.5.23.8l.06.2v.13c-.1.3-.2.6-.2.9 0 .14.1.3.2.5.1.4.2.73.4 1.1 0 0-.1.1-.1.2 0 .2.2.3.4.3h.2v.06l-.1.24c0 .2 0 .3.1.4 0 .1.1.1.2.2v.1h.9l.5.3c1.1.6 2.6.8 4.1.6v2.2h-.2c-2.6 0-5.2.1-7.7.3v2.7l.4.3v1.8l-.3.3v2.7c2.3.2 4.6.3 7 .3v6.6c1 .1 1.9.1 2.9 0v-6.6c2.3 0 4.6-.1 6.9-.2v-2.9l-.5-.2v-1.8l.5-.3v-2.4l-7.9-.3v-2.1c1.6.2 3-.1 4.2-.6l.6-.2h.8l.1-.1v-.1c.1-.1.2-.1.2-.2.1-.1.1-.2.1-.3.1-.1.2-.2.2-.3v-.2c.3-.4.6-.9.7-1.5.1-.1.2-.3.2-.5 0-.3 0-.5-.2-.8l-.1-.1v-.2c.2-.3.3-.5.2-.8 0-.2 0-.4-.1-.5-.1-.7-.4-1.2-.8-1.7.1-.1.2-.2.2-.4s-.15-.4-.34-.5v-.1h-.2v.1h-.7l-.5-.3c-.9-.4-2-.7-3.3-.7-.4 0-.8.1-1.2.1-.4 0-.8-.1-1.2-.1h-.1zm0 .1h.7c-1.12.2-2.2.6-3.1 1.1-.4-.2-.76-.3-1.1-.4l.35-.1c.9-.4 2-.7 3.14-.7zm2.6 0c1.2 0 2.33.2 3.24.6l.3.2c-.3.1-.7.2-1.1.4-.9-.5-1.97-.9-3.1-1.2h.6zm-1.25.1h.5c1.1.2 2.1.5 3 1-.5.2-1 .4-1.57.7-.6 0-1.3 0-2 .1l-1-.1h-1.03c-.5-.3-1.03-.5-1.5-.7.9-.5 1.9-.9 3.05-1.1l.5-.1zm-5.3.7h.03-.1zm10.6 0h-.1.03zm-10.9 0l.2.1h-.1l-.16-.2zm-.2 0l.2.2c-.17.1-.3.2-.4.3l-.1-.2c-.1-.1-.1-.2 0-.3s.1-.1.2-.1zm.8 0c.3 0 .7.1 1.1.3l-.4.2c-.3-.2-.6-.4-.86-.5l.1-.1zm10 0h.1l-.87.5c-.1-.1-.2-.2-.4-.3.47-.1.85-.2 1.16-.3zm-10.3.1c.26.1.5.3.87.5l-.2.1-.77-.6.1-.1zm10.5 0v.1l-.6.5-.15-.1.8-.5zm-10.6.1l.75.6c-.2.1-.4.3-.55.4h-.1c-.2-.2-.35-.4-.46-.6l-.1-.1c.1-.2.2-.3.4-.4zm1.75.1l1.37.6h-1.2l-.4-.3-.14-.1.46-.3zm7.4 0l.44.3-.1.1-.48.3c-.36-.1-.76-.1-1.2-.1l1.37-.6zm1.53.1c.02.2.22.3.5.3h.03l-.44.5h-.1c-.2-.2-.3-.4-.5-.5l.5-.4zm-9.5.3l.2.1.3.2h-.4l-.06-.1-.27-.2.2-.1zm8.5 0l.2.1-.28.2-.4-.1c.1-.1.2-.1.3-.2l.2-.1zm-10.25 0s.1 0 .1.1c.1.1.2.3.4.5-.2 0-.4.1-.5.2-.1-.1-.2-.1-.3-.1-.2 0-.3.1-.3.3v.1l-.2.1c.1-.5.4-.9.7-1.3zm12 0c.3.4.6.8.7 1.3l-.3-.3c-.2-.2-.5-.3-.9-.4.2-.2.3-.4.5-.6l.1-.1zm-10.6.2l.2.2h-.7l.4-.3zm9.1 0l.3.3c-.1 0-.1 0-.2-.1l-.5-.1.2-.2zm-6.9.1h.3c.1 0 .2.1.3.2v.1l-.9.2c-.3-.2-.5-.3-.7-.5h1zm4.5 0h1.1l-.7.5-1.1-.3.5-.3h.2zm-3.9 0zm3.3 0l-.4.2-.7-.1 1-.1zm-2.5 0h.2-.2c0-.1-.1-.1-.1-.1zm-2.7 0l.7.5-.4.1-.8-.6c.1-.1.2-.1.4-.1zm7.1 0h.4l-.8.5-.4-.1.7-.5zm-7.8.1l.8.6c-.4.1-.8.2-1.1.4l-.3-.3-.5-.5c.1 0 .3-.1.4-.1.2-.1.4-.1.6-.1zm8.3 0l.6.1.4.1-.5.4-.3.3-1.1-.4.8-.6zm-4.2 0h.2l.8.2-1.1.6-.8-.5v-.3l.5-.1c.1 0 .2-.1.3-.1zm1.3.2c.4 0 .7.1 1.1.2l-1.5.9-.3-.2c-.2-.2-.5-.3-.7-.4.4-.2.8-.5 1.2-.7zm-3.1 0c0 .2.2.3.4.3.1 0 .2-.1.3-.2l.8.4-.7.4-.2.1v-.1c0-.2-.2-.4-.4-.4-.1 0-.2 0-.3.1l-.9-.6.7-.2zm-3.8 0c-.6.6-1.1 1.3-1.3 2-.1-.4-.1-.7-.1-1v-.2l.3-.3c.1 0 .1.1.2.1.2 0 .3-.2.3-.4 0 0 0-.1-.1-.1l.4-.2zm11 0c.3.1.6.2.8.4.2.1.3.2.4.4v.1c.1.3 0 .7 0 1-.2-.7-.7-1.4-1.3-2zm-10.9 0l.5.4.2.2-.6.3c-.7.3-1.1.6-1.5 1 .2-.8.7-1.5 1.3-2.1zm10.7 0c.7.6 1.1 1.3 1.3 2.1v-.1c-.2-.3-.6-.6-1-.9v-.1c0-.2-.2-.4-.4-.4-.1 0-.2 0-.3.1l-.3-.1.3-.2.5-.5zm-8 .2l1 .6v.1c0 .2.1.3.3.4l-.2.1-1.6-1.1.4-.2zm5.3 0l.4.1-1.5 1.1-.4-.2 1.5-1zm-5.8.1l1.5 1.1-.8.6h-.2c-.6-.4-1.2-.9-1.7-1.3l1.1-.4zm6.4 0l1.1.4c-.5.4-1.1.8-1.7 1.3h-.2l-.8-.6 1.6-1.1zm-3.2.3l.7.4.2.1c-.1.1-.3.2-.4.3-.2-.1-.4-.2-.6-.2s-.4 0-.6.1l-.4-.2c0-.1.1-.1.2-.2l.7-.4zm-4.5.2c.4.3.9.8 1.5 1.2h-3c.3-.4.77-.7 1.3-1l.7-.3zm8.9 0c.1 0 .3.1.4.1v.1c0 .2.1.3.3.3.1 0 .2-.1.2-.2.4.3.7.5 1 .8H603c.6-.5 1.1-.9 1.53-1.3zm-11.4.3zm13.9 0zm-8 0l.4.3c-.1.1-.2.2-.2.3l-.5-.4.3-.3zm2.1 0l.4.2-.6.4-.2-.3.4-.3zm-2.5.3c.2.1.4.3.6.4v.1H598l.7-.5zm3 0l.7.5H601v-.1l.6-.4zm-8 .7h3.6c-.7.5-1.2.9-1.7 1.3-.3-.1-.5-.2-.7-.4-.6-.3-1.1-.7-1.4-1zm4.1 0h1.5v.2c-.2.1-.4.3-.6.4l-.9-.6zm3.3 0h1.5l-.9.6-.6-.4v-.1zm1.9 0h3.8c-.3.4-.8.7-1.4 1-.2.1-.4.2-.7.3-.4-.5-1-.9-1.6-1.4zm-5.4 0c.3.3.6.5.9.7l-1.6 1.1c-.4-.1-.8-.3-1.1-.4.5-.5 1.1-.9 1.8-1.4zm5.1 0l1.7 1.4c-.4.2-.7.3-1.1.4-.5-.3-1-.7-1.6-1.1.3-.2.6-.4.9-.7zm-9.3.1c.3.3.8.7 1.4 1l.6.3-.3.2-.5.5-.5-.5c.1-.1.1-.2.1-.3 0-.3-.2-.5-.5-.5h-.3l-.3-.8h.1zm13.3 0c-.2.7-.7 1.5-1.4 2.1l-.4-.5-.3-.2.6-.3c.6-.3 1.1-.7 1.4-1.1zm-13.5.1c0 .3.2.5.3.7-.1.1-.2.3-.2.4 0 .2 0 .3.1.4l-.3-.3v-1.1zm13.5 0c0 .3.1.7 0 1v.2c-.1.2-.2.3-.4.5-.3.1-.5.3-.9.4.6-.6 1-1.3 1.3-2zm-7.7.1c.1.2.1.3.2.3l-.4.3-.3-.2.5-.3zm1.7 0l.6.4-.4.3-.4-.3c.1-.1.1-.2.2-.3zm-7.8.4zm13.9 0v.3c0-.1 0-.2-.1-.3zm-7.5.1l.1.1v.5l-.3-.2-.2-.2.3-.3zm1.1 0l.3.2s-.1.1-.2.1l-.3.2v-.5l.2-.1zm-2.1 0l.3.2c-.5.3-1 .7-1.5 1l-.4-.1 1.5-1.1zm3 0l1.5 1.1-.4.1c-.5-.3-1-.6-1.5-1l.3-.2zm-2.6.3l.2.2.4.2v.3c-.3.2-.6.3-.9.5-.4-.1-.8-.2-1.1-.3l1.4-1zm2.1 0l1.4 1-1.1.3-.3-.2v-.1c0-.2-.1-.4-.3-.4-.1 0-.2 0-.3.1h-.1v-.3l.4-.3.2-.2zm-5.5.5c.4.2.7.3 1.1.4-.3.2-.5.4-.8.6l-.6-.1-.4-.1.4-.5.3-.3zm8.9 0l.3.3.5.5-.4.1c-.2.1-.4.1-.6.1l-.8-.6c.4-.1.7-.2 1.1-.4zm-11.2.2l.3.2c.3.2.6.3 1 .4-.2.2-.3.4-.4.5l-.1.1v-.2c0-.2-.2-.3-.4-.3h-.1c-.13-.3-.25-.5-.33-.8zm13.5 0c-.1.4-.3.8-.5 1.1-.1-.1-.2-.1-.2-.1h-.1l-.3-.4c.3-.2.7-.3.9-.5l.3-.3zm-12.6.1c.1.1.2.3.4.4l-.9-.4v-.1s.1.1.2.1.2-.1.3-.1zm5.5.1v.5l-.7-.2.7-.4zm.8 0v.1c0 .2.2.4.3.4h-.3v-.5zm-3.6 0l.4.1-.7.5h-.4l.8-.6zm6.4 0l.8.6h-.4l-.8-.5.4-.1zm-5.8.2c.3.1.7.1 1.1.2l-.5.3c-.5 0-.9-.1-1.3-.1l.7-.5zm5.3 0l.7.4h-1.3l-.5-.3 1.1-.3zm-1.6.1h.1-.2l.1-.1zm-6.3.1h.1c.2.2.4.3.6.5l-.8.6-.5-.4.1-.1c.1-.2.2-.4.4-.6zm10.7 0l.3.4c-.1.1-.2.2-.2.3 0 .1 0 .2.1.2l-.2.1-.8-.6c.2-.2.4-.3.56-.5h.1zm-6.7 0l.7.1c-.4.1-.7.1-1.1.1l.4-.2zm2.6 0l.3.2c-.38 0-.7 0-1.1-.1l.7-.1zm-6.3.1h.52l-.2.2-.37-.3zm9.9 0l-.4.3-.2-.2c.2 0 .3-.1.5-.1h.1zm-9.1.1h.4l-.3.2c-.1 0-.1.1-.2.1l-.2-.1.2-.2.05-.1zm8.3 0l.22.2-.2.1-.2-.2-.2-.2c.1 0 .24-.1.36-.1zm-4.6 0v1.9s-.1 0-.1-.1c-1.1-.2-2.2-.6-3.06-1.1.5-.2 1-.4 1.5-.7.5 0 1.1-.1 1.6-.1zm.8 0c.5 0 1.1.1 1.6.1.5.2 1 .5 1.5.6-.9.5-1.9.9-3 1.1h-.1v-1zm-4 0h1.2l-1.4.6-.4-.3.15-.1.4-.3zm7.1 0l.4.2.1.1c-.1.1-.3.2-.4.3l-1.3-.6c.4 0 .8 0 1.2-.1zm-8.2.2l.2.1c-.3.2-.6.4-.8.5h-.1l.7-.6zm9.2 0l.76.6h-.1l-.8-.5.2-.1zm-8.84.2c.1.1.3.2.4.3-.4.2-.8.3-1.1.3l-.1-.1.9-.5zm8.6 0l.8.5-.1.1c-.3 0-.7-.1-1.1-.3l.4-.3zm-10.25 0l.4.3-.2.2c-.1-.1-.2-.1-.2-.2-.1 0-.1-.1 0-.2v-.2zm11.7.2s.1.1.2.1h.1v.1s-.1.1-.2.1l-.3-.2.2-.1zm-9.4.1c.9.5 2 .9 3.1 1.1-1.5.1-2.8-.17-3.9-.6l-.4-.2 1.1-.3zm7.4 0c.4.1.8.3 1.1.3l-.3.1c-1.1.5-2.4.76-3.9.66 1.2-.2 2.2-.6 3.1-1.1zm-9.1.1c-.1.1-.1.1-.2.1l.2-.1zm10.9 0l.2.1-.2-.1h.1zm-10.7.1h.1zm10.6 0h.1-.2z"/>
  <path fill="#50514F" d="M387.42 205.74c-.08 0-.17.04-.2.08-.04.08 0 .38.13.37.05 0-.25.1-.3.2-.05 0-.03.2-.03.2l-.06-.2-.25-.3c.1 0 .2-.3.1-.4-.1-.1-.3-.1-.3 0-.1.2 0 .3 0 .4 0 0-.2.1-.3.2-.1.1 0 .9 0 .9h.2c-.1.4 0 .7 0 1.1h-.4v.2h.2v.3l-13.3 2.7v-.2h-.1c0-.2 0-.5-.2-.6-.1-.1-.2-.1-.3.1 0 0-.1.1-.1 0 .1-.5-.4-1-.9-.9 0 0-.2-.1-.3-.1 0 .1.2 1.2.1 1.4h-.2l.2.4v.2l-1.4.3v.8l.2.2 1.3 1.6v1.3h-.4v.6l.2.2v.4h.2v10.2l-.2.2v.2l-.2.2v.2h-.4v.4l.4.4v1.4l-3.9 1.7v-.1l.1-.2-.3-.2h-.4v-.2c.1-.1.2-.1.3-.2v-.2c.1 0 .2 0 .2-.1s.1-.1 0-.1h-1v.1c.1 0 .2 0 .3.1 0 0-.1 0-.1.1 0 0 .2.1.3.1v.2h-.3l-.3.1.1.2v.5l-1.4-.7v-.5l.1-.2-.3-.1h-.3v-.2c.1 0 .2-.1.3-.1s0-.1 0-.2c.1 0 .2 0 .2-.1.1 0 .1-.1 0-.1h-1c.1.1.2.1.3.1l-.1.1c.1.1.2.1.3.2v.2h-.4l-.3.1.1.1v.6h-3l-.3-.2h-.3v-.2c.1-.1.2-.1.2-.2 0 0 0-.1-.1-.1.1 0 .2 0 .3-.1s0-.1 0-.1H359c-.03 0-.06.1 0 .1l.23.1c-.06 0-.1.1-.1.1.03.1.15.1.25.1v.2h-.3l-.3.2v.1H357v-.5l.1-.1-.3-.2h-.33v-.2l.26-.1c0-.1-.06-.1-.1-.2l.24-.1c.07-.1.05-.1 0-.1h-1.03s-.04 0 0 .1c.08 0 .18 0 .25.1-.1 0-.1 0-.1.1 0 0 .1.1.2.1v.2h-.3l-.4.1.1.1v1.5l-.2.6h-.2v.4h.2v4.8h-.2v1.3h64.4v-1h-.2V234h.2v-.4h-.2l-.2-.63v-1.57l.1-.17-.3-.13h-.4v-.2c.1 0 .2 0 .2-.1 0 0 0-.1-.1-.1.1 0 .1 0 .2-.1v-.1h-1c-.1.1-.1.1 0 .1 0 .1.1.1.2.1l-.1.1c0 .1.1.1.2.2v.2h-.3l-.3.2.1.2v.6h-1.5v-.1l-.3-.1h-.3v-.2c.1-.04.2-.1.2-.14s0-.1-.1-.14c0-.02.1-.03.2-.1s0-.06 0-.1h-1v.1l.3.1s-.1.06-.1.1c.1.06.2.1.3.1v.2h-.3l-.3.18v.07h-2.6v-.5l.1-.16-.3-.1h-.3v-.2c.1 0 .2-.1.2-.1l-.1-.1.2-.1c.1 0 0-.1 0-.1h-1v.1l.3.1c-.1 0-.1.1-.1.1 0 .1.1.1.2.1v.2h-.3l-.4.2.1.2v.6l-1.4.6v-.5l.1-.2-.3-.1h-.3v-.2l.2-.2s0-.1-.1-.1c.1 0 .2 0 .3-.1v-.1h-1.1c0 .1-.1.1 0 .1.1.1.2.1.2.1-.1 0-.1.1-.1.1s.1.1.2.1v.2h-.3l-.4.2.1.2v.1l-4-1.7v-1.4l.4-.4v-.4h-.4v-.2l-.2-.2-.2-.2v-10.2h.2v-.4l.2-.2v-.6h-.4v-1.2l1.2-1.6.2-.2v-.9l-1.4-.3v-.2l.2-.4h-.3c-.1-.2.1-1.3 0-1.4h-.1c-.1 0-.3.1-.3.1-.6-.2-1 .3-1 .8 0 .1-.1 0-.1 0-.1-.2-.2-.1-.3 0-.1.1-.2.4-.2.6h-.1v.2l-13.2-2.8v-.3h.2v-.2h-.4v-.1c0-.4-.1-.7 0-1.2.3.1.3-.1.1-.3 0-.3-.1-.5-.3-.5.1-.4 0-.5-.2-.5s-.2.3-.1.4l-.2.1c0 .1-.1.1-.1.2h-.1v-.3h-.2c.1-.2 0-.4-.1-.4l-.1-.1z"/>
</svg>
