<svg xmlns="http://www.w3.org/2000/svg" style="display: none;">
  
    <symbol id="icon-ultimate-central" viewBox="0 0 512 512">
      <path d="m425 137c-18-22-39-40-64-53-25-12-51-20-79-23-7-1-14-1-21-1-56 1-104 19-143 55-39 35-62 81-68 137-3 28 0 56 8 82 8 27 21 51 39 73 18 22 40 40 64 53 25 13 51 21 80 24 6 1 13 1 20 1 56-1 104-20 143-55 39-36 62-81 69-137 2-29 0-56-9-83-8-27-21-51-39-73z m24 153c-6 50-26 90-61 122-34 31-77 48-127 49-6 0-12-1-18-1-25-3-49-10-70-21-22-12-41-27-57-47-16-20-28-41-35-65-7-23-10-48-7-73 6-50 26-90 60-121 35-32 77-48 127-49 6 0 12 0 18 0 25 3 49 10 70 22 22 12 41 27 57 47 16 19 28 41 35 64 8 24 10 48 8 73z m-82-105c-11-15-25-26-41-34-16-9-33-14-52-16-4 0-9 0-13 0-37 0-68 12-93 35-25 23-40 53-44 89-2 19 0 36 5 54 6 17 14 33 26 47 12 14 25 26 41 34 16 8 33 13 52 15 4 1 9 1 13 1 37-1 68-12 93-35 25-24 40-53 44-89 2-19 0-37-5-54-5-17-14-33-26-47z m-106 214c-4 0-8 0-12 0-17-2-33-7-48-14-14-8-27-19-38-32-11-13-19-28-24-43-5-16-6-33-4-50 3-33 17-61 40-82 24-21 52-32 86-33 4 0 8 0 12 1 17 2 33 6 48 14 14 8 27 19 38 32 11 13 19 27 23 43 5 16 7 33 6 50-5 33-18 60-42 81-23 22-51 33-85 33z m-203 9l-4-6c-1-2-2-4-4-6-1-2-2-3-3-4-1-2-2-4-3-5-1-4-3-8-6-12l-6-13c0-2-1-5-2-7-1-3-2-5-2-7l-5-16c-1-5-2-10-3-15l-1-4 0-4c0-2 0-5 0-7-1-5-1-10-1-14l0-13c0-4 1-8 1-11l2-8 1-7 1 7 0 8c0 3 0 7 0 11l1 12c0 5 0 9 1 14 1 5 2 10 3 15 1 5 2 10 2 15l4 15c1 2 1 5 2 7 1 2 2 5 3 7l4 13c2 4 4 8 5 12 0 1 1 3 2 5l6 12z m-49-78l-2-7c-1-3-1-6-2-9l-2-11-2-14-1-15 0-8 1-8c0-6 0-11 1-17l3-16 1-4 1-4c1-3 1-6 2-8 1-5 3-10 5-15l5-12c1-4 3-8 5-11 2-3 3-5 4-8l4-6-2 7c-1 2-2 5-3 8-1 4-3 7-4 11l-4 13-4 14-1 8c-1 3-2 5-2 8-1 5-2 11-3 16l-1 17-1 15c-1 6-1 11-1 15 1 5 1 9 1 14l0 6 1 5c0 4 0 7 0 9z m481 28l-1 4c0 0-1 5-4 13-1 2-2 5-3 8-1 3-3 6-4 9-2 3-3 6-5 9l-6 9c-2 3-4 6-6 9-2 2-4 5-7 7-5 6-9 10-13 13l-5 5c-2 1-4 3-5 4l-4 3 3-5c2-2 4-5 8-9 1-3 3-5 5-7l6-8 12-16c2-3 4-6 5-9l6-8 5-9c1-2 3-5 4-7l6-11z m22-11c0 0-1 3-2 7 0 2-1 5-2 8-1 4-2 8-4 12-1 3-3 8-5 12-1 4-4 9-6 14-2 2-3 5-4 7l-2 4-12 17-11 13c-1 2-3 4-5 6l-6 6c-3 4-7 7-11 10-4 3-7 6-10 9l-10 7c-3 1-5 3-7 4l-7 4 6-5c2-1 4-3 6-6 2-1 3-2 4-3l5-4 9-10c4-3 7-7 11-10l5-6c2-2 3-4 5-6 4-5 7-9 10-14l9-13 3-3 5-10c3-5 6-9 8-13 2-4 4-8 6-12 2-4 4-7 5-10 2-3 3-6 3-8z m-163-300c0 0 2 0 5 1l6 2 8 2c2 1 5 2 8 4 3 1 7 3 10 4 3 2 6 3 9 6l10 6c3 2 7 4 9 7 3 2 6 5 9 7 3 3 5 5 8 8 2 2 5 4 6 7 2 2 3 4 5 6l3 5 4 4-9-7c-2-2-4-4-6-5l-7-6-8-6c-3-3-6-5-9-7l-18-13-10-6c-2-2-5-4-8-5-3-2-6-4-8-5z m-11-22c1 0 4 0 11 1l5 1c2 0 4 1 6 2l12 4 6 3 5 4c4 2 7 4 10 6 6 5 8 7 8 7l-3-1c-2 0-4-1-7-2-2-1-3-1-5-2-2-1-3-1-5-2-2-1-4-2-6-3-2-1-4-2-6-3l-12-5c-1-1-3-2-5-2l-4-3c-6-3-10-5-10-5z"/>
    </symbol>
  
    <symbol id="icon-facebook" viewBox="0 0 512 512">
      <path d="m256 10c68 0 126 24 174 72c48 48 72 106 72 174c0 68-24 125-72 174c-48 48-106 72-174 72c-68 0-126-24-174-72c-48-49-72-106-72-174c0-68 24-126 72-174c48-48 106-72 174-72m58 169c0 0 0-40 0-40c0 0-36 0-36 0c-16 0-28 6-38 17c-11 11-16 25-16 42c0 0 0 22 0 22c0 0-39 0-39 0c0 0 0 38 0 38c0 0 39 0 39 0c0 0 0 114 0 114c0 0 44 0 44 0c0 0 0-114 0-114c0 0 46 0 46 0c0 0 0-38 0-38c0 0-46 0-46 0c0 0 0-26 0-26c0-10 3-15 10-15c0 0 36 0 36 0"/>
    </symbol>
  
    <symbol id="icon-github" viewBox="0 0 512 512">
      <path d="m446 256c0-51-22-100-56-134c-34-34-83-56-134-56c-51 0-100 22-134 56c-34 34-56 83-56 134c0 83 55 156 133 181l0-50c-11 1-17 2-20 2c-22 0-37-10-46-30c-3-7-6-13-10-19c-1-1-3-2-7-5c-3-3-6-5-8-7c-3-2-4-4-4-5c0-2 3-4 9-4c11 0 20 7 26 15c6 8 12 17 22 23c4 3 10 4 16 4c8 0 16-1 24-4c3-11 10-20 19-26c-66-7-97-30-97-92c0-23 7-43 22-58c-3-9-4-17-4-25c0-12 2-22 8-32c22 0 37 7 60 23c15-3 31-5 50-5c15 0 30 1 45 5c22-16 37-23 59-23c6 10 8 20 8 32c0 8-1 16-4 24c15 17 22 36 22 59c0 62-31 86-97 92c14 9 21 22 21 39l0 67c78-25 133-98 133-181z m7-114c20 35 31 73 31 114c0 83-44 156-114 197c-35 20-73 31-114 31c-83 0-156-44-197-114c-20-35-31-73-31-114c0-83 44-156 114-197c35-20 73-31 114-31c83 0 156 44 197 114z"/>
    </symbol>
  
    <symbol id="icon-mail" viewBox="0 0 512 512">
      <path d="m418 385l-7 5c-17 13-34 24-50 31c-29 13-61 20-95 20c-49 0-91-14-126-44c-39-33-58-78-58-135c0-51 16-95 50-131c36-41 85-61 146-61c33 0 63 8 89 22c42 24 63 62 63 115c0 36-7 65-23 87c-15 22-31 33-46 33c-8 0-14-3-18-8c-3-5-5-10-5-16c0-4 1-8 2-13c1-5 3-13 5-23l35-126l-51 0l-9 37c-3-12-8-22-16-30c-11-12-25-17-44-17c-32 0-59 15-81 46c-22 30-33 63-33 98c0 31 8 54 22 71c15 17 32 25 54 25c21 0 39-7 55-22c8-8 16-20 22-34c0 2 0 4 0 6c0 2 0 3 0 4c0 11 4 22 13 32c9 10 22 15 38 15c32 0 60-16 85-47c24-32 37-70 37-114c0-56-20-101-59-135c-37-32-83-48-139-48c-70 0-126 24-171 71c-42 44-63 98-63 162c0 57 17 106 51 147c41 51 98 76 172 76c32 0 63-6 92-17c30-11 57-28 83-49c0 0 12-11 5-27c-7-16-21-9-25-6z m-132-104c-12 32-28 47-47 47c-11 0-19-4-25-13c-6-8-9-20-9-34c0-24 7-48 20-73c13-25 29-38 48-38c10 0 17 4 23 11c5 7 8 15 8 26c0 18-6 43-18 74z"/>
    </symbol>
  
    <symbol id="icon-menu" viewBox="0 0 512 512">
      <path d="m410 230c7 0 13 3 18 8c5 5 7 11 7 18c0 7-2 13-7 18c-6 5-12 8-18 8c0 0-308 0-308 0c-6 0-12-3-18-8c-5-5-7-11-7-18c0-7 2-13 7-18c5-5 11-8 18-8c0 0 308 0 308 0m-308-51c-6 0-12-2-18-7c-5-6-7-12-7-18c0-7 2-13 7-18c5-5 11-8 18-8c0 0 308 0 308 0c7 0 13 3 18 8c5 5 7 11 7 18c0 6-2 12-7 18c-6 5-12 7-18 7c0 0-308 0-308 0m308 154c7 0 13 2 18 7c5 6 7 12 7 18c0 7-2 13-7 18c-6 5-12 8-18 8c0 0-308 0-308 0c-6 0-12-3-18-8c-5-5-7-11-7-18c0-6 2-12 7-18c5-5 11-7 18-7c0 0 308 0 308 0"/>
    </symbol>
  
    <symbol id="icon-paw" viewBox="0 0 512 512">
      <path d="m178 208c0-28-23-51-52-51c-28 0-51 23-51 51c0 29 23 52 51 52c29 0 52-23 52-52z m208-41c-29 0-52 23-52 52c0 28 23 51 52 51c28 0 51-23 51-51c0-29-23-52-51-52z m-48 109c-3-4-8-9-14-15c-16-20-40-33-68-33c-25 0-47 10-62 27c-9 8-17 15-22 21l-3 4c-16 20-36 43-35 84c0 37 30 68 68 68c21 0 40-10 53-27c13 17 32 27 54 27c37 0 68-31 68-68c0-41-20-64-35-84z m-21-138c0 31-26 57-57 57c-32 0-58-26-58-57c0-32 26-58 58-58c31 0 57 26 57 58z"/>
    </symbol>
  
</svg>
