<svg xmlns="http://www.w3.org/2000/svg" style="display: none;">
  
    <symbol id="icon-ultimate-central" viewBox="0 0 512 512">
      <path d="m425 137c-18-22-39-40-64-53-25-12-51-20-79-23-7-1-14-1-21-1-56 1-104 19-143 55-39 35-62 81-68 137-3 28 0 56 8 82 8 27 21 51 39 73 18 22 40 40 64 53 25 13 51 21 80 24 6 1 13 1 20 1 56-1 104-20 143-55 39-36 62-81 69-137 2-29 0-56-9-83-8-27-21-51-39-73z m24 153c-6 50-26 90-61 122-34 31-77 48-127 49-6 0-12-1-18-1-25-3-49-10-70-21-22-12-41-27-57-47-16-20-28-41-35-65-7-23-10-48-7-73 6-50 26-90 60-121 35-32 77-48 127-49 6 0 12 0 18 0 25 3 49 10 70 22 22 12 41 27 57 47 16 19 28 41 35 64 8 24 10 48 8 73z m-82-105c-11-15-25-26-41-34-16-9-33-14-52-16-4 0-9 0-13 0-37 0-68 12-93 35-25 23-40 53-44 89-2 19 0 36 5 54 6 17 14 33 26 47 12 14 25 26 41 34 16 8 33 13 52 15 4 1 9 1 13 1 37-1 68-12 93-35 25-24 40-53 44-89 2-19 0-37-5-54-5-17-14-33-26-47z m-106 214c-4 0-8 0-12 0-17-2-33-7-48-14-14-8-27-19-38-32-11-13-19-28-24-43-5-16-6-33-4-50 3-33 17-61 40-82 24-21 52-32 86-33 4 0 8 0 12 1 17 2 33 6 48 14 14 8 27 19 38 32 11 13 19 27 23 43 5 16 7 33 6 50-5 33-18 60-42 81-23 22-51 33-85 33z m-203 9l-4-6c-1-2-2-4-4-6-1-2-2-3-3-4-1-2-2-4-3-5-1-4-3-8-6-12l-6-13c0-2-1-5-2-7-1-3-2-5-2-7l-5-16c-1-5-2-10-3-15l-1-4 0-4c0-2 0-5 0-7-1-5-1-10-1-14l0-13c0-4 1-8 1-11l2-8 1-7 1 7 0 8c0 3 0 7 0 11l1 12c0 5 0 9 1 14 1 5 2 10 3 15 1 5 2 10 2 15l4 15c1 2 1 5 2 7 1 2 2 5 3 7l4 13c2 4 4 8 5 12 0 1 1 3 2 5l6 12z m-49-78l-2-7c-1-3-1-6-2-9l-2-11-2-14-1-15 0-8 1-8c0-6 0-11 1-17l3-16 1-4 1-4c1-3 1-6 2-8 1-5 3-10 5-15l5-12c1-4 3-8 5-11 2-3 3-5 4-8l4-6-2 7c-1 2-2 5-3 8-1 4-3 7-4 11l-4 13-4 14-1 8c-1 3-2 5-2 8-1 5-2 11-3 16l-1 17-1 15c-1 6-1 11-1 15 1 5 1 9 1 14l0 6 1 5c0 4 0 7 0 9z m481 28l-1 4c0 0-1 5-4 13-1 2-2 5-3 8-1 3-3 6-4 9-2 3-3 6-5 9l-6 9c-2 3-4 6-6 9-2 2-4 5-7 7-5 6-9 10-13 13l-5 5c-2 1-4 3-5 4l-4 3 3-5c2-2 4-5 8-9 1-3 3-5 5-7l6-8 12-16c2-3 4-6 5-9l6-8 5-9c1-2 3-5 4-7l6-11z m22-11c0 0-1 3-2 7 0 2-1 5-2 8-1 4-2 8-4 12-1 3-3 8-5 12-1 4-4 9-6 14-2 2-3 5-4 7l-2 4-12 17-11 13c-1 2-3 4-5 6l-6 6c-3 4-7 7-11 10-4 3-7 6-10 9l-10 7c-3 1-5 3-7 4l-7 4 6-5c2-1 4-3 6-6 2-1 3-2 4-3l5-4 9-10c4-3 7-7 11-10l5-6c2-2 3-4 5-6 4-5 7-9 10-14l9-13 3-3 5-10c3-5 6-9 8-13 2-4 4-8 6-12 2-4 4-7 5-10 2-3 3-6 3-8z m-163-300c0 0 2 0 5 1l6 2 8 2c2 1 5 2 8 4 3 1 7 3 10 4 3 2 6 3 9 6l10 6c3 2 7 4 9 7 3 2 6 5 9 7 3 3 5 5 8 8 2 2 5 4 6 7 2 2 3 4 5 6l3 5 4 4-9-7c-2-2-4-4-6-5l-7-6-8-6c-3-3-6-5-9-7l-18-13-10-6c-2-2-5-4-8-5-3-2-6-4-8-5z m-11-22c1 0 4 0 11 1l5 1c2 0 4 1 6 2l12 4 6 3 5 4c4 2 7 4 10 6 6 5 8 7 8 7l-3-1c-2 0-4-1-7-2-2-1-3-1-5-2-2-1-3-1-5-2-2-1-4-2-6-3-2-1-4-2-6-3l-12-5c-1-1-3-2-5-2l-4-3c-6-3-10-5-10-5z"/>
    </symbol>
  
    <symbol id="icon-facebook" viewBox="0 0 512 512">
      <path d="m256 10c68 0 126 24 174 72c48 48 72 106 72 174c0 68-24 125-72 174c-48 48-106 72-174 72c-68 0-126-24-174-72c-48-49-72-106-72-174c0-68 24-126 72-174c48-48 106-72 174-72m58 169c0 0 0-40 0-40c0 0-36 0-36 0c-16 0-28 6-38 17c-11 11-16 25-16 42c0 0 0 22 0 22c0 0-39 0-39 0c0 0 0 38 0 38c0 0 39 0 39 0c0 0 0 114 0 114c0 0 44 0 44 0c0 0 0-114 0-114c0 0 46 0 46 0c0 0 0-38 0-38c0 0-46 0-46 0c0 0 0-26 0-26c0-10 3-15 10-15c0 0 36 0 36 0"/>
    </symbol>
  
    <symbol id="icon-github" viewBox="0 0 512 512">
      <path d="m446 256c0-51-22-100-56-134c-34-34-83-56-134-56c-51 0-100 22-134 56c-34 34-56 83-56 134c0 83 55 156 133 181l0-50c-11 1-17 2-20 2c-22 0-37-10-46-30c-3-7-6-13-10-19c-1-1-3-2-7-5c-3-3-6-5-8-7c-3-2-4-4-4-5c0-2 3-4 9-4c11 0 20 7 26 15c6 8 12 17 22 23c4 3 10 4 16 4c8 0 16-1 24-4c3-11 10-20 19-26c-66-7-97-30-97-92c0-23 7-43 22-58c-3-9-4-17-4-25c0-12 2-22 8-32c22 0 37 7 60 23c15-3 31-5 50-5c15 0 30 1 45 5c22-16 37-23 59-23c6 10 8 20 8 32c0 8-1 16-4 24c15 17 22 36 22 59c0 62-31 86-97 92c14 9 21 22 21 39l0 67c78-25 133-98 133-181z m7-114c20 35 31 73 31 114c0 83-44 156-114 197c-35 20-73 31-114 31c-83 0-156-44-197-114c-20-35-31-73-31-114c0-83 44-156 114-197c35-20 73-31 114-31c83 0 156 44 197 114z"/>
    </symbol>
  
    <symbol id="icon-mail" viewBox="0 0 512 512">
      <path d="m418 385l-7 5c-17 13-34 24-50 31c-29 13-61 20-95 20c-49 0-91-14-126-44c-39-33-58-78-58-135c0-51 16-95 50-131c36-41 85-61 146-61c33 0 63 8 89 22c42 24 63 62 63 115c0 36-7 65-23 87c-15 22-31 33-46 33c-8 0-14-3-18-8c-3-5-5-10-5-16c0-4 1-8 2-13c1-5 3-13 5-23l35-126l-51 0l-9 37c-3-12-8-22-16-30c-11-12-25-17-44-17c-32 0-59 15-81 46c-22 30-33 63-33 98c0 31 8 54 22 71c15 17 32 25 54 25c21 0 39-7 55-22c8-8 16-20 22-34c0 2 0 4 0 6c0 2 0 3 0 4c0 11 4 22 13 32c9 10 22 15 38 15c32 0 60-16 85-47c24-32 37-70 37-114c0-56-20-101-59-135c-37-32-83-48-139-48c-70 0-126 24-171 71c-42 44-63 98-63 162c0 57 17 106 51 147c41 51 98 76 172 76c32 0 63-6 92-17c30-11 57-28 83-49c0 0 12-11 5-27c-7-16-21-9-25-6z m-132-104c-12 32-28 47-47 47c-11 0-19-4-25-13c-6-8-9-20-9-34c0-24 7-48 20-73c13-25 29-38 48-38c10 0 17 4 23 11c5 7 8 15 8 26c0 18-6 43-18 74z"/>
    </symbol>
  
    <symbol id="icon-paw" viewBox="0 0 512 512">
      <path d="m178 208c0-28-23-51-52-51c-28 0-51 23-51 51c0 29 23 52 51 52c29 0 52-23 52-52z m208-41c-29 0-52 23-52 52c0 28 23 51 52 51c28 0 51-23 51-51c0-29-23-52-51-52z m-48 109c-3-4-8-9-14-15c-16-20-40-33-68-33c-25 0-47 10-62 27c-9 8-17 15-22 21l-3 4c-16 20-36 43-35 84c0 37 30 68 68 68c21 0 40-10 53-27c13 17 32 27 54 27c37 0 68-31 68-68c0-41-20-64-35-84z m-21-138c0 31-26 57-57 57c-32 0-58-26-58-57c0-32 26-58 58-58c31 0 57 26 57 58z"/>
    </symbol>
  
    <symbol id="icon-unread" viewBox="0 0 512 512">
      <path d="m393 238l0 10c-1 12-4 32-14 55 3-15 5-31 5-47 0-12-1-24-3-35-15-95-90-170-184-186-11-3-18-3-18-3 0 0 1 1 1 1 39 47 44 97 37 132-2 12-5 23-9 31 0 0 3-14 3-29-1-15-4-30-15-39 3 18-1 34-10 48-24 42-85 73-90 151l0 4c0 54 26 99 69 125-7-12-15-35-9-60 4 24 10 36 21 52 8 12 19 19 33 25 14 5 29 7 46 7 56 0 105-29 134-72l0 0 0 0c16-25 26-55 26-88 0-30-8-58-23-82z"/>
    </symbol>
  
    <symbol id="icon-super-sticky" viewBox="0 0 512 512">
      <path d="m473 120c5-2 9-2 11 0c3 3 3 6 0 10c-32 47-60 84-84 109c-23 26-42 41-56 46c-14 5-27 6-37 1c-11-4-21-11-31-19c-10-8-21-15-32-20c-12-6-28-5-48 2c-20 7-44 21-71 44c0 0 46 180 46 180c0 0-51 0-51 0c0 0-94-369-94-369c0 0 47-17 47-17c30-22 56-37 78-44c21-7 37-7 50-2c12 6 23 15 32 27c10 11 21 23 32 36c12 13 25 23 41 32c15 8 37 12 66 10c28-2 62-10 101-26"/>
    </symbol>
  
    <symbol id="icon-closed" viewBox="0 0 512 512">
      <path d="m416 232l-23 0l0-77c0-38-15-73-40-99c-24-25-59-42-97-42c-38 0-73 17-98 42c-24 26-39 61-39 99l0 77l-23 0c-10 0-18 8-18 17l0 203c0 10 8 14 18 17c10 4 78 29 160 29c82 0 151-25 160-29c10-4 18-7 18-17l0-203c0-9-8-17-18-17z m-107 183c-3 3-7 4-11 4c-3 0-7-1-10-4l-32-33l-32 33c-3 3-7 4-11 4c-3 0-7-1-10-4c-5-6-5-15 0-21l33-32l-33-32c-5-6-5-15 0-21c6-5 15-5 21 0l32 33l32-33c6-5 15-5 21 0c5 6 5 15 0 21l-33 32l33 32c5 6 5 15 0 21z m19-183l-144 0l0-77c0-22 9-42 22-55c13-14 31-22 50-22c19 0 36 8 50 22c13 14 22 33 22 55z"/>
    </symbol>
  
    <symbol id="icon-images" viewBox="0 0 512 512">
      <path d="m458 140l-83-4-5-54c-1-11-11-19-23-18l-296 24c-11 1-20 11-19 22l21 236c1 11 11 19 23 18l15-1-2 46c-1 12 9 23 22 23l330 16c14 1 24-9 25-21l14-263c1-13-9-23-22-24z m-355 6l-7 134-18 25-16-178c0 0 0 0 0 0 0-1 0-1 0-1 1-5 4-9 10-9l261-22c5 0 9 3 10 8 0 0 0 0 0 1 0 0 1 0 1 0l2 31-219-11c-13 0-24 9-24 22z m334 236l-47-55-27-33c-3-2-7-5-11-5-4 0-8 1-11 4l-17 12c-3 2-6 3-9 3-4 0-7-1-10-4 0 0-2-2-3-3l-43-49c-3-4-8-6-14-7-5 0-11 3-14 6l-102 109-6 7 0-7 7-128 3-63c0-1 0-1 0-1 0 0 0 0 0 0 1-6 6-10 12-9l204 9 29 2 58 3c6 0 10 4 11 10 0 0 0 0 0 0 0 1 0 1 0 1z m-64-120c20 0 35-15 35-35 0-19-15-35-35-35-19 0-35 16-35 35 0 20 16 35 35 35z"/>
    </symbol>
  
    <symbol id="icon-photos" viewBox="0 0 512 512">
      <path d="m438 170c0 0-51 0-51 0c0 0-63-77-63-77c0 0-110 77-110 77c0 0-92 0-92 0c-18 0-33 7-46 20c-13 13-19 29-19 47c0 0 0 81 0 81c0 0-56-151-56-151c-3-13 1-22 11-27c0 0 349-127 349-127c12-3 20 1 25 13c0 0 52 144 52 144m55 46c5 0 10 2 14 6c3 4 5 9 5 15c0 0 0 241 0 241c0 6-2 10-5 15c-4 4-9 6-14 6c0 0-371 0-371 0c-5 0-10-2-14-6c-4-5-5-9-5-15c0 0 0-241 0-241c0-6 1-11 5-15c4-4 9-6 14-6c0 0 371 0 371 0m-29 231c0 0 0-82 0-82c0 0-37-82-37-82c0 0-85 30-85 30c0 0-66 68-66 68c0 0-71-87-71-87c0 0-47 109-47 109c0 0 0 44 0 44c0 0 306 0 306 0"/>
    </symbol>
  
    <symbol id="icon-calendar" viewBox="0 0 512 512">
      <path d="m55 475l82 0 0-82-82 0z m100 0l92 0 0-82-92 0z m-100-100l82 0 0-92-82 0z m100 0l92 0 0-92-92 0z m-100-110l82 0 0-82-82 0z m210 210l92 0 0-82-92 0z m-110-210l92 0 0-82-92 0z m220 210l82 0 0-82-82 0z m-110-100l92 0 0-92-92 0z m-100-247l0-82c0-3-1-5-3-7-2-2-4-2-7-2l-18 0c-2 0-4 0-6 2-2 2-3 4-3 7l0 82c0 2 1 5 3 6 2 2 4 3 6 3l18 0c3 0 5-1 7-3 2-1 3-4 3-6z m210 247l82 0 0-92-82 0z m-110-110l92 0 0-82-92 0z m110 0l82 0 0-82-82 0z m9-137l0-82c0-3-1-5-3-7-2-2-4-2-6-2l-18 0c-3 0-5 0-7 2-2 2-3 4-3 7l0 82c0 2 1 5 3 6 2 2 4 3 7 3l18 0c2 0 4-1 6-3 2-1 3-4 3-6z m110-18l0 365c0 10-4 19-11 26-7 7-16 11-26 11l-402 0c-10 0-19-4-26-11-7-7-11-16-11-26l0-365c0-10 4-19 11-26 7-7 16-11 26-11l36 0 0-27c0-13 5-24 14-33 9-9 20-13 32-13l18 0c13 0 24 4 33 13 9 9 13 20 13 33l0 27 110 0 0-27c0-13 4-24 13-33 9-9 20-13 33-13l18 0c12 0 23 4 32 13 9 9 14 20 14 33l0 27 36 0c10 0 19 4 26 11 7 7 11 16 11 26z"/>
    </symbol>
  
    <symbol id="icon-reports" viewBox="0 0 512 512">
      <path d="m464 0l-352 0c-27 0-48 21-48 48l0 32l-16 0c-27 0-48 21-48 48l0 320c0 35 29 64 64 64l384 0c35 0 64-29 64-64l0-400c0-27-22-48-48-48z m16 448c0 18-14 32-32 32l-384 0c-18 0-32-14-32-32l0-320c0-9 7-16 16-16l16 0l0 320c0 9 7 16 16 16c9 0 16-7 16-16l0-384c0-9 7-16 16-16l352 0c9 0 16 7 16 16z m-168-240l128 0c4 0 8-4 8-8c0-4-4-8-8-8l-128 0c-4 0-8 4-8 8c0 4 4 8 8 8z m0-48l128 0c4 0 8-4 8-8c0-4-4-8-8-8l-128 0c-4 0-8 4-8 8c0 4 4 8 8 8z m0-48l128 0c4 0 8-4 8-8c0-4-4-8-8-8l-128 0c-4 0-8 4-8 8c0 4 4 8 8 8z m-48 320l-128 0c-4 0-8 4-8 8c0 4 4 8 8 8l128 0c4 0 8-4 8-8c0-4-4-8-8-8z m0-48l-128 0c-4 0-8 4-8 8c0 4 4 8 8 8l128 0c4 0 8-4 8-8c0-4-4-8-8-8z m0-48l-128 0c-4 0-8 4-8 8c0 4 4 8 8 8l128 0c4 0 8-4 8-8c0-4-4-8-8-8z m176 96l-128 0c-4 0-8 4-8 8c0 4 4 8 8 8l128 0c4 0 8-4 8-8c0-4-4-8-8-8z m0-48l-128 0c-4 0-8 4-8 8c0 4 4 8 8 8l128 0c4 0 8-4 8-8c0-4-4-8-8-8z m0-48l-128 0c-4 0-8 4-8 8c0 4 4 8 8 8l128 0c4 0 8-4 8-8c0-4-4-8-8-8z m0-96l-304 0c-4 0-8 4-8 8c0 4 4 8 8 8l304 0c4 0 8-4 8-8c0-4-4-8-8-8z m0 48l-304 0c-4 0-8 4-8 8c0 4 4 8 8 8l304 0c4 0 8-4 8-8c0-4-4-8-8-8z m-296-80l112 0c9 0 16-7 16-16l0-112c0-9-7-16-16-16l-112 0c-9 0-16 7-16 16l0 112c0 9 7 16 16 16z m16-112l80 0l0 80l-80 0z"/>
    </symbol>
  
    <symbol id="icon-sticky" viewBox="0 0 512 512">
      <path d="m224 352l32 160 32-160c-10 1-21 2-32 2-10 0-22-1-32-2z m127-149c-16-9-31-30-31-43l0-32c0-11 6-19 12-26 7-6 12-14 12-22 0-27-31-48-88-48-57 0-87 21-87 48 0 8 4 16 12 22 5 7 11 15 11 26l0 32c0 13-14 34-31 43-19 9-35 27-35 44 0 37 51 74 130 74 80 0 130-37 130-74 0-17-15-34-35-44z"/>
    </symbol>
  
    <symbol id="icon-menu" viewBox="0 0 512 512">
      <path d="m296 136c0-22-18-40-40-40-22 0-40 18-40 40 0 22 18 40 40 40 22 0 40-18 40-40z m0 240c0-22-18-40-40-40-22 0-40 18-40 40 0 22 18 40 40 40 22 0 40-18 40-40z m0-120c0-22-18-40-40-40-22 0-40 18-40 40 0 22 18 40 40 40 22 0 40-18 40-40z"/>
    </symbol>
  
    <symbol id="icon-plus" viewBox="0 0 512 512">
      <path d="m416 277l-139 0 0 139-42 0 0-139-139 0 0-42 139 0 0-139 42 0 0 139 139 0z"/>
    </symbol>
  
    <symbol id="icon-topics" viewBox="0 0 512 512">
      <path d="m402 219c0 27-9 51-27 74-17 22-42 40-73 53-31 13-64 20-101 20-16 0-33-2-50-5-24 17-50 29-80 37-6 1-15 3-24 4l-1 0c-2 0-4 0-6-2-2-2-3-4-3-6 0-1 0-1 0-2 0-1 0-1-1-2 0 0 1-1 1-1l1-2 1-1 1-2 1-1 1-2c1-1 3-3 7-7 3-3 6-6 7-8 2-2 4-5 7-8 2-4 5-8 7-11 2-4 4-8 6-13-24-14-42-31-56-51-14-20-20-41-20-64 0-26 9-51 27-73 17-22 42-40 73-53 31-13 64-20 101-20 36 0 70 7 101 20 31 13 55 31 73 53 18 22 27 47 27 73z m110 74c0 22-7 44-20 64-14 20-32 36-56 50 2 5 4 9 6 13 2 4 4 7 7 11 3 3 5 6 6 8 2 2 4 5 8 8 3 4 5 6 6 8 1 0 1 0 2 1 0 1 1 1 1 1 0 1 1 1 1 2 0 0 1 1 1 1l1 2 0 1 0 2 0 2c0 3-2 5-4 6-1 2-4 3-6 2-9-1-18-2-24-4-30-8-56-20-80-37-17 3-34 5-50 5-52 0-97-13-135-38 11 1 19 1 25 1 31 0 60-4 88-13 29-8 54-20 76-36 24-18 42-38 55-61 12-23 19-47 19-73 0-14-2-29-7-43 25 14 44 30 59 51 14 20 21 42 21 66z"/>
    </symbol>
  
    <symbol id="icon-replies" viewBox="0 0 512 512">
      <path d="m512 256c0 33-11 64-34 92-23 28-54 50-93 66-40 17-83 25-129 25-13 0-27-1-41-2-38 33-82 56-132 69-9 2-20 4-32 6-4 0-7 0-9-3-3-2-4-4-5-8l0 0c-1-1-1-2 0-4 0-1 0-2 0-2 0-1 1-2 2-3l1-3 2-2 3-3c1-1 4-5 8-10 5-5 8-8 10-10 2-3 5-6 9-12 4-5 7-10 9-14 3-5 5-10 8-17 3-7 5-14 8-22-30-17-54-38-71-63-17-25-26-51-26-80 0-25 7-48 20-71 14-23 32-42 55-58 23-17 50-30 82-39 31-10 64-15 99-15 46 0 89 8 129 25 39 16 70 38 93 66 23 28 34 59 34 92z"/>
    </symbol>
  
    <symbol id="icon-update" viewBox="0 0 512 512">
      <path d="m448 400c0 0-37-208-224-208l0-80-160 144 160 134 0-92c102 0 171 9 224 102z"/>
    </symbol>
  
    <symbol id="icon-admin" viewBox="0 0 512 512">
      <path d="m473 90c-26-17-60-10-77 16c-13 20-11 45 2 63c-34 48-62 56-77 55c-3 0-6-1-10-1c-31 0-38-52-38-90c22-7 38-28 38-52c0-31-24-56-55-56c-31 0-55 25-55 56c0 24 16 45 38 52c0 38-7 90-38 90c-4 0-7 1-11 1c-14 1-42-7-76-55c13-18 15-43 2-63c-17-26-51-33-77-16c-25 16-32 51-16 76c13 20 37 29 59 24c35 52 52 117 52 117l0 0c11 38 18 105 22 130c6 31 61 50 100 50c39 0 94-19 100-50c4-25 12-91 22-130l0 0c0 0 17-65 52-117c22 5 46-4 59-24c17-25 9-60-16-76z"/>
    </symbol>
  
    <symbol id="icon-info" viewBox="0 0 512 512">
      <path d="m272 172c0 11-9 20-20 20-12 0-20-9-20-20 0-11 8-20 20-20 11 0 20 9 20 20z m0 172l0-128-48 0 0 8 16 0 0 120-16 0 0 8 64 0 0-8z m-16-296c-115 0-208 93-208 208 0 115 93 208 208 208 115 0 208-93 208-208 0-115-93-208-208-208z m0 399c-105 0-191-86-191-191 0-105 86-191 191-191 105 0 191 86 191 191 0 105-86 191-191 191z"/>
    </symbol>
  
    <symbol id="icon-plus-circle" viewBox="0 0 512 512">
      <path d="m256 48c-115 0-208 93-208 208 0 115 93 208 208 208 115 0 208-93 208-208 0-115-93-208-208-208z m0 399c-105 0-191-86-191-191 0-105 86-191 191-191 105 0 191 86 191 191 0 105-86 191-191 191z m8-319l-17 0 0 120-119 0 0 17 119 0 0 119 17 0 0-119 120 0 0-17-120 0z"/>
    </symbol>
  
</svg>
