<svg xmlns="http://www.w3.org/2000/svg" fill-rule="evenodd" stroke-miterlimit="1.41" viewBox="0 0 2540 1850" clip-rule="evenodd" stroke-linejoin="round">
  <path fill="#50514F" fill-rule="nonzero" d="M515.44 1684.37c-2.6-3.9-3.58-10.15-2.93-18.75.7-8.58 2.4-18.28 5.1-29.1 2.8-10.8 6.2-22.12 10.4-33.97 4.2-11.85 8.4-23.18 12.5-34 4.2-10.8 8-20.5 11.5-29.1 3.5-8.58 6.1-14.83 7.6-18.73 1.8-3.9 4.3-9.44 7.3-16.6 3-7.16 6.3-14.97 9.8-23.44l11.2-26.76c3.9-9.37 7.6-18.36 11.2-26.95 3.5-8.6 6.8-16.4 9.8-23.44 3-7.03 5.4-12.63 7.3-16.8 5.7-1.82 9.5-1.62 11.3.6 1.8 2.2 2.3 5.92 1.5 11.13-.7 5.2-2.6 11.52-5.4 18.94-2.9 7.42-6.2 15.37-10 23.83-3.7 8.46-7.6 17.12-11.7 25.98-4 8.9-7.6 17.3-10.9 25.2-3.3 8-5.8 15.2-7.5 21.7-1.7 6.5-2.1 11.7-1.3 15.6 4.7.6 10.1.6 16.2 0 6.1-.5 12.4-1.3 18.8-2.3 6.4-1 12.7-2.2 19-3.5 6.2-1.3 11.7-2.3 16.4-3.1 23.7-3.9 42.6-9.5 56.8-16.8 14.2-7.3 26-16.6 35.5-27.9 9.5-11.3 17.8-24.9 24.8-40.8 7.1-15.8 15.1-34.3 24.3-55.4 2.4-4.4 4.4-6.3 6.3-5.6 1.8.7 3.3 2.5 4.5 5.5 1.2 3 2.1 6.3 2.6 10s.5 6.3 0 7.8c-.2.8-1 2.5-2.3 5.1-1.3 2.6-2.7 5.4-4.3 8.4l-4.3 8.2c-1.3 2.5-2.1 4.1-2.3 4.9-.5 1-1.2 2.8-2 5.3s-1.7 5.2-2.7 8c-1.1 2.9-2 5.6-2.8 8-.7 2.5-1.3 4.3-1.5 5.3 1.3.3 3 1.5 5.3 3.8 2.2 2.2 3.4 4 3.7 5.3.8 4.4-.6 9.4-4.3 15s-8.1 11.4-13.5 17.4l-15.6 17.6c-5.1 5.8-8.5 11.1-10.3 16-10.7 26.1-19.8 52.1-27.5 78.2-7.7 26.1-13.3 53-17 80.9-.8 1.3-1.9 2.6-3.5 3.9-1.5 1.3-3.2 1.5-5.1.4-.5-5.7 0-13.6 1.4-23.6 1.4-10 3.3-20.9 5.7-32.8 2.3-11.8 4.9-23.9 7.8-36.1l8-33.8c2.5-10.2 4.5-18.8 6.1-25.5 1.5-6.8 2.2-10.5 1.9-11.3-5.4-1-12.5-1.2-21.1-.6-8.6.7-17.9 1.9-28.1 3.6-10.1 1.7-20.7 3.7-31.6 6.1-10.9 2.4-21.5 4.9-31.8 7.6l-28.7 7.8c-8.8 2.5-16.1 4.7-21.8 6.5-4.4 9.9-8 20.8-10.9 32.6-2.8 11.8-5.8 23.7-8.8 35.7-3 12-6.3 23.5-9.9 34.6-3.6 11-8.5 20.9-14.4 29.4-.5-.3-1.4-.9-2.6-1.9s-1.9-1.8-2.1-2.4zm337.2 0c-9.38-7.55-15.77-17.3-19.15-29.28-3.4-12-4.6-25.3-3.6-39.9 1-14.6 3.8-29.9 8.2-45.9 4.4-16 9.7-31.8 15.8-47.3 6.1-15.5 12.6-30.3 19.5-44.4 6.9-14.1 13.2-26.5 19.1-37.1 5.8-10.7 10.8-19.2 14.8-25.4 4-6.3 6.3-9.3 6.8-9 2 1 3.5 2.4 4.3 4.1.7 1.7 1.2 3.5 1.3 5.6.1 2.1.1 4.1-.2 6.2-.3 2.1-.5 4-.8 5.8l-2.4 4.5-2.4 4.5c-20.3 44.5-35.6 81.8-45.7 111.9-10.2 30.1-16.4 54.1-18.8 72-2.4 17.9-1.3 30.5 3.3 37.7 4.5 7.1 11.4 10 20.7 8.5 9.2-1.5 20.3-6.5 33.2-15.3 12.9-8.7 26.6-20 41-33.8 14.5-13.8 29.1-29.5 43.9-47.2 14.9-17.7 29-36.2 42.4-55.5 13.4-19.3 25.4-38.7 35.9-58.2 10.5-19.6 18.8-38.2 24.8-55.9.5-.6 1.2-1.4 2.1-2.6.9-1.2 1.6-1.8 2.2-1.8 7.3 4.9 10 13.3 8.2 25.2-1.9 11.8-6.9 25.7-15.1 41.6-8.2 15.9-19 33.1-32.4 51.6-13.4 18.4-28 36.7-43.8 54.6-15.8 17.9-32 34.9-48.7 51-16.7 16-32.6 29.5-47.7 40.4-15.1 10.9-28.6 18.7-40.4 23.2-11.9 4.5-20.9 4.3-27.2-.6zm275.46 0c-1.3-.52-4.35-1.95-9.17-4.3-4.82-2.34-9.3-5.07-13.48-8.2-4.16-3.12-7.1-6.38-8.8-9.76-1.68-3.3-.05-6.2 4.9-8.5 2.86 2.6 6.83 5.8 11.9 9.4 5.1 3.7 9.97 6.4 14.66 8.2 14.4.8 28.3.9 41.8.2 13.6-.6 26.8-2.3 39.7-5.1 12.9-2.7 25.4-6.8 37.5-12.4 12.1-5.6 23.9-12.9 35.4-22 12.8-10.7 21.2-20.5 25.2-29.5 4.1-9 4.8-17.3 2.4-25-2.5-7.7-7.5-14.8-15.2-21.5-7.6-6.6-16.8-12.9-27.3-18.7-10.5-5.9-21.8-11.3-33.8-16.4-11.9-5.1-23.4-10-34.3-14.8-10.9-4.8-20.8-9.5-29.6-14.2-8.8-4.7-15.4-9.5-19.5-14.4-1-4.4 1.2-9.6 6.7-15.6s13.1-12.2 22.7-18.6c9.6-6.4 20.7-12.7 33.2-19.1 12.5-6.4 25.3-12.2 38.5-17.4 13.2-5.2 25.9-9.6 38.3-13.3 12.4-3.6 23.2-5.9 32.6-6.8 9.4-.9 16.5-.2 21.5 2.1 5 2.4 6.7 6.8 5.1 13.3-1.8.3-6.5 1.4-14 3.5s-16.7 4.7-27.5 7.8c-10.8 3.1-22.5 6.8-35.1 11-12.6 4.2-25 8.5-37.3 13.1-12.2 4.6-23.5 9.2-33.9 13.9-10.4 4.7-18.6 9.3-24.6 13.7s-9.3 8.5-9.9 12.1c-.6 3.7 2.8 6.8 10.4 9.4 38 11.4 67.9 23.6 89.6 36.5 21.8 12.9 37.1 25.9 45.9 39.1 8.9 13.2 12.3 26.1 10.2 38.9-2.1 12.8-7.7 24.6-17 35.6-9.2 10.9-21.3 20.6-36.1 29.1-14.9 8.5-30.6 15-47.1 19.7-16.5 4.7-33.1 7.2-49.6 7.5-16.5.2-31.2-2.4-44-7.9zm520.4 40.23c-8.34-13.27-16.6-25.38-24.8-36.32-8.2-10.94-16.73-21.55-25.6-31.83-8.84-10.28-18.15-20.63-27.92-31.05-9.76-10.42-20.38-21.5-31.83-33.2-16.4-17.2-30.02-29.95-40.82-38.3-10.8-8.32-19.8-13.14-26.95-14.44-7.16-1.3-13.08.72-17.77 6.06-4.6 5.33-9.2 13.15-13.6 23.43-4.4 10.3-9.1 22.72-14 37.3-4.9 14.6-11.3 30.48-19.1 47.66-2.6 5.5-5.5 11.8-8.8 19-3.2 7.2-7.7 12.7-13.4 16.6-4.4 2.9-6.4 1.5-5.9-4.1.6-5.6 2.6-13.6 6.3-24s8.3-22.2 13.9-35.3c5.6-13.1 11.2-25.8 16.6-38.1 5.5-12.2 10.3-22.8 14.5-31.8 4.2-8.9 6.8-14.5 7.8-16.6 6.3-14.8 12.6-28.4 19.2-40.8 6.5-12.3 13-24.5 19.4-36.5 6.4-11.9 12.6-24.2 18.7-36.7 6.1-12.5 11.8-26.3 17-41.4 2.4-1.5 4.5-2 6.3-1.3 1.8.7 3.4 1.8 4.7 3.3 1.3 1.6 2.1 3.5 2.5 5.7.4 2.2.3 4.1-.2 5.7-1.5 3.2-4 8-7.2 14.7l-10.1 20.7c-3.5 7.2-6.8 14.1-9.9 20.7l-7 15.1-3.1 8c-1.5 4.1-2.1 7.4-1.5 10 7.6 1.6 17 .9 28.3-1.9 11.4-2.8 23.6-7 36.7-12.5 13.2-5.4 26.8-11.8 41-18.9 14.2-7.1 27.7-14.2 40.6-21.3 12.9-7 24.6-13.6 35.2-19.7s19.1-10.7 25.6-13.8c6.3-3.1 9.5-3.6 9.8-1.5.3 2.1-1.1 5.2-4.1 9.4-3 4.2-6.8 8.6-11.3 13.1-4.6 4.6-8.6 7.8-12 9.6-2.6 1.6-6.5 3.7-11.7 6.5-5.2 2.8-10.7 5.5-16.4 8.2l-15.6 7.6c-4.7 2.4-7.8 3.8-9.4 4.3-7 3.2-15.9 6.7-26.5 10.6-10.6 3.9-21.8 8.1-33.4 12.5-11.6 4.5-23 9.2-34.3 14.3-11.3 5.1-21.1 10.4-29.1 15.8-2.1 1.6-3.9 3.2-5.5 4.7-1.3 1.3-2.4 2.8-3.3 4.3-.9 1.6-.8 3 .2 4.3 3.9 2.4 9.9 7.1 18 14.1s17.2 15.4 27.4 25c10.1 9.6 20.9 20.3 32.2 32 11.3 11.7 22.3 23.6 33 35.6s20.5 23.7 29.3 35.2c8.9 11.5 15.9 21.8 21.3 31.1 5.3 9.2 8.4 17 9.2 23.2.8 6.3-1.7 10-7.4 11.3-.5-.2-1.3-.9-2.2-1.9-.9-1-1.6-1.8-2.2-2.3zm74.7-49.2c-.5-1.83-.58-4.37-.18-7.63.4-3.25.9-6.57 1.56-9.95.65-3.38 1.36-6.38 2.15-8.98.78-2.6 1.17-4.04 1.17-4.3l88.27-229.68c1.82-4.7 3.52-6.44 5.08-5.27 1.56 1.1 2.8 3.6 3.7 7.4.92 3.8 1.38 8 1.38 12.9s-.53 8.6-1.57 11.5c-8.33 19.8-16.73 39.6-25.2 59.5-8.46 19.9-16.53 39.9-24.2 60.1-7.68 20.2-14.9 40.5-21.68 60.9-6.77 20.4-12.5 41.2-17.2 62.3-2.07 1.3-3.83 1.8-5.26 1.5-1.43-.3-2.74-1-3.9-2.2-1.18-1.2-2.1-2.6-2.74-4.1-.65-1.6-1.1-3-1.37-4.3zm126.67 4.3c-1.56-1.32-1.17-2.75 1.17-4.3 2.6-9.4 5.28-18.36 8-26.95 2.75-8.6 5.68-17.13 8.8-25.6 3.13-8.45 6.45-17.05 9.96-25.77 3.52-8.73 7.23-17.9 11.14-27.54 1.3-2.34 1.1-4.75-.6-7.23-1.68-2.4-3.64-4.9-5.85-7.4-2.3-2.4-3.8-5.1-4.7-7.8-.9-2.7 0-5.5 2.9-8.4.2-.2 1.2-.6 2.9-1.1 1.7-.5 3.6-.9 5.6-1.3 2.1-.4 3.9-.8 5.6-1.1 1.7-.4 2.8-.7 3.3-1 .8-.5 2.3-1.9 4.5-4.1 2.2-2.2 3.6-3.7 4.1-4.5 4.1-7 8.1-13.2 11.9-18.7 3.8-5.4 7.3-10.9 10.5-16.4 3.2-5.4 6.2-11.2 8.8-17.2 2.6-5.9 4.9-13 7-21.1.8-3.1 0-5.1-2.2-6-2.2-.9-4.8-1.7-7.6-2.5-2.9-.8-5.2-2-7.1-3.7-1.8-1.7-2-4.9-.4-9.6 1-2.8 6-6 15-9.4 9-3.4 20.4-6.6 34.2-9.7 13.8-3.1 29.3-6 46.5-8.6 17.1-2.6 34.3-4.7 51.5-6.2 17.2-1.5 33.6-2.5 49.2-2.9 15.6-.4 28.9.1 39.9 1.6 10.9 1.4 18.8 3.9 23.4 7.4 4.7 3.5 4.5 8.4-.4 14.6-2.3.6-4.8.6-7.2.2-2.5-.4-5-.9-7.6-1.7-2.6-.8-5.4-1.5-8.2-2.1-2.9-.6-5.6-.8-8.2-.5-12.5 1.1-24.8 1.5-36.7 1.2-12-.2-24-.4-35.9-.4s-24 .5-36 1.4c-12 .9-24 3.1-35.9 6.5-8.3 2.4-15.7 6.5-22.2 12.3s-12.7 13.3-18.6 22.3c-5.9 9-11.7 19.4-17.6 31.1-5.9 11.8-12.4 24.6-19.7 38.7 2.8.8 8.2.3 16.2-1.5 7.9-1.8 17-4.1 27.3-6.8s21.2-5.4 32.6-8.2c11.4-2.7 22.2-4.7 32.2-5.8s18.8-1.1 26.3 0c7.6 1.2 12.6 4.3 15.2 9.2.3.6.4 1.3.4 2.4s-.1 1.7-.4 2c-13.8 2.1-28.1 4-42.8 5.7-14.7 1.7-29.3 3.8-43.8 6.4-14.5 2.6-28.6 6.1-42.4 10.4-13.8 4.3-26.9 10.1-39.1 17.4-9.9 17.5-18.8 35.4-26.6 53.9-7.9 18.5-14.8 37.3-20.7 56.3 7.5-2.6 16.3-5.1 26.3-7.6s19.7-4.8 28.9-6.8c9.2-2.1 17.3-3.7 24.2-5.1 6.9-1.3 11-2.1 12.3-2.3 22.2-3.4 43.4-6.1 63.9-8 20.4-2 41.7-2.3 63.9-1 1.8.5 3.1 1.6 3.9 3.1.8 1.5 1.3 3.3 1.5 5.2s.2 3.9 0 5.7-.5 3.2-.8 3.9c-28.4-1.5-56.6-.5-84.6 3.2-28 3.6-55.8 8.4-83.4 14.4-4.4 1-9.8 2.8-16.2 5.4-6.4 2.6-12.9 5-19.5 7-6.6 2.1-13 3.5-19.1 4.3-6.1.8-11.2-.2-15.4-3.1-1.1-.5-2-1.1-2.8-1.9-.8-.8-1.3-1.8-1.6-3.1zm357.9 4.67c-1.3-.52-4.37-1.95-9.2-4.3-4.8-2.34-9.3-5.07-13.45-8.2-4.17-3.12-7.1-6.38-8.8-9.76-1.68-3.3-.06-6.2 4.9-8.5 2.86 2.6 6.83 5.8 11.9 9.4 5.07 3.7 9.96 6.4 14.64 8.2 14.33.8 28.26.9 41.8.2 13.54-.6 26.76-2.3 39.65-5.1 12.9-2.7 25.4-6.8 37.5-12.4 12.1-5.6 23.9-12.9 35.4-22 12.8-10.7 21.2-20.5 25.2-29.5 4.1-9 4.8-17.3 2.4-25-2.4-7.7-7.5-14.8-15.2-21.5-7.7-6.6-16.8-12.9-27.3-18.7-10.5-5.9-21.8-11.3-33.7-16.4-12-5.1-23.4-10-34.3-14.8s-20.8-9.5-29.7-14.2c-8.8-4.7-15.3-9.5-19.5-14.4-1-4.4 1.2-9.6 6.7-15.6s13-12.2 22.7-18.6c9.6-6.4 20.7-12.7 33.2-19.1 12.5-6.4 25.3-12.2 38.5-17.4 13.2-5.2 25.9-9.6 38.3-13.3 12.4-3.6 23.3-5.9 32.6-6.8 9.4-.9 16.6-.2 21.5 2.1 5 2.4 6.7 6.8 5.1 13.3-1.8.3-6.5 1.4-14.1 3.5-7.5 2.1-16.7 4.7-27.5 7.8-10.8 3.1-22.5 6.8-35.2 11-12.6 4.2-25 8.5-37.3 13.1-12.2 4.6-23.5 9.2-34 13.9-10.4 4.7-18.6 9.3-24.6 13.7-6 4.4-9.3 8.5-9.9 12.1-.6 3.7 2.8 6.8 10.4 9.4 38 11.4 67.9 23.6 89.6 36.5 21.8 12.9 37.1 25.9 45.9 39.1 8.9 13.2 12.3 26.1 10.2 38.9-2.1 12.8-7.7 24.6-17 35.6-9.2 10.9-21.3 20.6-36.1 29.1s-30.5 15-47.1 19.7c-16.5 4.7-33.1 7.2-49.6 7.5-16.5.2-31.2-2.4-43.9-7.9z"/>
  <g fill="#50514F" fill-rule="nonzero">
    <path d="M292.07 1347.63c-9.38-7.56-15.76-17.32-19.13-29.3-3.4-11.98-4.56-25.26-3.52-39.85 1.04-14.57 3.78-29.87 8.2-45.88 4.42-16.02 9.7-31.77 15.82-47.27 6.12-15.5 12.63-30.27 19.53-44.34 6.9-14.1 13.28-26.5 19.14-37.1 5.9-10.7 10.8-19.2 14.9-25.4 4.1-6.3 6.3-9.3 6.9-9 2.1 1 3.5 2.4 4.3 4.1.8 1.7 1.3 3.6 1.4 5.6.2 2 .1 4.1-.2 6.2-.2 2.1-.5 4-.8 5.8l-2.3 4.5c-1.3 2.4-2 3.9-2.3 4.5-20.3 44.5-35.5 81.8-45.7 111.9-10.1 30.1-16.4 54.1-18.7 72-2.3 18-1.2 30.5 3.3 37.7 4.6 7.2 11.5 10 20.7 8.6 9.3-1.4 20.4-6.5 33.2-15.2 12.9-8.8 26.6-20 41.1-33.8 14.5-13.8 29.1-29.6 43.9-47.3 14.9-17.7 29-36.2 42.4-55.5 13.4-19.3 25.4-38.7 36-58.2 10.6-19.6 18.8-38.2 24.8-55.9.5-.6 1.2-1.4 2.2-2.6.9-1.2 1.6-1.8 2.1-1.8 7.3 4.9 10 13.3 8.2 25.2-1.8 11.8-6.8 25.7-15 41.5-8.2 15.9-19 33.1-32.4 51.5-13.4 18.4-28 36.7-43.8 54.6-15.7 17.9-31.9 34.9-48.6 50.9-16.7 16-32.5 29.5-47.6 40.4-15.1 10.9-28.6 18.7-40.4 23.2-11.8 4.5-20.9 4.3-27.1-.6zm213.27 0c-4.17-2.87-5.86-7.17-5.08-12.9.78-5.72 2.6-11.58 5.47-17.57 2.86-6.77 7.03-14.2 12.5-22.27 8.33-15.9 15.82-30.2 22.46-42.8 6.6-12.7 12.8-24.6 18.5-35.8 5.7-11.2 11.2-22 16.4-32.5 5.2-10.4 10.5-21.4 15.8-32.8 5.3-11.5 10.8-23.7 16.6-36.7 5.7-13 12.1-27.9 19.1-44.6.5-1.1 1.3-2.6 2.5-4.5 1.2-2 2.6-3.5 4.3-4.7 1.7-1.2 3.4-1.6 5.2-1.2 1.8.4 3.6 2.3 5.5 5.6 2.6 5.2 2.8 12.3.6 21.5-2.2 9.1-6.1 19.6-11.6 31.4-5.5 11.8-12 24.6-19.6 38.2-7.6 13.7-15.5 27.5-23.8 41.6-8.4 14-16.6 28-24.6 41.8-8.1 13.8-15.2 26.7-21.3 38.6-6.1 12-10.8 22.8-14.1 32.6-3.3 9.7-4.4 17.5-3.4 23.2 18.5 1.8 37.1 1.7 55.9-.4 18.7-2.1 37.5-4.6 56.2-7.6s37.6-5.7 56.4-8c18.9-2.4 37.7-2.9 56.4-1.6 3.4-.5 6.2.6 8.6 3.5 2.3 2.9 2.4 6 .4 9.4-.6 0-1.7-.1-3.4-.2-1.7-.2-3.5-.2-5.3-.2-1.8 0-3.6 0-5.3.2-1.7.1-2.9.2-3.7.2-14.6 1.3-31.6 3.5-51.2 6.8-19.5 3.2-39.7 6.3-60.5 9.2-20.8 2.8-41.6 5.1-62.3 6.6-20.7 1.5-39.4 1.4-56-.4-.3 0-1.5-.6-3.7-1.8s-3.7-2-4.5-2.5zm330.83 0c-1.56-6.5-1.5-14 .2-22.47 1.7-8.46 4.1-17 7.22-25.58 3.1-8.6 6.5-16.86 10.1-24.8l9-19.72c1.3-3.13 3.3-7.68 6-13.67 2.7-6 5.8-12.8 9.3-20.4 3.5-7.6 7.1-15.5 10.9-23.9 3.7-8.4 7.4-16.3 10.9-23.8 3.5-7.6 6.6-14.3 9.4-20.1l6-13.1c-4.5-.8-10.8-.4-19 1.2-8.2 1.5-17.3 3.5-27.2 6-9.9 2.5-20.1 5-30.5 7.6-10.4 2.6-20.1 4.5-29.1 5.6-9 1.2-16.7 1.3-23.1.4-6.4-.9-10.4-3.6-11.9-8 1.8-3.4 8.4-7.3 19.9-11.7 11.4-4.5 26.1-9.1 43.9-13.9 17.8-4.8 37.8-9.7 59.8-14.7s44.4-9.7 67.4-14.1c22.9-4.4 45.3-8.5 67.1-12.1 21.9-3.7 41.4-6.7 58.6-9 17.2-2.3 31-3.9 41.6-4.7 10.5-.8 16.1-.5 16.6.8.8 2.1.9 4.6.4 7.6s-2.2 4.9-5.1 5.7c-12.8 2-26.6 4.3-41.4 6.8s-29.9 5.1-45.1 7.8c-15.3 2.7-30.2 5.5-44.8 8.2-14.6 2.7-28.1 5.4-40.6 8-8.1 1.6-15.9 6.2-23.4 14-7.6 7.8-14.8 17.5-21.9 29.1-7 11.6-13.8 24.5-20.3 38.7-6.5 14.2-12.7 28.6-18.5 43.2-5.9 14.5-11.3 28.6-16.2 42.1-5 13.5-9.6 25.4-13.7 35.7-4.2 10.3-7.8 18.3-11 24-3.1 5.7-5.7 8-7.8 7l-4.3-4.3z"/>
    <path d="M990.07 1338.64c-.53-1.82-.6-4.36-.2-7.62.4-3.25.9-6.57 1.56-9.96.65-3.38 1.37-6.38 2.15-8.98.78-2.6 1.17-4.04 1.17-4.3l88.28-229.67c1.83-4.6 3.52-6.4 5.08-5.2 1.6 1.2 2.8 3.7 3.8 7.4.9 3.8 1.4 8.1 1.4 12.9 0 4.8-.5 8.7-1.5 11.5-8.3 19.8-16.7 39.7-25.2 59.6-8.4 19.9-16.5 40-24.2 60.2-7.6 20.2-14.9 40.5-21.6 61-6.7 20.5-12.5 41.2-17.2 62.3-2.1 1.3-3.8 1.9-5.2 1.6-1.4-.3-2.7-1-3.9-2.1s-2.1-2.5-2.7-4.1c-.7-1.6-1.1-3-1.4-4.3zM1367 1378.1c-.26-.27-.4-.98-.4-2.15 0-1.18.14-2.02.4-2.54.26-.5.78-2 1.56-4.6s1.7-5.3 2.74-8.2c1.04-2.8 1.95-5.6 2.73-8.2.78-2.6 1.3-4.3 1.56-5.1 7.5-24.2 14.1-45.9 19.9-65 5.7-19.1 11.2-37.8 16.4-56 5.2-18.2 10.3-37 15.4-56.4s10.7-41.4 17-66.2v-8.6c-7.6-2.6-15.7-2.3-24.4.8-8.8 3.1-17.7 8.2-26.8 15.3-9.1 7.1-18.4 15.5-27.7 25.2-9.4 9.8-18.5 20.1-27.4 30.9-8.9 10.8-17.5 21.5-25.8 32.1s-16 20.2-23.1 28.9c-7.1 8.7-13.4 15.9-19 21.5s-10.1 8.8-13.5 9.6c-2.4.5-5.2.2-8.6-.9-3.4-1.2-5.1-2.5-5.1-3.8V1228c.8-2.88 1.9-7.4 3.3-13.7 1.4-6.23 3-13.26 4.6-21.1 1.7-7.8 3.5-16 5.5-24.6 1.9-8.6 3.7-16.8 5.4-24.6 1.7-7.8 3.2-14.8 4.5-20.9 1.3-6.1 2.3-10.7 3.1-13.85 1.3-6 2.5-11.9 3.7-17.6 1.2-5.73 1.4-11.7.6-17.97-7.8-2.6-16.2-.6-25 6.06-8.9 6.66-17.9 16.36-27.2 29.1-9.3 12.78-18.6 27.6-27.9 44.54-9.4 16.9-18.5 34.38-27.4 52.35-8.9 17.95-17.4 35.66-25.6 53.1-8.2 17.43-15.7 32.86-22.5 46.3-6.8 13.4-12.7 24.1-17.8 32-5.1 7.94-9.1 11.4-11.9 10.34-3.7-1.04-5-5.33-4.1-12.9.9-7.54 3.4-17.1 7.6-28.7 4.2-11.6 9.5-24.74 16-39.45 6.5-14.7 13.6-29.86 21.3-45.5 7.7-15.6 15.6-31.24 23.6-46.86 8.1-15.6 15.7-30.07 23-43.35 7.3-13.3 13.7-24.9 19.3-35l12.3-22c5.4 2.1 10.3 2.8 14.4 2.2 4.1-.7 8-2 11.7-4.1 3.6-2.1 7.2-4.6 10.7-7.4 3.5-2.9 7.5-5.6 11.9-8.2 9.4-5.7 16.8-8.2 22.3-7.4 5.4.8 9.4 3.6 11.9 8.6 2.5 4.9 3.7 11.6 3.7 20.1 0 8.5-.7 17.7-2 27.6-1.3 9.9-3 20-5.2 30.3s-4.4 19.8-6.5 28.6l-5.3 22.3c-1.5 6.2-2.1 10-1.8 11.6 2.1 1.1 3.8 1 5.3-.4 1.4-1.3 2.6-2.6 3.7-3.9.8-1.3 2.7-3.7 5.7-7.4 3-3.6 6.4-7.9 10.3-12.7l12.5-15.4c4.4-5.4 8.6-10.6 12.7-15.4 4-4.8 7.5-9 10.3-12.7 2.9-3.6 4.8-6.1 5.9-7.4 22.6-18 41.8-31.3 57.6-40s28.5-13.6 38.3-14.6c9.8-1.1 16.9 1.3 21.3 7 4.4 5.8 6.8 13.9 7 24.4.2 10.6-1.3 23.2-4.7 37.9-3.4 14.7-8 30.6-13.7 47.5-.8 2.4-2.3 7.3-4.5 14.7s-4.9 16.1-8 26.2c-3.2 10-6.4 20.6-9.6 31.8-3.3 11.2-6.5 21.8-9.6 31.9-3.2 10-5.8 18.7-8 26.1-2.3 7.4-3.7 12.3-4.5 14.7 0 .2-.3 1.9-.8 5s-1.4 6.8-2.6 11.1c-1.2 4.3-2.6 8.8-4.1 13.7-1.6 4.9-3.5 9.2-5.9 13.1-2.3 3.9-5 6.9-8 9-3 2.1-6.3 2.5-10 1.2-.3 0-.9-.6-1.9-1.8-1.1-1.2-1.7-2-2-2.6zm70.7 46.08c-.8-.52-2.03-1.76-3.72-3.7-1.7-1.97-3.06-3.98-4.1-6.07-1.04-2-1.5-3.9-1.37-5.4.2-1.5 1.7-2.3 4.5-2.3 5.5 7.6 13.2 10.5 23.1 8.6 9.9-1.8 20.6-6.3 32.1-13.4 11.5-7.1 23.1-16.1 35-26.9 11.9-10.8 22.5-21.5 32-32.2 9.5-10.7 17.4-20.3 23.5-28.9 6.2-8.6 9.2-14.3 9.2-17.2 0-.8-1-2-3.1-3.7-2.1-1.7-4.5-3.4-7.2-5.3l-7.6-5c-2.3-1.5-3.7-2.7-4.3-3.5.8-2.6 3.2-4.6 7.4-6 4.2-1.4 8.9-2.7 14.1-3.9l15.4-3.5c5.1-1.1 8.9-2.6 11.5-4.5 13.8-20 25.9-38.1 36.2-54.1 10.3-16 20-31.8 29.3-47.2 9.3-15.5 18.7-31.4 28.4-47.8 9.6-16.4 20.7-34.9 33.2-55.4 3.4-5.7 6.1-7.7 8.2-5.8 2.1 1.8 3.7 6.3 4.7 13.3 1 7 1.7 15.9 1.9 26.8.3 10.8.3 22.5 0 35s-.7 25.3-1.3 38.3c-.7 13-1.3 25-2 36-.6 10.9-1.2 20.4-1.6 28.3-.4 8-.4 13.1-.2 15.5 1.1 13.3 1.8 24.8 2.2 34.6.4 9.8 1.7 18.8 3.8 27s5.7 16.2 10.7 23.9c5.1 7.7 12.9 16.1 23.3 25.2-8.6 2.9-15.7 2.7-21.3-.6-5.6-3.2-10.1-8.2-13.6-14.8-3.5-6.6-6.4-14.3-8.6-23.1-2.2-8.7-4.3-17.2-6.2-25.4-1.9-8.2-4.2-15.3-6.6-21.4-2.4-6.1-5.8-10.1-9.9-11.9-.2 0-1 0-2.1-.2s-2.5-.2-3.9-.2-2.8.1-4.1.2c-1.3.2-2.2.2-2.7.2-2.3.5-6.7 1.6-13.1 3.1-6.4 1.6-13.3 3.3-20.9 5.1-7.5 1.8-14.7 3.6-21.6 5.5l-15 3.9c-6.5 1.8-13.3 6-20.5 12.5s-14.7 14.4-22.6 23.6c-8 9.2-16.2 19.3-24.6 30.2-8.5 10.9-17.2 21.6-26 32-8.9 10.4-17.8 20-27 28.9-9.1 8.8-18.3 16-27.4 21.5-9.1 5.5-18.3 8.5-27.6 9.2-9.2.6-18.3-2-27.1-8zm211.7-171.86c.52.26 1.9.4 4.1.4 2.22 0 3.7-.14 4.5-.4 4.68-.78 10.53-1.7 17.56-2.73 7.03-1.1 14.06-2.3 21.1-3.8 7.03-1.5 13.54-3.2 19.53-5.1 5.9-2 10.1-4.1 12.5-6.5l1.1-8.2c.8-5.5 1.7-12.5 2.7-20.9l3.3-28.1c1.2-10.3 2.3-20.4 3.3-30.3 1-9.9 1.9-19.1 2.5-27.5.6-8.5 1.1-15.1 1.3-19.8-2.9-1.3-6.7 2-11.4 9.9s-10.8 18.8-18.2 32.6-16.4 29.9-26.9 48.2c-10.6 18.3-23 37.4-37.3 57.2v4.7zm217.56 95.3c-1.56-6.5-1.5-14 .2-22.46s4.1-17 7.22-25.58c3.13-8.6 6.5-16.86 10.16-24.8 3.64-7.95 6.64-14.5 8.98-19.72 1.3-3.13 3.32-7.68 6.06-13.67 2.73-6 5.86-12.8 9.37-20.4 3.52-7.6 7.16-15.5 10.94-23.9 3.7-8.4 7.4-16.3 10.9-23.8l9.3-20.1 6-13.1c-4.4-.8-10.8-.4-19 1.2-8.2 1.5-17.3 3.5-27.2 6-9.9 2.5-20.1 5-30.5 7.6-10.5 2.6-20.2 4.5-29.1 5.6-9 1.2-16.7 1.3-23.1.4-6.4-.9-10.4-3.6-11.9-8 1.8-3.4 8.4-7.3 19.9-11.7 11.4-4.5 26.1-9.1 43.9-13.9 17.8-4.8 37.7-9.7 59.7-14.7s44.4-9.7 67.4-14.1c22.9-4.4 45.3-8.5 67.1-12.1 21.9-3.7 41.4-6.7 58.6-9 17.2-2.3 31.1-3.9 41.6-4.7 10.6-.8 16.1-.5 16.6.8.8 2.1.9 4.6.4 7.6s-2.2 4.9-5.1 5.7c-12.7 2-26.5 4.3-41.4 6.8-14.8 2.5-29.9 5.1-45.1 7.8-15.2 2.7-30.1 5.5-44.7 8.2-14.6 2.7-28.1 5.4-40.6 8-8.1 1.6-15.9 6.2-23.4 14-7.6 7.8-14.9 17.5-21.9 29.1-7.1 11.6-13.8 24.5-20.3 38.7-6.5 14.2-12.7 28.6-18.6 43.2-5.8 14.5-11.2 28.6-16.2 42.1-4.9 13.5-9.5 25.4-13.7 35.7-4.2 10.3-7.8 18.3-10.9 24-3.2 5.7-5.8 8-7.8 7l-4.3-4.3z"/>
    <path d="M2023.6 1342.94c-1.57-1.3-1.18-2.74 1.16-4.3 2.6-9.37 5.27-18.36 8-26.95 2.74-8.6 5.67-17.2 8.8-25.6 3.12-8.5 6.44-17.1 9.96-25.8 3.5-8.7 7.23-17.9 11.13-27.6 1.3-2.4 1.1-4.8-.58-7.3-1.7-2.5-3.65-5-5.86-7.5-2.2-2.5-3.7-5.1-4.6-7.8-.9-2.8.1-5.6 3-8.4.3-.3 1.3-.7 3-1.2 1.7-.6 3.6-1 5.7-1.4 2.1-.4 4-.8 5.7-1.2 1.7-.4 2.8-.7 3.4-1 .8-.5 2.3-1.9 4.5-4.1 2.2-2.2 3.6-3.7 4.1-4.5 4.1-7 8.1-13.3 11.9-18.7 3.8-5.5 7.3-11 10.5-16.4 3.3-5.5 6.2-11.2 8.8-17.2 2.6-6 4.9-13 7-21.1.8-3.2.1-5.2-2.1-6.1-2.2-.9-4.7-1.8-7.6-2.5-2.9-.8-5.2-2.1-7-3.7-1.8-1.7-1.9-4.9-.4-9.6 1.1-2.9 6.1-6 15.1-9.4 9-3.4 20.4-6.7 34.2-9.8s29.3-6 46.5-8.6c17.2-2.6 34.4-4.7 51.6-6.3 17.2-1.5 33.6-2.5 49.2-2.9 15.6-.4 28.9.1 39.9 1.6 11 1.4 18.8 3.9 23.5 7.4 4.7 3.5 4.6 8.4-.4 14.6-2.3.5-4.7.6-7.2.2-2.5-.4-5-1-7.6-1.8-2.6-.8-5.3-1.5-8.2-2.2-2.9-.7-5.6-.9-8.2-.6-12.5 1-24.8 1.4-36.7 1.1-12-.3-24-.4-36-.4s-23.9.5-35.9 1.4c-12 .9-24 3-35.9 6.4-8.4 2.3-15.8 6.4-22.3 12.3s-12.7 13.3-18.6 22.3c-5.8 9-11.7 19.3-17.6 31-5.9 11.7-12.4 24.6-19.7 38.6 2.9.8 8.3.3 16.2-1.5 8-1.8 17.1-4.1 27.4-6.9 10.3-2.7 21.2-5.5 32.6-8.2 11.5-2.7 22.2-4.7 32.3-5.8 10-1.2 18.8-1.2 26.4 0 7.6 1.1 12.6 4.2 15.2 9.2.3.5.4 1.3.4 2.3 0 1-.1 1.7-.4 2-13.8 2-28 3.9-42.7 5.6-14.7 1.7-29.3 3.8-43.8 6.4-14.4 2.6-28.5 6.1-42.3 10.4s-26.8 10.1-39.1 17.4c-9.9 17.4-18.7 35.4-26.5 53.9-7.8 18.5-14.7 37.2-20.7 56.2 7.5-2.6 16.3-5.2 26.4-7.6 10-2.5 19.7-4.7 28.9-6.8 9.2-2.1 17.3-3.8 24.2-5.1 6.9-1.3 11-2.1 12.3-2.4 22.1-3.4 43.4-6.1 63.9-8 20.4-2 41.7-2.3 63.9-1 1.8.5 3.1 1.5 3.9 3.1.8 1.6 1.3 3.3 1.6 5.3.3 1.9.3 3.8 0 5.6-.2 1.8-.5 3.1-.76 3.9-28.4-1.6-56.6-.5-84.6 3.1-28 3.6-55.8 8.4-83.4 14.4-4.4 1.1-9.8 2.9-16.2 5.5-6.4 2.6-12.9 4.9-19.5 7-6.66 2.1-13.04 3.5-19.16 4.3-6.1.8-11.3-.3-15.45-3.1-1.04-.5-2-1.2-2.73-2s-1.3-1.9-1.5-3.2z"/>
  </g>
  <path fill="#209ADC" fill-rule="nonzero" d="M2036.93 1842.4c-2.34-1.77-3.98-3.5-4.92-5.14-.9-1.67-1.4-3.44-1.4-5.32 0-1.87.4-3.95 1.1-6.25l2.5-8 1.4-3.9c.7-2 1.5-4.2 2.4-6.8.9-2.6 1.9-5.4 3-8.2 1.1-2.9 2.1-5.6 3-8.2l2.4-6.8c.7-2 1.1-3.2 1.4-3.9 1-2.9 1.5-5.5 1.4-7.8-.1-2.3-.3-4.4-.6-6.4-.2-2-.3-3.9-.3-5.8.1-1.9.8-4 2.2-6.4.3-.3.8-1 1.6-2.2l2.5-3.7 2.5-3.6c.8-1.1 1.3-1.8 1.4-2.1.4-.7 1.5-1.7 3.4-3.2 1.9-1.5 4.1-3.1 6.8-4.8 2.7-1.7 5.6-3.5 8.9-5.3 3.3-1.8 6.5-3.5 9.7-4.9 3.2-1.4 6.3-2.5 9.3-3.2 3-.7 5.5-.9 7.6-.6 2.2.3 3.7 1.3 4.7 2.9 1 1.7 1.1 4.2.4 7.6-1.2 5.6-3.1 10.6-5.7 14.9-2.6 4.2-5.4 8-8.3 11.4-2.9 3.3-5.7 6.3-8.3 8.9-2.6 2.6-4.5 5-5.8 7.3 9.4.4 16.2 1.9 20.6 4.5 4.3 2.6 6.8 5.9 7.4 9.8.6 3.9-.3 8.3-2.8 13.2-2.5 4.8-6 9.6-10.3 14.4-4.4 4.7-9.4 9.2-14.9 13.4-5.6 4.2-11.1 7.7-16.6 10.4-5.5 2.7-10.7 4.4-15.5 5.1-4.8.7-8.6.1-11.4-2zm9.26-37.8c-1.5 2.4-2.9 5.03-4.1 7.9-1.3 2.86-2.2 5.67-2.9 8.43-.7 2.76-1 5.36-.9 7.8.1 2.46.6 4.44 1.7 5.95 1.1 1.5 2.7 2.42 4.9 2.73 2.2.4 5.2-.2 8.9-1.7 8.3-2.5 15.5-5.6 21.6-9.5 6.1-3.8 11.2-7.9 15.2-12.1 4-4.2 7-8.4 8.9-12.6 1.9-4.1 2.8-7.8 2.7-11-.2-3.2-1.3-5.6-3.4-7.2s-5.3-2.1-9.4-1.5c-4.1.7-9.1 2.9-15.1 6.5s-12.9 9.1-20.7 16.5c-.9 1-1.7 1.4-2.4 1.4s-1.4-.2-2-.6c-.7-.3-1.2-.7-1.8-1-.6-.3-1.1-.2-1.8.3zm2.5-13.12c0 .3 0 .78-.1 1.4-.1.63-.1 1.28-.1 1.96v1.95c0 .6.1 1 .1 1.4.6-.2 1.9-1.2 3.8-3s4.3-4.1 7.1-6.9c2.8-2.8 5.8-6 9.1-9.6 3.3-3.6 6.6-7.4 9.9-11.3 3.3-3.9 6.5-7.8 9.5-11.8 3-3.9 5.6-7.6 7.8-11 2.2-3.5 3.8-6.5 5-9.2 1.1-2.7 1.4-4.8 1-6.2-3.5-.6-7.1-.3-10.9.8-3.8 1.2-7.5 2.9-11.2 5.2-3.6 2.3-7 4.9-10.1 7.9-3.2 3-5.8 5.8-7.9 8.7-.5 1.3-1.3 3.7-2.3 7.2-1.1 3.4-2.3 7-3.6 10.9l-3.6 10.8-2.4 7.1c0 .2-.2.7-.6 1.6l-.7 1.6zm65.7 47.8c-.5-.52-.4-1.1.3-1.7.8-3.76 1.6-7.35 2.4-10.8.8-3.43 1.7-6.84 2.6-10.23.9-3.38 1.9-6.82 2.9-10.3l3.3-11.02c.4-.94.3-1.9-.2-2.9-.5-.98-1.1-1.97-1.8-2.96-.7-1-1.2-2.03-1.4-3.13s0-2.2.9-3.36c0-.1.3-.26.8-.47.5-.2 1-.3 1.7-.5l1.7-.4c.5-.1.8-.3 1-.4.2-.2.6-.7 1.3-1.6.7-.9 1.1-1.5 1.2-1.8 1.2-2.8 2.4-5.3 3.6-7.5 1.1-2.2 2.2-4.3 3.1-6.5 1-2.2 1.8-4.4 2.6-6.8.7-2.4 1.4-5.2 2.1-8.4.2-1.2 0-2-.7-2.4-.7-.3-1.5-.7-2.3-1-.9-.3-1.6-.8-2.1-1.5-.6-.6-.6-1.9-.1-3.8.3-1.1 1.8-2.4 4.5-3.7 2.7-1.4 6.1-2.7 10.2-3.9 4.1-1.3 8.8-2.4 13.9-3.5 5.1-1 10.3-1.9 15.4-2.5 5.1-.6 10.1-1 14.7-1.2 4.6-.1 8.6.1 11.9.6 3.3.6 5.6 1.6 7 3 1.4 1.4 1.4 3.4-.1 5.9-.7.2-1.4.2-2.2.1-.8-.1-1.5-.3-2.3-.7-.8-.3-1.6-.6-2.5-.8-.9-.2-1.7-.3-2.5-.2-3.7.4-7.4.6-11 .5-3.6-.1-7.2-.1-10.8-.1-3.6 0-7.2.2-10.8.6-3.6.4-7.2 1.2-10.8 2.6-2.5.9-4.7 2.6-6.7 4.9-2 2.4-3.8 5.3-5.6 8.9-1.7 3.6-3.5 7.7-5.3 12.4s-3.8 9.9-5.9 15.5c.9.3 2.5.1 4.9-.6 2.4-.7 5.1-1.6 8.2-2.7 3.1-1.1 6.4-2.2 9.8-3.3 3.4-1.1 6.7-1.9 9.7-2.3 3-.5 5.6-.5 7.9 0 2.3.5 3.8 1.7 4.6 3.7 0 .2.1.5.1.9s-.1.7-.2.8c-4.2.8-8.4 1.6-12.8 2.3-4.5.7-8.8 1.6-13.2 2.6s-8.6 2.5-12.7 4.2c-4.2 1.7-8.1 4.1-11.7 7-3 7-5.7 14.2-8 21.6-2.4 7.4-4.4 14.9-6.2 22.5 2.2-1 4.9-2 7.9-3s5.9-1.9 8.7-2.7c2.7-.8 5.2-1.5 7.2-2l3.7-.9c6.6-1.4 13-2.4 19.1-3.2 6.1-.8 12.5-.9 19.1-.4.5.2.9.6 1.2 1.2.2.6.4 1.3.4 2.1.1.8.1 1.6 0 2.3 0 .7-.1 1.3-.2 1.6-8.5-.6-17-.2-25.4 1.3-8.4 1.5-16.7 3.4-25 5.8-1.3.4-2.9 1.2-4.8 2.2-1.9 1-3.9 2-5.9 2.8-2 .8-3.9 1.4-5.8 1.7-1.8.3-3.4-.1-4.6-1.2-.3-.2-.6-.5-.8-.8-.3-.3-.4-.7-.5-1.3zm87.4 1.87c-.6-2.4-.3-6.1 1-11.16 1.3-5.1 3.1-10.8 5.4-17.2 2.3-6.4 4.8-13.1 7.7-20s5.4-13.3 7.8-19.3c2.4-6 4.3-11.1 5.9-15.3 1.5-4.3 2.1-6.9 1.8-8.1-1-.4-2-.3-3 .4l-3.2 2.2c-1.1.7-2.1 1.1-3.1 1.2-1 .1-1.9-.6-2.7-2.2-.4-.7-.5-1.4-.4-2.1.1-.7.3-1.3.7-2 .3-.6.7-1.2 1.2-1.7l1.1-1.2c8.9-7.8 17.3-13.9 25.4-18.3 8-4.4 15.2-7.4 21.5-8.9 6.4-1.6 11.7-1.9 16.1-1 4.3.9 7.3 2.8 8.9 5.7 1.6 2.9 1.7 6.6.3 11.1-1.5 4.5-4.8 9.6-10 15.2s-12.5 11.6-22 18c-9.4 6.4-21.2 12.9-35.5 19.6-.8 1.7-.6 3.5.6 5.6 1.2 2.1 3 4.3 5.4 6.8 2.4 2.4 5.2 4.9 8.4 7.5l9.9 7.9c3.3 2.7 6.4 5.3 9.5 7.8 3 2.6 5.4 5 7.4 7.3 1.9 2.3 3.2 4.4 3.8 6.4.6 2 0 3.7-1.6 5.2-.1.1-.6-.3-1.5-1.2-.9-.9-2-2.1-3.4-3.5l-4.3-4.6-4.3-4.7-3.6-3.7-1.7-1.9-14.1-11.7c-4.7-3.8-9.2-8.2-13.7-13-1.5-.6-3 .4-4.4 3.1-1.5 2.7-2.9 6.2-4.3 10.4s-2.8 8.7-4.2 13.4c-1.4 4.8-2.7 8.9-3.8 12.4-1.2 3.4-2.3 5.8-3.2 7.1-1 1.3-1.8.5-2.5-2.3zm27.9-65.14c1.7.8 4 .7 7-.1 2.9-.8 6.1-2.2 9.7-4.2 3.5-2 7.2-4.3 11.1-7.2 3.8-2.8 7.5-5.7 11.1-8.8 3.5-3.1 6.7-6.2 9.6-9.3 2.9-3.1 5.2-6 6.8-8.7 1.6-2.6 2.5-4.9 2.6-6.8.1-1.8-.9-3-2.9-3.6-8.5-.2-15.7.4-21.6 1.7-6 1.3-11 3.8-15.3 7.3-4.2 3.6-7.8 8.4-10.7 14.6-2.9 6.2-5.5 14-7.7 23.5v1.9zm53.9 65.2c-1.3-1.1-1.8-2.8-1.5-5.1.2-2.2.7-4.6 1.6-7 .8-2.7 2.1-5.7 3.7-8.9l6.7-17.1c2-5 3.8-9.8 5.5-14.3l4.9-12.9c1.5-4.1 3.1-8.5 4.7-13.1s3.2-9.5 4.9-14.7c1.7-5.2 3.6-11.1 5.7-17.8.1-.4.4-1 .7-1.8.4-.8.8-1.4 1.3-1.9.5-.4 1-.6 1.6-.4.5.2 1.1.9 1.6 2.3.8 2.1.9 4.9.2 8.6-.7 3.6-1.8 7.8-3.5 12.6-1.6 4.8-3.6 9.9-5.9 15.3-2.3 5.5-4.7 11-7.2 16.7-2.5 5.6-5 11.2-7.4 16.7s-4.6 10.7-6.4 15.5c-1.8 4.8-3.2 9.2-4.2 13.1-1 3.9-1.3 7-1 9.3 5.5.7 11.1.7 16.7-.2 5.6-.8 11.3-1.8 16.9-3 5.6-1.2 11.3-2.3 17-3.2 5.7-.9 11.3-1.1 16.9-.6 1-.2 1.9.3 2.6 1.4.7 1.2.7 2.4.1 3.8-.2 0-.5 0-1-.1s-1.1-.1-1.6-.1c-.6 0-1.1.1-1.6.1s-.9.1-1.1.1c-4.4.5-9.5 1.5-15.4 2.8-5.9 1.3-11.9 2.5-18.2 3.7-6.3 1.1-12.5 2-18.7 2.6-6.2.6-11.8.6-16.8-.1-.1 0-.5-.2-1.1-.7-.7-.4-1.1-.8-1.4-1zm80-3.6c-.2-.7-.2-1.7-.1-3s.2-2.6.4-4c.2-1.3.4-2.5.6-3.6.2-1 .3-1.6.3-1.7l26.5-91.9c.5-1.8 1-2.5 1.5-2.1.4.5.8 1.5 1.1 3 .3 1.6.4 3.3.4 5.2 0 2-.2 3.5-.5 4.6-2.5 8-5 15.9-7.6 23.9-2.5 8-5 16-7.3 24.1-2.3 8.1-4.5 16.2-6.5 24.4-2.1 8.2-3.8 16.5-5.2 24.9-.6.6-1.2.8-1.6.7-.4-.1-.8-.4-1.2-.9s-.6-1-.8-1.6c-.2-.6-.3-1.2-.4-1.7zm25.8 1.7c.5-3.2 1.5-6.8 2.8-10.7 1.3-3.9 2.8-7.8 4.5-11.7 1.6-3.8 3.2-7.5 4.8-11 1.5-3.5 2.8-6.4 3.7-8.8l2.2-5.7 3.3-8.7c1.2-3.3 2.4-6.7 3.8-10.2s2.6-6.9 3.8-10.2c1.2-3.3 2.3-6.2 3.2-8.7 1-2.6 1.7-4.5 2.2-5.7 2.4-3.3 4.4-4.3 6-2.8 1.6 1.4 3 4.4 4.3 8.9s2.4 10 3.4 16.6c1 6.6 2.1 13.3 3.3 20.2 1.1 6.9 2.4 13.4 3.9 19.7 1.5 6.2 3.3 11.3 5.4 15.2 1 .6 2.2 0 3.7-2 1.4-2 3-4.8 4.7-8.7 1.7-3.8 3.5-8.2 5.4-13.3 1.8-5.1 3.7-10.4 5.6-16.1 1.9-5.6 3.8-11.3 5.6-17 1.8-5.7 3.4-11 5-15.8 1.5-4.8 2.9-9.1 4-12.7 1.1-3.6 2-6.2 2.6-7.6.6-1.4 1.1-2 1.7-2 .6 0 1.1.5 1.5 1.2.4.8.7 1.8.9 3 .2 1.2.1 2.3-.1 3.2-2.5 9.1-4.9 17.2-7.1 24.5-2.2 7.3-4.5 14.3-6.8 21.1-2.3 6.8-4.8 13.7-7.4 20.7-2.6 7.1-5.6 14.9-9 23.4-2.5 4.1-4.9 6.3-7.3 6.8s-4.8-1.8-7.3-6.8c-2.6-6-4.6-11.8-6.1-17.2-1.5-5.4-2.8-10.7-3.8-16-1.1-5.3-2-10.6-2.9-16.1-.9-5.5-1.9-11.4-3.2-17.7-.7-.6-1.9.5-3.5 3.3s-3.6 6.6-5.7 11.2c-2.2 4.7-4.4 10-6.8 15.8-2.4 5.8-4.6 11.5-6.7 16.9-2.1 5.4-4 10.3-5.6 14.5-1.7 4.3-2.8 7.3-3.5 8.9l-1.5 3.5-1.8 4.1-1.5 3.5-.7 1.4h-4c-.1-.2-.1-.8-.1-1.7 0-.9 0-1.5.1-1.8z"/>
  <path fill="#fff" stroke="#209ADC" stroke-width="4.98" d="M2484.88 844.27v.1c-.67 0-1.3.33-1.93.72V899l-.4 2.9-.47 104.47-1.64 11.8.3 89.96-.83 9.1v20.96l-2.4 12.2h-14.9v5h2.6v62.1h-2.5l-1 4.6c-15.8 8.5-26.6 25.2-26.6 44.4 0 22.9 16.6 41.9 37.6 47.9 0 2.9.1 4.6 0 7.5h-4.8v7.4h5v2.4h-4.9v7.5h5c-1.9 161.8-12.8 327.9-18.3 489.5-.1 0 11.8-7.7 28-8.7 9.2-.5 19.8.9 30.3 7.3-5.5-161.6-13-326.4-14.9-488.3h5v-7.5h-5.1v-2.4h5v-7.5h-5v-7.5c21.1-6.1 37.5-25 37.5-48 0-19.2-10.8-35.9-26.6-44.5l-1-4.6h-2.5v-62h2.5v-5H2493l-2.4-12.2v-21l-.8-9.1.3-90-1.63-11.8-.5-104.5-.36-2.9V845c-.6-.4-1.3-.64-1.9-.73v-.1h-.2z"/>
  <path fill="#4F504E" fill-rule="nonzero" d="M1230.65 576.73c-.35-10.94-11.96-15.83-20.42-20.25-9.5 28-32.88 47.77-55.9 65.4-65.08 48.5-140.86 81.05-217.4 108.22-15.13 4.63-30.45 8.63-45.9 12.25-28.73 3.27-59.3 9.8-86.56-3.5.18 7.84.67 15.67 1.06 23.5 12.36 9.56 27.57 14.38 43.36 13.38 56.7 3.3 111.2-15.62 163.9-33.73 30.5-13.4 62.2-24.62 90.6-42.04 38.7-21.7 77.1-45.73 107-78.46 10.7-12.6 23.2-27.1 20.1-44.77z"/>
  <path fill="#4F504E" fill-rule="nonzero" d="M1174.52 567.8c-9.88-2.6-19.58-8.94-30.16-6.7-7.54 1.5-15 3.5-22.72 4.28-27.3 2.6-53.77 10.42-79.2 20.1-44.86 16.7-89.95 33.84-130.87 58.64-26.05 15.07-52.73 30.52-72.87 53-5.45 5.84-7.22 13.74-9.88 20.9 22.1 7.4 45.94 3.8 68.5.53 58.67-12.83 114.63-35.63 167.83-62.67 35.18-16.9 69.1-37.25 96.9-64.46 6.45-6.55 11.9-14.3 12.47-23.63z"/>
  <g fill-rule="nonzero">
    <path fill="#4F504E" d="M441.23 22c10.04 7.73 21 14.83 34.27 10.77l11.9 10.72c3-3.5 8.96-10.4 11.95-13.9 1.17 4.7 3.48 14.3 4.6 19 8.13-4.4 16.05-9.3 24.15-13.9 4.3 6.9 6.7 15.5 13.2 20.8 8.8 3.6 18.06 5.8 27.2 8.3.9 3.2 2.6 9.8 3.44 13 10.58.3 21.1.3 31.68.3 2.5 5.5 1.37 13.6 6.8 17.4 11.12 3.6 22.72 5.5 34.18 7.7-2.8 5-5.4 10.1-7.8 15.3 4.87 8.3 13.15 13.9 19.56 20.9 19.2-8.8 38.3-17.8 57.48-26.5 14.6-1.4 29.04-3.9 43.38-6.6-9.5 43.1-43.62 74-71.1 106.4 6.77 28.2 23.56 57 14.3 86.6-4.6 15-1.32 31.7-9.44 45.8-7.7-16.6-13.33-35.6-28.9-46.8-.4-14 .24-30-12.4-39.3-5.42.1-10.86.2-16.24.2-6.37 6.1-12.54 12.2-18.5 18.6-1.53 16.9-5.74 33.3-6.82 50.3-1.9.1-5.82.3-7.73.5-.6-16.7-2.7-33.2-5.6-49.6-6.6-7-12.3-14.9-20.2-20.3-10.1-2.5-20.6-1.3-30.8-.9-28.9 41.6-82.2 48.9-128.1 58.6-21.6 3.1-33.5 22.9-47 37.7l.2 13c-4.1 3.8-8.1 7.5-12.2 11.4-13.9 8.3-41.8 10.9-36.1 33.1 10.4 24 2.9 50.7-5.1 74.2-17.3 22.7-37 43.6-53.1 67.3-18.1-19.5-30.5-43.3-38-68.7l-4.9-2.2c-3.2 9.1-9.1 8.7-15.5 2.6l-8.6-2.8c-10.3-11.6-20.6-23.2-33.2-32.3-15.6 27.5-32.7 54.2-52.9 78.6 1.2 6.8 2.4 13.6 3.7 20.4 1 16.2.9 32.7 4.5 48.7 1.6 10.1 2.5 20.5.6 30.8-5.8-7.2-11-14.8-15.5-22.9-2.7-5.7-6.3-10.7-10.2-15.5-1.6 14.6-2.3 29.5-7 43.5-9.1 27.1-10.7 56-17.6 83.7-5.9-15.2-8.7-31.3-11.9-47.2-.5 20.5-.6 41.1-4.2 61.5C54 742 62 753 57.4 765.1c2.4 4.3 4.9 8.6 7.5 12.9 1.1 20.8-1.1 41.7 1.4 62.5 2.8.3 8.6.8 11.4 1-2.9 9.1-7 17.8-11.9 26 8.7 4.2 13.6 12.14 17.5 20.6 6.1.35 12.3.15 18.3 1.4.2 21.3 8.4 41.1 10.1 62.2 5.7-4.5 11.2-9.25 16.8-13.9 2.8 18.95 5.42 37.95 6.7 57.1 3.93 16.2 2.7 33.8 11.7 48.4 1.1 8.35 2 16.7 2.8 25.1l7.3 13.45c1.42 12.8 3.14 26.1-4.3 37.64l13.6-.6c3.05 25.7 13.4 49.6 19.2 74.6 5.05 24.3 5.35 49.1 8.3 73.7 3.96-3.2 8-6.5 12.04-9.6 9.2 22.6 15.9 46.7 31.9 65.8 14.24 22.9 34.7 42.8 42.74 69.1 3 2.3 6 4.6 9.04 7 5.53 21.8 11.16 44.4 26.1 62 24.13 26.9 42.15 58.7 66.9 85.2 6.4 24.4 21 46.3 35.3 66.9 31.9 21 67.04 37.3 96.9 61.5l7.2 16.4c-32.7-16.6-65.8-32.4-98-49.9-15.45-24-29.8-48.5-45.07-72.6-17.3-19-28.4-42.5-45.7-61.5-13.4-23.1-32.5-42.1-46.5-64.9l-.6-12.1c-6.4-34.2-39.5-52-55.1-81.2-13.8-21.1-23-45.8-41.05-63.8-1.2 4-3.5 12-4.66 16.1-.7-23.9-4.5-47.6-6.67-71.5l-10.1 10c-1.5-33.3-3.6-67.2-13.4-99.3-5.3 4.7-10.6 9.6-15.9 14.5.75-8.7.94-17.4-4.25-24.9 3.1-11.1 5.4-22.5 7.9-33.7-8.5-23.2-6.5-48.7-15.7-71.7-5.1-19.9-4.4-40.8-9.3-60.8-4.1 8.3-8.2 16.8-12.6 25-4.38-26.7-12.7-52.4-16.47-79.1-2.9 3.8-8.5 11.6-11.3 15.5-3.7-11.1-7.2-22.2-9.7-33.5-14.8-.5-25.5 11.8-39.9 13.1 6.5-9.4 14.1-17.9 21.45-26.7H32c5.6-10.2 10.88-20.5 16.3-30.8-8.55-23.9-8.06-49.6-9.24-74.6-8-37.9-23.2-74-27.5-112.6C9.4 640.2 1 618.5 10 598c5.9-47.96 12.5-96 29.3-141.6.9-17.46 3-35.9 13.4-50.56 18.9-23.8 21-57.6 46.8-76.5l-20.1 2.8c22.9-28.4 46-56.9 66.3-87.3-4.6-1.1-13.74-3.27-18.4-4.4l7.2-3.84c-1.7-3.2-5.3-9.6-7.1-12.8-1.4-.94-4.2-2.95-5.6-3.9 10.06-.7 20.1-1.3 30.2-1.7 2.4 11.3-.4 26.6 10.8 33.7 13.7 9.8 27.58 19.5 41.5 29-15.8 5.25-32.4 8.5-47.8 15-9.8 8.03-16.1 19.5-24.6 28.8 27.7 9.6 55.8 19.8 79.6 37.35 1.66 8.17 2.7 16.44 4.2 24.67.5 9.25 1 18.56 1.4 27.8 14.4 15 29.6 29.14 44.1 44.08 7.9 6.7 6.74 19.06 15.17 25.43 2.1-11.9-8.1-20.04-12.3-30.1-11.07-18.8-15.3-40.4-20.1-61.3-14.3-24.9-25.8-53.3-51.9-68.4-.3-4.05-.8-12.2-1.1-16.24 10.4-1.8 21.75-.6 31.5-5.3 7-8.4 10.2-19.2 15.2-28.8-9.08-5.8-18.38-11.4-27.15-17.7 4.9-14.1 21.7-21.1 32.1-31.4-2.4-2.2-7.27-6.6-9.7-8.8 13.5-2.4 26.6-6.6 39.7-10.6-2.4-8.4-6.47-16-10.9-23.4 5.9-6.4 11.7-12.9 17.3-19.6-15.57 3.8-30.6 9.5-45.8 14.5-27.6 8-55.55 14.6-82.5 24.6 12.3-15.6 25.04-31 39.33-44.8 15.6-12.7 33.5-22.1 49.96-33.4 2.7-5.3 2.1-13 7.3-16.6 10.2-2.4 20.6-3.9 31-5.6l-3.6-9.1c17.1-4.9 34.1-10.2 51-15.8l-2.9-8.9c10.4.4 20.7.9 31 1.3l.9-22.8c11.2 3 22.2 6.3 33.5 8.9-3.7-5.9-7.4-11.7-11.2-17.6 14.3 3.4 28.4 7.1 42.6 11-2.8-6-5.6-12.1-8.4-18.1 7.9 3.8 15.6 7.9 23.2 12.2 2.3-6.7 4.3-13.5 6.4-20.3z"/>
    <path fill="#fff" d="M331.65 119.48c4.95-.2 9.85-.05 14.8.4 22.8 17.22 41.36 39.2 61.63 59.23-1.5 13.2 7.05 30.6-7.98 38.1-.54 3.1-1.7 9.1-2.3 12.1-8.22-2.2-16.4-4.5-24.68-6.6 2.7 5.8 5.4 11.6 8 17.4-11.18-4.2-22.83-7.9-32.92-14.4-10.43-8.7-15.18-21.9-21.93-33.3-3.53-14.9-5.58-30-5.34-45.4 3.18-9.3 6.66-18.5 10.72-27.4z"/>
    <path fill="#4F504E" d="M637.62 318.17c4.8-5.73 9.15-11.8 13.46-17.88 2.3 2.9 4.56 5.8 6.86 8.8-3.48 9-7.2 18.6-18.27 19.6-.5-2.7-1.56-8-2.05-10.6zm-144.82-5.1c7.92-2.3 15.9-4.5 23.93-6.5 6.4 7.48 13.6 14.2 21.35 20.26 2.6-2.25 5.24-4.55 7.88-6.8.1-2.5.2-7.4.3-9.85l8.47.84c3.67 4.35 7.4 8.7 11.16 13.02-6 4.75-11.7 9.94-18.3 13.96-19.7-4.9-37.1-15.67-54.9-24.93zm190.1 69.68c-2.98-16.4 4.4-32.42 16.2-43.48l9.5 8.27c-2.3 3.28-6.94 9.8-9.3 13.03l10.93.4c-10.48 11.84-18.4 25.74-29.97 36.66.74 16.3 9.26 30.3 15.48 44.9-1.47 25.36-23.7 40.98-45.88 48.13-8.57.34-17.14.6-25.7.83 2.3 5 6.85 15.1 9.1 20.2-5.24 8.2-9.55 17.7-18.7 22.3-1.03 17.8 4.6 37-3.14 53.9-7.6 10.1-19.4 15.9-29.67 22.8 23.94 34.2 44.26 70.7 69 104.4 9.78 13 22.66 24.1 29.37 39.3 10.67 24 26.05 45.3 41.03 66.7 16 25 31.92 50.2 47.54 75.5 1.2 5.1 2.5 10.2 3.8 15.3 14.2 38.7 12.7 80.9 25 120.1 1.2 6.8 4.6 12.7 9.6 17.5 5 10.3 7.7 21.6 6.1 33.1-2.7 7.3-3.7 15-4.3 22.7-8.4 8.3-16.2 18.2-28.3 21l.3 2c-23.1-.3-46.2-.2-69.3-.3l.1-5.7c-2 .6-5.9 2-7.8 2.7-4.9-4.4-9.8-8.8-14.7-13.1-3-4.3-5.9-8.5-8.8-12.8l-4.2-.1c.6-2.5 1.9-7.6 2.6-10.1l-6.4 1.7c2-31.2-2.4-63 4.1-93.9 6.2-19-13.3-30.2-21.8-44.5l-5.1 1.6c.2 15-6.7 28.2-14.4 40.6-10.3-17.7-13-38-18-57.5-1.5.3-4.5.8-6 1.1-6.6 9-13 18.1-19.3 27.3-1.9-6.8-4.1-13.5-6.5-20-1-4-2.9-11.9-3.9-15.8-2.6 2.7-7.7 8.3-10.3 11.1l-5.2 1.5c-.4-14.4-4.3-28.1-8.8-41.6l-11.3-9.4c-1 2.8-2.9 8.5-3.9 11.2l-2.7-14.5-10.3 2.5 1.5-6.9-4.8.7c-4.7-17.9-5.5-36.4-8.7-54.5-.9 4-2.8 11.9-3.8 15.9l-7.8-.3c.1-22.2-14.7-41.4-10.6-63.9l-2.6-.8c-2.9 8-5.9 16-9 24-7.4-22.3-18.2-43.2-26.3-65.2-2.1 2.3-6.3 6.8-8.3 9.1-10-19.6-21.6-38.5-30.1-58.8-.7 4.7-2.3 14.3-3 19.1-18.4-17.6-41.7-32.2-53.4-55.3 14.4 1.4 29.1 3.8 42.7 9.4 12.4 7.9 22.7 19 34.2 28.3 1.2-4.1 3.7-12.3 4.9-16.4 24.9 38.1 41.7 81 58.7 123 2.4 4 5 7.9 7.7 11.7-1.4-14.1-6.1-27.9-4.3-42.3 4.6 6.7 8.5 13.9 12 21.4 10.8 27.6 5.8 58.9 16.6 86.4 1-16.5 1-32.9.2-49.4 2-3.3 6-9.8 8.1-13-6.2 17.9.5 36.4 3.8 54.1l4.9-19.4c3.3 13 7.7 25.8 9.4 39.2 1.9 6.2 3.9 12.5 6.1 18.6l4.5 19c3.4-11.2 5.9-22.5 8.1-33.9 1.8-.4 5.4-1 7.2-1.4 1.4 17.6-.6 36.5 8.1 52.5 2.3-7 4.6-14 7.1-20.9.8-3.7 2.5-11.1 3.3-14.7l3.3 7.9c22 11.3 20.2 38.8 27 59.2 1.6-8.1 2.9-16.1 4-24.3-.7-7.1-1.4-14.1-2-21.2 7.1 2.2 14.2 4.6 21.3 6.9 10.1 17.4 21 34.3 32.8 50.6-.9 2.4-2.5 7.1-3.4 9.5-2.7 28.8-7.8 57.6-6.8 86.6 6.7 19.6 27.1 29.5 45.9 34.2 14.7-1.5 4.9-21.5 8.1-31.1 10.2 8.2 9.4 21.5 10.7 33.3 5.9-3.9 11.7-8.1 17.3-12.4 1.5-10.5-2-20.8-3.5-31.1l9.4 2c1.1 15.4 1.3 30.9.3 46.4 8.4-8.9 18-16.5 27.7-23.9.8-12 4.03-24 2.03-36-9.3-22.5-20.2-44.9-22.2-69.4-12.5-39-18.2-80.3-35.6-117.7-22.3-35.8-45.6-70.9-68.4-106.3-11.4-16.5-19.8-38.6-42-42.5-18.8-38.7-39.8-76.3-58.8-114.9-2.4-1.8-7.3-5.3-9.7-7-11.2-18.4-21.4-37.4-33-55.5-20.5-25.4-39.1-53.1-48.3-84.7-3-18.2-10-37.3-1-55 10.4 5 21.8 9.4 29.2 18.8 18.34 21.5 41.94 37.5 65.1 53.3 15.4.94 30.75 1.4 46-.8 15.1 1.5 3.66-16.4 1.1-22.5l14.4-10.1c-8.3-.9-16.56.4-24.84.4-4.1-13.14 8.8-20.4 17.1-27.5 17.9 4.47 36.4 7.06 53.9 13.4-10.1-15.6-20-39.57-1-52.7z"/>
    <path fill="#4F504E" d="M616.9 361.8c21.3 13 32.47 36.66 44.76 57.42-9.26-2.35-18.56-4.6-27.96-6.4 1.18-18.86-10.62-34.2-16.8-51.03z"/>
    <path fill="#fff" d="M502.83 440.82c19.48 1.17 17.03 22.76 26.63 34.27l-3.38-14.5c16.4 3 26.64 17.4 40.84 24.7 8.32 3.3 17.23 4.9 25.85 7.3 6.3 20 13.32 39.9 15.47 61-1.27 10.2-2.8 20.4-4.3 30.7-8.38 6.4-17.4 12-26.84 16.6-16.7-13.4-23.45-34.5-33.98-52.4-10.77-16.2-4.9-37.5-16.65-53.4.25-7.5.35-14.9.35-22.4l-9 3.6c-.65-9-4.13-17.3-7.5-25.5-1.86-2.6-5.63-7.7-7.5-10.2zm172.54 25.46c3.13-11.4 5.82-22.97 9.9-34.13 10.42 19.78-6.28 36.18-22.2 44.6l-.58-8.03c2.6 0 7.7.05 10.3.05l2.5-2.5z"/>
    <path fill="#4F504E" d="M334 465.6c14.7 8.95 28.26 19.62 41.18 30.98.2-4.06.54-12.3.74-16.35 1.07 1.18 3.23 3.57 4.3 4.8 5.73 5.53 11.12 11.46 16.55 17.38 5.3-2.4 10.58-4.8 15.92-7.1 0 13.1.6 26 .8 39.1-7-8.8-13.5-17.9-20.6-26.5.1 10.1 2.6 19.9 5.6 29.4-1.8-.1-5.2-.5-6.9-.6-16.7-20.2-39.8-34.2-55.5-55.2-.6-3.9-1.7-11.7-2.2-15.6zm228.07 31.82c2.7-.05 8.03-.15 10.72-.25 4.6 10.53 10.4 20.47 14.6 31.1 4.3 14.83 2.2 30.45 1.1 45.62-2.8 3.3-5.5 6.7-8.2 10 0-2.5 0-7.5.1-10 9-10.6 3.1-23.9 0-35.5-3.4-14.9-12.8-27.2-18.5-41.1z"/>
    <path fill="#fff" d="M601.48 493.1l17.48-2.34c.15 12.48.2 25.02.35 37.5l-8.1-.05c-2.6-11.8-6.1-23.4-9.7-35.1z"/>
    <path fill="#4F504E" d="M179.23 645.97c13.96-27.27 34.72-50.58 52.88-75.1 3.4 5.57 6.8 11.1 10.2 16.7-12.6 22.95-26.3 45.9-36.1 70.1 3.1 29.62 1.2 59.63 5.4 89.16 15.6 49.1 67.9 81.62 70.4 135.87.6 4.45 1.3 8.96 2.2 13.4 3.7 41.1 13.6 81.63 11.6 123.1 2.4 15.57-1.4 32.03-15.7 41.28 9.6-25.9 6.1-53.47 2.9-80.15-2.7-27.86-6.6-55.57-10.5-83.3-2-15.8-1.6-32.74-10.2-46.84-19.2-33-42.3-63.7-61.9-96.5-8.2-12.9-5-29.1-10.4-42.9-7.7-20.7-8.9-43.1-10.6-64.9z"/>
    <path fill="#4F504E" d="M80.58 709.76c17.67 28.2 31.58 58.47 49.94 86.23 14.1 21.3 18.7 47.5 33.24 68.7 8.47 15.2 20.32 29.5 22.67 47.3 3.67 24.3-1.07 48.9 3.43 73.3-2.15 28.2 9.5 56 18.56 82.5 2.2-2.7 6.66-8.1 8.86-10.7.44 14.8 5.24 28.6 18.75 36.3.83-8.7 1.76-17.4 2.8-26.1 1.4 3.7 2.83 7.5 4.1 11.4 3.38 6.2 7.4 11.9 11.3 17.8 3-7.8 5.9-15.6 8.73-23.4 2.4.3 7.2 1.1 9.6 1.4 5-6.7 14.98-20 20.02-26.6-2.94 20.9-11.6 39.7-25.8 55.1-11.2.4-22.33 1.3-33.5 2.1-10.52-9.5-20.8-19.4-29.96-30.2-8.07-12.6-11.94-27.3-17.67-41.1-4.7-12.9-9.9-27.3-3.82-40.6-8.62-35.2 3.77-73.4-14.25-106.5-26.1-49-55.9-95.9-86.22-142.2 0-11.8-.6-23.5-.78-35.3zm340.72 346.4c35.1 1.9 66.15-18.06 100.47-20.8-10.96 4.3-22.13 8.23-33.14 12.5-14.74 6.84-34.9 9.1-39.22 27.7-27.9 3.87-57.4 9.3-84.5-1.13-10.1-11.35-21.2-21.98-28.9-35.2 26.1 2.35 45.7 31.97 72.8 22.23.5-2.64 1.3-7.93 1.7-10.58l1.6 13.7 11.6.2c-.5-2.15-1.7-6.45-2.3-8.6z"/>
  </g>
</svg>
