<svg xmlns="http://www.w3.org/2000/svg" class="logo" id="logo" data-start="transform:scale(1);top: 500px;" data-150-top-top="transform:scale(0.5);top: -70px;">
  <symbol id="logo-font" viewBox="0 0 2271 1005" fill-rule="evenodd" stroke-miterlimit="1.41" clip-rule="evenodd" stroke-linejoin="round">
    <path fill="#50514F" fill-rule="nonzero" d="M246.4 844.45c-2.6-3.9-3.6-10.15-2.94-18.75.65-8.58 2.35-18.28 5.08-29.1 2.73-10.8 6.17-22.12 10.34-33.97 4.17-11.85 8.33-23.18 12.5-34 4.17-10.8 8-20.5 11.52-29.1 3.52-8.58 6.06-14.83 7.62-18.73 1.82-3.9 4.23-9.44 7.23-16.6 3-7.16 6.25-14.97 9.76-23.44L318.7 614c3.9-9.37 7.6-18.36 11.13-26.95 3.5-8.6 6.77-16.4 9.77-23.44 3-7 5.4-12.6 7.22-16.7 5.72-1.8 9.5-1.6 11.32.6 1.84 2.3 2.36 6 1.58 11.2-.78 5.2-2.6 11.5-5.47 19-2.86 7.4-6.2 15.4-9.96 23.9-3.8 8.5-7.7 17.2-11.8 26-4 8.9-7.7 17.3-10.9 25.2-3.3 8-5.8 15.2-7.5 21.7-1.7 6.5-2.2 11.7-1.4 15.6 4.7.6 10.1.6 16.2 0 6.1-.5 12.3-1.3 18.7-2.3 6.4-1 12.7-2.2 18.9-3.5 6.2-1.3 11.7-2.3 16.4-3.1 23.7-3.9 42.6-9.5 56.8-16.8 14.2-7.3 26-16.6 35.5-27.9s17.8-24.9 24.8-40.8c7-15.9 15.1-34.4 24.2-55.4 2.3-4.4 4.4-6.3 6.2-5.6 1.8.7 3.3 2.5 4.5 5.5 1.1 3 2 6.3 2.5 10s.5 6.3 0 7.8c-.3.8-1.1 2.5-2.4 5.1-1.3 2.6-2.7 5.4-4.3 8.4l-4.3 8.2c-1.3 2.5-2.1 4.1-2.3 4.9-.6 1-1.2 2.8-2 5.3s-1.7 5.1-2.8 8c-1.1 2.9-2 5.5-2.8 8-.8 2.5-1.3 4.2-1.6 5.3 1.3.3 3.1 1.5 5.3 3.7 2.2 2.2 3.4 4 3.7 5.3.8 4.4-.7 9.5-4.3 15.1s-8.1 11.3-13.4 17.3L491 669.9s-8.5 11.03-10.34 16c-10.7 26-19.88 52.1-27.56 78.1-7.63 26.04-13.3 53-16.93 80.84-.8 1.3-2 2.6-3.6 3.9-1.5 1.3-3.2 1.5-5 .4-.5-5.7-.07-13.6 1.36-23.6 1.45-10 3.3-20.98 5.7-32.8 2.34-11.87 4.94-23.9 7.8-36.16 2.9-12.3 5.54-23.5 8-33.8 2.5-10.3 4.5-18.8 6.1-25.6 1.53-6.8 2.2-10.6 1.92-11.3-5.5-1.1-12.5-1.3-21.1-.6-8.6.6-18 1.8-28.18 3.5s-20.7 3.7-31.67 6.06c-10.9 2.35-21.5 4.9-31.8 7.6-10.3 2.7-19.87 5.3-28.7 7.8-8.88 2.5-16.17 4.6-21.9 6.44-4.4 9.9-8.07 20.75-10.94 32.6-2.9 11.84-5.8 23.76-8.8 35.74-3 12-6.3 23.5-10 34.56-3.67 11.05-8.5 20.9-14.47 29.5-.6-.3-1.4-.9-2.6-2-1.2-1-1.9-1.8-2.2-2.3zm337.18 0c-9.37-7.55-15.76-17.3-19.14-29.28-3.4-11.98-4.56-25.26-3.52-39.85 1.05-14.58 3.78-29.88 8.2-45.9 4.43-16 9.7-31.77 15.83-47.26 6.12-15.5 12.63-30.27 19.53-44.33 6.9-14.06 13.28-26.43 19.14-37.1 5.86-10.68 10.8-19.15 14.84-25.4 4.04-6.25 6.32-9.24 6.84-8.98 2.08 1.04 3.5 2.4 4.3 4.1.78 1.7 1.23 3.58 1.36 5.66.13 2.1.07 4.2-.2 6.3-.25 2.1-.5 4.1-.77 5.9l-2.4 4.5-2.4 4.5c-20.3 44.5-35.6 81.8-45.7 111.9-10.2 30.1-16.4 54.1-18.8 72.1-2.4 18-1.3 30.6 3.3 37.7 4.5 7.2 11.4 10 20.7 8.6 9.2-1.4 20.3-6.5 33.2-15.2 12.9-8.7 26.5-20 41-33.8 14.4-13.8 29.1-29.5 43.9-47.2 14.8-17.7 28.9-36.2 42.4-55.5 13.4-19.2 25.4-38.6 35.9-58.2 10.5-19.5 18.8-38.1 24.8-55.8.5-.5 1.2-1.3 2.1-2.5.9-1.2 1.6-1.7 2.1-1.7 7.3 5 10 13.4 8.2 25.2-1.8 11.9-6.9 25.7-15.1 41.6-8.2 15.9-19 33.1-32.4 51.6-13.4 18.5-28 36.7-43.8 54.7-15.8 18-32 35-48.7 51s-32.6 29.5-47.7 40.4c-15.1 11-28.6 18.7-40.5 23.3-11.9 4.6-20.9 4.4-27.2-.6zm275.48 0c-1.3-.52-4.36-1.95-9.18-4.3-4.82-2.34-9.3-5.07-13.48-8.2-4.16-3.12-7.1-6.38-8.8-9.76-1.68-3.4-.05-6.3 4.9-8.6 2.86 2.6 6.83 5.7 11.9 9.3 5.1 3.6 9.97 6.4 14.66 8.2 14.32.8 28.26.8 41.8.2 13.54-.7 26.75-2.4 39.65-5.1 12.9-2.8 25.4-6.9 37.5-12.5 12.1-5.6 23.9-13 35.4-22.1 12.8-10.7 21.2-20.5 25.2-29.5 4.1-9 4.8-17.3 2.4-25-2.5-7.7-7.5-14.9-15.2-21.5-7.7-6.7-16.8-12.9-27.3-18.8s-21.8-11.4-33.7-16.4c-12-5.1-23.4-10-34.3-14.9-10.9-4.8-20.8-9.6-29.6-14.3-8.9-4.7-15.4-9.5-19.5-14.5-1-4.4 1.2-9.6 6.7-15.6s13-12.2 22.7-18.6c9.6-6.4 20.7-12.8 33.2-19.2 12.5-6.4 25.3-12.2 38.5-17.4 13.2-5.2 25.9-9.6 38.3-13.3 12.4-3.7 23.3-6 32.6-6.9 9.4-.9 16.6-.2 21.5 2.2 5 2.3 6.7 6.7 5.1 13.3-1.8.2-6.5 1.4-14 3.5-7.5 2-16.7 4.6-27.5 7.8-10.8 3.1-22.5 6.7-35.1 10.9-12.6 4.1-25 8.5-37.3 13.1-12.2 4.5-23.5 9.2-33.9 13.8-10.4 4.7-18.6 9.2-24.6 13.6s-9.3 8.4-9.9 12.1c-.6 3.6 2.8 6.8 10.4 9.4 38 11.4 67.9 23.6 89.6 36.5 21.8 12.9 37.1 25.9 45.9 39 8.9 13.1 12.2 26.1 10.2 38.8-2 12.7-7.7 24.6-17 35.5-9.2 10.9-21.2 20.6-36.1 29.1-14.8 8.4-30.5 15-47.1 19.7-16.5 4.7-33 7.1-49.6 7.4-16.5.2-31.1-2.4-43.9-7.8zm520.38 40.25c-8.33-13.3-16.6-25.4-24.8-36.34-8.2-10.94-16.72-21.55-25.58-31.83-8.85-10.28-18.16-20.63-27.93-31.05-9.76-10.42-20.38-21.5-31.83-33.2-16.4-17.2-30.02-29.95-40.82-38.3-10.8-8.32-19.8-13.14-26.95-14.44-7.16-1.3-13.08.72-17.77 6.06-4.7 5.33-9.25 13.15-13.67 23.43-4.5 10.3-9.2 22.72-14.1 37.3-5 14.6-11.3 30.48-19.2 47.66-2.6 5.4-5.6 11.7-8.8 18.9-3.3 7.1-7.8 12.7-13.5 16.6-4.5 2.8-6.4 1.5-5.9-4.1s2.6-13.6 6.2-24 8.2-22.2 13.8-35.4 11.1-25.9 16.6-38.1c5.4-12.3 10.2-22.9 14.4-31.9s6.7-14.5 7.8-16.6c6.2-14.9 12.6-28.5 19.1-40.8 6.5-12.4 12.9-24.6 19.3-36.6s12.6-24.2 18.7-36.7c6.1-12.5 11.8-26.3 17-41.4 2.3-1.6 4.4-2 6.2-1.4 1.8.6 3.4 1.7 4.7 3.3 1.3 1.6 2.1 3.5 2.5 5.7.4 2.2.3 4.1-.2 5.6-1.6 3.1-4 8-7.3 14.6l-10.2 20.7c-3.5 7.1-6.8 14-10 20.7-3.1 6.6-5.5 11.6-7 15-.5 1.3-1.6 3.9-3.1 8-1.6 4-2.1 7.3-1.6 9.9 7.5 1.5 17 .9 28.3-2s23.6-7.1 36.7-12.5c13.1-5.5 26.8-11.8 41-19s27.8-14.3 40.6-21.3c12.9-7 24.6-13.6 35.1-19.7 10.6-6.1 19.1-10.7 25.6-13.9 6.2-3.1 9.5-3.7 9.8-1.6.2 2.1-1.1 5.2-4.1 9.4-3 4.2-6.8 8.5-11.4 13.1-4.5 4.5-8.5 7.7-11.9 9.5-2.6 1.6-6.5 3.7-11.7 6.5-5.2 2.7-10.7 5.5-16.4 8.2-5.7 2.7-10.9 5.3-15.6 7.6s-7.8 3.8-9.4 4.3c-7 3.1-15.9 6.6-26.6 10.5-10.6 3.9-21.8 8.1-33.4 12.5-11.6 4.4-23 9.2-34.3 14.2-11.3 5.1-21 10.4-29.1 15.8-2.1 1.5-3.9 3.1-5.5 4.7-1.3 1.3-2.4 2.7-3.3 4.3-.9 1.5-.9 3 .2 4.3 3.9 2.4 9.9 7 17.9 14.1 8 7 17.2 15.4 27.3 25 10.1 9.6 20.9 20.3 32.2 32 11.3 11.7 22.3 23.6 33 35.6s20.4 23.7 29.3 35.1c8.8 11.4 15.9 21.8 21.3 31 5.3 9.2 8.4 17 9.2 23.2.7 6.2-1.7 10-7.5 11.3-.5-.27-1.2-.9-2.18-1.9-.9-1-1.66-1.8-2.18-2.3zm74.72-49.23c-.52-1.82-.6-4.36-.2-7.62.4-3.25.92-6.57 1.57-9.95.65-3.38 1.36-6.38 2.15-8.98.78-2.6 1.17-4.04 1.17-4.3l88.27-229.68c1.82-4.7 3.52-6.44 5.08-5.27 1.56 1.17 2.8 3.64 3.7 7.42.92 3.7 1.38 8 1.38 12.8s-.53 8.6-1.57 11.5c-8.3 19.8-16.7 39.6-25.1 59.5-8.4 19.9-16.5 39.9-24.2 60.1-7.6 20.2-14.9 40.5-21.6 60.9-6.7 20.4-12.5 41.2-17.2 62.3-2 1.3-3.8 1.8-5.2 1.5-1.4-.3-2.7-1-3.9-2.1-1.1-1.2-2.1-2.6-2.7-4.1-.6-1.6-1.1-3-1.3-4.3zm126.66 4.3c-1.56-1.3-1.17-2.74 1.17-4.3 2.6-9.38 5.2-18.35 8-26.94 2.7-8.6 5.6-17.13 8.8-25.6 3.1-8.45 6.4-17.05 9.9-25.77l11.1-27.54c1.3-2.34 1.1-4.75-.6-7.23-1.7-2.5-3.7-5-5.9-7.5s-3.8-5.1-4.7-7.8c-.9-2.8.1-5.6 2.9-8.4.2-.3 1.2-.7 2.9-1.2 1.7-.6 3.6-1 5.6-1.4 2.1-.4 4-.8 5.7-1.2 1.7-.4 2.8-.8 3.3-1 .8-.5 2.3-1.9 4.5-4.1 2.2-2.2 3.5-3.7 4.1-4.5 4.1-7 8.1-13.3 11.9-18.7 3.7-5.5 7.3-11 10.5-16.4 3.2-5.5 6.2-11.2 8.8-17.2 2.6-6 4.9-13 7-21.1.7-3.1 0-5.2-2.2-6.1-2.2-.9-4.8-1.8-7.6-2.6-2.9-.8-5.2-2-7.1-3.7-1.9-1.7-2-4.9-.4-9.6 1-2.9 6-6 15-9.4 8.9-3.4 20.3-6.7 34.1-9.8 13.8-3.2 29.3-6 46.5-8.6 17.2-2.6 34.3-4.7 51.5-6.3 17.2-1.6 33.6-2.5 49.2-2.9 15.7-.4 28.9.1 39.9 1.5 10.9 1.4 18.7 3.9 23.4 7.4 4.7 3.5 4.5 8.4-.4 14.6-2.3.5-4.8.5-7.2.2-2.5-.4-5-1-7.6-1.8-2.6-.8-5.4-1.5-8.2-2.2-2.9-.7-5.6-.9-8.2-.6-12.5 1-24.8 1.4-36.8 1.1-12-.3-23.9-.4-35.9-.4s-24 .5-35.9 1.4c-12 .9-24 3-35.9 6.4-8.4 2.3-15.8 6.4-22.3 12.3s-12.7 13.3-18.5 22.3c-5.9 9-11.7 19.3-17.6 31-5.8 11.7-12.4 24.6-19.7 38.6 2.9.8 8.3.3 16.2-1.6 8-1.8 17.1-4.1 27.4-6.8 10.3-2.8 21.1-5.5 32.6-8.2 11.4-2.8 22.2-4.7 32.2-5.9s18.8-1.2 26.3 0c7.5 1.1 12.6 4.2 15.2 9.2.2.5.4 1.3.4 2.3 0 1-.2 1.7-.4 1.9-13.8 2.1-28.1 4-42.8 5.7-14.7 1.7-29.3 3.8-43.8 6.4s-28.6 6-42.4 10.3c-13.8 4.3-26.9 10.1-39.1 17.4-9.9 17.5-18.7 35.4-26.5 53.9-7.8 18.5-14.7 37.3-20.7 56.3 7.5-2.6 16.3-5.1 26.4-7.6 10-2.5 19.7-4.8 28.9-6.8 9.3-2.1 17.3-3.8 24.2-5.1 6.9-1.3 11-2.1 12.3-2.4 22.2-3.4 43.5-6 63.9-8 20.5-1.9 41.8-2.3 63.9-1 1.8.6 3.1 1.6 3.9 3.2.7 1.6 1.3 3.3 1.5 5.3.3 1.9.3 3.8 0 5.6-.3 1.8-.5 3.1-.8 3.9-28.4-1.6-56.6-.5-84.6 3.1-28 3.6-55.8 8.4-83.4 14.4-4.5 1-9.9 2.9-16.2 5.5-6.4 2.6-12.9 4.9-19.6 7-6.7 2.1-13.1 3.5-19.2 4.3-6.1.8-11.3-.3-15.5-3.2-1-.6-1.9-1.2-2.7-2-.8-.8-1.3-1.9-1.6-3.2zm357.88 4.68c-1.3-.52-4.35-1.95-9.17-4.3-4.8-2.34-9.3-5.07-13.46-8.2-4.17-3.12-7.1-6.38-8.8-9.76-1.68-3.4-.06-6.3 4.9-8.6 2.86 2.6 6.83 5.7 11.9 9.3 5.07 3.6 9.96 6.4 14.64 8.2 14.4.8 28.3.8 41.8.2 13.6-.7 26.8-2.4 39.7-5.1 12.9-2.8 25.4-6.9 37.5-12.5 12.1-5.6 23.9-13 35.4-22.1 12.8-10.7 21.2-20.5 25.2-29.5 4.1-9 4.8-17.3 2.4-25-2.4-7.7-7.5-14.9-15.2-21.5-7.7-6.7-16.8-12.9-27.3-18.8s-21.8-11.4-33.7-16.4c-12-5.1-23.4-10-34.3-14.9-10.9-4.8-20.8-9.6-29.7-14.3-8.8-4.7-15.3-9.5-19.5-14.5-1-4.4 1.2-9.6 6.7-15.6s13.1-12.2 22.7-18.6c9.6-6.4 20.7-12.8 33.2-19.2 12.5-6.4 25.3-12.2 38.4-17.4 13.2-5.2 25.9-9.6 38.3-13.3 12.4-3.7 23.3-6 32.6-6.9 9.4-.9 16.6-.2 21.5 2.2 5 2.3 6.7 6.7 5.1 13.3-1.8.2-6.5 1.4-14 3.5-7.6 2-16.7 4.6-27.5 7.8-10.8 3.1-22.5 6.7-35.1 10.9-12.6 4.1-25.1 8.5-37.3 13.1-12.3 4.5-23.6 9.2-34 13.8-10.5 4.7-18.7 9.2-24.6 13.6-6 4.4-9.4 8.4-10 12.1-.7 3.6 2.8 6.8 10.3 9.4 38 11.4 67.9 23.6 89.7 36.5 21.8 12.9 37.1 25.9 45.9 39 8.9 13.1 12.3 26.1 10.2 38.8-2.1 12.7-7.7 24.6-17 35.5-9.2 10.9-21.3 20.6-36.1 29.1-14.8 8.4-30.5 15-47 19.7-16.5 4.7-33 7.1-49.6 7.4-16.5.2-31.2-2.4-43.9-7.8z"/>
    <g fill="#50514F" fill-rule="nonzero">
      <path d="M23.02 507.7c-9.38-7.55-15.76-17.3-19.13-29.3C.5 466.44-.7 453.16.3 438.57c1.04-14.57 3.8-29.87 8.2-45.9 4.43-16 9.7-31.76 15.83-47.26 6.1-15.4 12.6-30.2 19.5-44.3 6.9-14 13.3-26.4 19.15-37.1 5.87-10.6 10.8-19.1 14.85-25.4 4.03-6.2 6.3-9.2 6.83-8.9 2.07 1.1 3.5 2.4 4.3 4.1.77 1.7 1.22 3.6 1.35 5.7.2 2.1.1 4.2-.2 6.3-.2 2.1-.5 4.1-.8 5.9l-2.3 4.5c-1.3 2.5-2.1 4-2.3 4.5-20.3 44.5-35.5 81.8-45.6 111.9-10.1 30.1-16.4 54.1-18.7 72.1-2.3 18-1.2 30.6 3.3 37.7 4.6 7.2 11.5 10.1 20.7 8.6 9.3-1.4 20.3-6.5 33.2-15.2 12.9-8.7 26.6-20 41-33.8 14.5-13.8 29.1-29.5 44-47.2 14.9-17.7 29-36.2 42.4-55.4 13.4-19.3 25.4-38.7 36-58.2 10.6-19.5 18.9-38.1 24.8-55.8.6-.5 1.3-1.3 2.2-2.5.9-1.2 1.6-1.7 2.1-1.7 7.3 5 10.1 13.4 8.2 25.2-1.8 11.9-6.8 25.7-15 41.6-8.2 15.9-19 33.1-32.4 51.6-13.4 18.5-28 36.7-43.8 54.7C171.3 412 155 429 138.4 445c-16.64 16.04-32.5 29.5-47.6 40.45C75.5 496 62 503.8 50.2 508.3c-11.86 4.55-20.9 4.35-27.16-.6zm213.28 0c-4.18-2.86-5.87-7.16-5.1-12.9.8-5.7 2.62-11.57 5.48-17.56 2.86-6.77 7.03-14.2 12.5-22.27l22.46-42.76c6.64-12.6 12.83-24.5 18.55-35.7 5.7-11.2 11.1-22 16.4-32.4 5.2-10.4 10.4-21.3 15.8-32.8 5.3-11.4 10.8-23.7 16.6-36.7 5.7-13 12.1-27.8 19.1-44.5.5-1 1.3-2.5 2.5-4.5 1.1-1.9 2.6-3.5 4.3-4.7 1.7-1.1 3.4-1.5 5.2-1.1 1.8.4 3.6 2.3 5.4 5.7 2.6 5.2 2.8 12.4.6 21.5-2.2 9.1-6.1 19.6-11.6 31.5-5.5 11.8-12 24.6-19.6 38.3-7.6 13.7-15.5 27.6-23.8 41.6-8.4 14.1-16.6 28-24.6 41.8-8.1 13.8-15.2 26.7-21.3 38.7-6.1 12-10.8 22.9-14.1 32.7-3.3 9.8-4.4 17.5-3.4 23.2 18.5 1.9 37.1 1.7 55.8-.4 18.7-2 37.5-4.6 56.2-7.6 18.8-3 37.6-5.6 56.5-8 18.9-2.3 37.7-2.9 56.4-1.5 3.4-.5 6.2.6 8.6 3.5 2.3 2.9 2.4 6 .4 9.4-.6 0-1.7-.1-3.4-.2s-3.5-.2-5.3-.2c-1.8 0-3.6.1-5.3.2-1.7.1-2.9.2-3.7.2-14.6 1.3-31.6 3.6-51.1 6.8-19.6 3.3-39.7 6.3-60.6 9.2-20.8 2.9-41.6 5.1-62.3 6.6-20.7 1.6-39.4 1.4-56-.4-.3 0-1.5-.6-3.7-1.7-2.2-1.2-3.7-2-4.5-2.5zm330.82 0c-1.56-6.5-1.5-14 .2-22.46s4.1-17 7.22-25.58c3.13-8.6 6.5-16.86 10.16-24.8 3.64-7.95 6.64-14.5 8.98-19.72 1.3-3.13 3.32-7.68 6.06-13.67 2.73-6 5.86-12.76 9.37-20.32 3.6-7.55 7.2-15.5 11-23.83 3.8-8.33 7.4-16.27 11-23.82 3.5-7.56 6.7-14.26 9.4-20.12 2.8-5.86 4.8-10.22 6.1-13.1-4.4-.77-10.7-.38-18.9 1.2-8.2 1.55-17.2 3.57-27.1 6.04l-30.4 7.62c-10.4 2.6-20.1 4.5-29.1 5.66-9 1.17-16.6 1.3-23 .4-6.4-.92-10.3-3.6-11.9-8.02 1.9-3.38 8.5-7.3 20-11.7 11.4-4.44 26.1-9.06 43.9-13.88 17.9-4.8 37.8-9.7 59.8-14.64 22-4.95 44.5-9.64 67.4-14.06 22.9-4.43 45.3-8.47 67.2-12.1 21.9-3.66 41.4-6.65 58.6-9 17.2-2.34 31.1-3.9 41.6-4.68 10.6-.8 16.1-.52 16.6.78.8 2.08.9 4.62.4 7.6-.5 3-2.2 4.9-5.1 5.68-12.7 2.08-26.5 4.36-41.4 6.83-14.8 2.5-29.9 5.1-45.1 7.9-15.2 2.8-30.1 5.5-44.7 8.2-14.6 2.8-28.1 5.4-40.6 8-8.1 1.6-15.9 6.3-23.4 14.1-7.5 7.8-14.8 17.5-21.9 29.1-7 11.6-13.8 24.5-20.3 38.7-6.5 14.2-12.7 28.6-18.5 43.2-5.8 14.6-11.2 28.7-16.2 42.2-4.9 13.6-9.5 25.5-13.7 35.8-4.2 10.3-7.8 18.3-11 24.1-3.1 5.7-5.7 8.1-7.8 7l-4.3-4.3z"/>
      <path d="M721.02 498.72c-.53-1.82-.6-4.36-.2-7.62.4-3.25.9-6.57 1.56-9.96.65-3.38 1.37-6.38 2.15-8.98.78-2.6 1.17-4.04 1.17-4.3l88.28-229.67c1.83-4.7 3.52-6.5 5.08-5.3s2.8 3.6 3.7 7.4c.92 3.8 1.38 8.1 1.38 12.9 0 4.8-.52 8.6-1.56 11.5-8.34 19.8-16.73 39.6-25.2 59.5-8.46 19.9-16.53 39.9-24.22 60.1-7.68 20.2-14.9 40.5-21.68 60.9-6.77 20.4-12.5 41.2-17.18 62.3-2.1 1.3-3.84 1.8-5.28 1.5-1.43-.3-2.73-1-3.9-2.2s-2.1-2.6-2.74-4.1c-.65-1.6-1.1-3-1.36-4.3zm376.93 39.45c-.26-.26-.4-.97-.4-2.14 0-1.18.14-2.02.4-2.54.26-.6.78-2.1 1.56-4.7.8-2.6 1.7-5.4 2.8-8.2 1.1-2.9 2-5.6 2.8-8.2.8-2.6 1.3-4.3 1.6-5.1 7.6-24.2 14.2-45.9 19.9-65.1 5.8-19.2 11.2-37.8 16.4-56.1 5.2-18.3 10.4-37.1 15.5-56.5s10.8-41.5 17-66.2v-8.6c-7.5-2.6-15.7-2.4-24.4.8-8.7 3.1-17.6 8.2-26.8 15.2-9.1 7-18.3 15.4-27.7 25.2-9.4 9.7-18.5 20-27.3 30.8s-17.4 21.5-25.7 32-16 20.2-23 28.9-13.3 15.9-18.9 21.5-10.1 8.8-13.5 9.5c-2.3.5-5.2.2-8.6-1s-5-2.4-5-3.7v-26.5c.8-2.9 1.9-7.5 3.3-13.7 1.5-6.3 3-13.3 4.7-21.1 1.7-7.8 3.5-16 5.5-24.6 2-8.6 3.8-16.8 5.5-24.6 1.7-7.9 3.2-14.8 4.5-20.9 1.3-6.2 2.3-10.8 3.1-13.9 1.3-6 2.6-11.9 3.7-17.6 1.2-5.8 1.4-11.7.6-18-7.8-2.6-16.1-.6-25 6.1-8.8 6.6-17.9 16.3-27.1 29.1-9.2 12.7-18.5 27.6-27.9 44.5s-18.4 34.4-27.3 52.3c-8.9 17.9-17.4 35.7-25.6 53.1-8.2 17.4-15.7 32.9-22.4 46.3-6.7 13.4-12.6 24.1-17.7 32-5.1 7.9-9.1 11.4-11.9 10.3-3.6-1-5-5.3-4.1-12.9.9-7.6 3.5-17.2 7.6-28.7 4.2-11.6 9.5-24.8 16-39.5s13.6-29.9 21.3-45.5c7.7-15.6 15.6-31.3 23.6-46.9 8.1-15.6 15.8-30.1 23.1-43.4 7.3-13.3 13.8-24.9 19.4-34.9l12.3-22.1c5.5 2.1 10.3 2.8 14.5 2.1 4.2-.7 8.1-2 11.7-4.1 3.7-2.1 7.2-4.6 10.8-7.4 3.5-2.9 7.5-5.6 11.9-8.2 9.4-5.8 16.8-8.2 22.3-7.5 5.5.8 9.5 3.7 11.9 8.6 2.5 5 3.7 11.7 3.7 20.1s-.6 17.6-1.9 27.5c-1.3 9.9-3 20-5.2 30.3s-4.4 19.8-6.4 28.5c-2.1 8.7-3.8 16.1-5.3 22.2-1.4 6.1-2 9.9-1.8 11.5 2.1 1.1 3.9.9 5.3-.4 1.5-1.3 2.7-2.6 3.7-3.9.8-1.3 2.7-3.8 5.7-7.4 3-3.6 6.5-7.9 10.4-12.7l12.5-15.4c4.5-5.5 8.7-10.6 12.7-15.5 4.1-4.8 7.5-9.1 10.4-12.7 2.8-3.7 4.8-6.1 5.8-7.4 22.7-18 41.9-31.3 57.6-40.1 15.8-8.7 28.5-13.6 38.3-14.6 9.7-1.1 16.8 1.3 21.3 7 4.4 5.7 6.7 13.9 7 24.4.3 10.6-1.3 23.2-4.7 37.9-3.4 14.7-7.9 30.5-13.7 47.4-.8 2.3-2.2 7.2-4.5 14.6-2.2 7.4-4.8 16.12-8 26.2-3.1 10-6.3 20.6-9.5 31.8s-6.4 21.8-9.6 31.9c-3.1 10-5.8 18.75-8 26.2-2.2 7.4-3.7 12.3-4.5 14.6 0 .23-.2 1.92-.8 5.1-.5 3.1-1.3 6.8-2.5 11.1s-2.5 8.8-4.1 13.63c-1.5 4.8-3.5 9.2-5.8 13.1-2.3 3.9-5 6.9-7.96 9-3 2.1-6.3 2.4-10 1.1-.3 0-.9-.6-2-1.77-1.05-1.2-1.7-2-1.96-2.5zm70.7 46.1c-.8-.53-2.03-1.77-3.7-3.7-1.7-1.98-3.08-4-4.1-6.08-1.06-2.1-1.5-3.9-1.4-5.5.14-1.6 1.64-2.4 4.5-2.4 5.47 7.5 13.16 10.4 23.05 8.6 9.9-1.9 20.57-6.3 32.03-13.5s23.1-16.2 34.96-27c11.8-10.8 22.5-21.6 32-32.2 9.5-10.7 17.3-20.4 23.4-28.9 6.1-8.6 9.2-14.4 9.2-17.2 0-.8-1.1-2-3.1-3.7-2.1-1.7-4.5-3.5-7.3-5.3l-7.6-5.1c-2.4-1.6-3.8-2.8-4.3-3.5.8-2.7 3.2-4.7 7.4-6.1 4.1-1.5 8.8-2.8 14-3.9l15.4-3.6c5.1-1.2 8.9-2.7 11.5-4.5 13.8-20.1 25.8-38.1 36.1-54.1 10.2-16 20-31.8 29.2-47.3 9.2-15.5 18.7-31.5 28.3-47.9 9.6-16.5 20.7-34.9 33.2-55.5 3.4-5.8 6.1-7.7 8.2-5.9 2.1 1.8 3.6 6.2 4.7 13.2 1 7 1.7 16 1.9 26.8s.2 22.4 0 34.9c-.3 12.5-.7 25.2-1.4 38.2-.7 13-1.3 25-2 35.9-.7 10.9-1.2 20.3-1.6 28.3-.4 7.9-.4 13-.2 15.4 1.1 13.2 1.8 24.8 2.2 34.5.4 9.7 1.6 18.7 3.7 26.9s5.6 16.1 10.7 23.8c5.1 7.7 12.9 16.1 23.3 25.2-8.6 2.8-15.7 2.6-21.3-.6-5.6-3.3-10.2-8.2-13.7-14.8-3.5-6.6-6.4-14.3-8.6-23.1-2.2-8.8-4.3-17.2-6.3-25.4s-4.2-15.4-6.7-21.5-5.8-10.1-9.9-11.9c-.3 0-1-.1-2.1-.2s-2.5-.2-3.9-.2c-1.5 0-2.8.1-4.1.2-1.3.1-2.2.2-2.8.2-2.4.5-6.7 1.5-13.1 3.1-6.4 1.6-13.4 3.2-20.9 5.1-7.6 1.8-14.8 3.6-21.7 5.4l-15 3.9c-6.5 1.8-13.4 6-20.5 12.5-7.2 6.5-14.8 14.4-22.7 23.6-8 9.2-16.2 19.3-24.6 30.2-8.5 11-17.2 21.6-26 32.1-8.9 10.4-17.9 20-27 28.9-9.1 8.8-18.2 16-27.3 21.5-9.1 5.4-18.3 8.5-27.5 9.1-9.3.6-18.3-2-27.2-8zm211.7-171.87c.52.26 1.9.4 4.1.4 2.22 0 3.7-.14 4.5-.4 4.7-.78 10.53-1.7 17.56-2.73 7.1-1.04 14.1-2.28 21.1-3.7 7.1-1.44 13.6-3.14 19.6-5.1 6-1.94 10.2-4.1 12.5-6.44l1.2-8.2c.8-5.47 1.7-12.43 2.8-20.9 1.1-8.46 2.2-17.84 3.3-28.12 1.2-10.2 2.3-20.3 3.3-30.2 1.1-9.9 1.9-19 2.6-27.5.7-8.4 1.1-15 1.4-19.7-2.8-1.3-6.6 2.1-11.3 10-4.7 8-10.7 18.8-18.1 32.6s-16.4 29.9-26.9 48.3-23 37.5-37.3 57.3v4.7zm217.55 95.3c-1.55-6.5-1.5-14 .2-22.46s4.1-17 7.23-25.58c3.13-8.6 6.5-16.86 10.16-24.8 3.6-7.95 6.6-14.5 8.9-19.72 1.3-3.13 3.3-7.68 6-13.67 2.7-6 5.8-12.76 9.3-20.32 3.5-7.55 7.1-15.5 10.9-23.83 3.8-8.33 7.4-16.27 10.9-23.82l9.3-20.12 6-13.1c-4.5-.77-10.8-.38-19 1.2-8.2 1.55-17.3 3.57-27.2 6.04-9.9 2.47-20.1 5-30.5 7.62-10.4 2.6-20.1 4.5-29.1 5.66-9 1.17-16.7 1.3-23.1.4-6.4-.92-10.4-3.6-11.9-8.02 1.8-3.38 8.4-7.3 19.9-11.7 11.4-4.44 26.1-9.06 43.9-13.88 17.8-4.8 37.7-9.7 59.7-14.64 22-4.95 44.5-9.64 67.4-14.06 22.9-4.43 45.3-8.47 67.2-12.1 21.8-3.66 41.4-6.65 58.6-9 17.1-2.34 31-3.9 41.6-4.68 10.5-.8 16-.52 16.6.78.7 2.08.9 4.62.4 7.6-.5 3-2.2 4.9-5.1 5.68-12.8 2.08-26.6 4.36-41.4 6.83-14.8 2.5-29.9 5.1-45.1 7.9-15.2 2.8-30.1 5.5-44.7 8.2-14.6 2.8-28.1 5.4-40.6 8-8.1 1.6-15.9 6.3-23.4 14.1-7.6 7.8-14.9 17.5-21.9 29.1-7 11.6-13.8 24.5-20.3 38.7-6.5 14.2-12.7 28.6-18.6 43.2-5.9 14.6-11.3 28.7-16.2 42.2-5 13.6-9.5 25.5-13.7 35.8-4.2 10.3-7.8 18.3-10.9 24.1-3.1 5.7-5.7 8.1-7.8 7l-4.3-4.3z"/>
      <path d="M1754.54 503.02c-1.56-1.3-1.17-2.74 1.17-4.3 2.7-9.37 5.3-18.36 8.1-26.95 2.8-8.6 5.7-17.12 8.8-25.6 3.1-8.45 6.5-17.05 10-25.76 3.5-8.7 7.3-17.9 11.2-27.5 1.3-2.3 1.1-4.7-.5-7.2-1.7-2.5-3.6-4.9-5.8-7.4-2.2-2.4-3.8-5-4.7-7.8-.9-2.7.1-5.5 2.9-8.4.3-.2 1.3-.6 3-1.2 1.7-.5 3.6-1 5.7-1.3 2.1-.4 4-.8 5.7-1.1 1.7-.4 2.8-.7 3.3-.9.8-.5 2.3-1.9 4.5-4.1 2.2-2.2 3.6-3.7 4.1-4.5 4.2-7 8.1-13.2 11.9-18.7 3.8-5.4 7.3-10.9 10.6-16.4 3.3-5.4 6.2-11.2 8.8-17.2 2.6-6 5-13 7-21.1.8-3.1.1-5.1-2.1-6-2.2-.9-4.8-1.7-7.6-2.5-2.9-.8-5.2-2-7-3.7-1.8-1.7-1.9-4.9-.4-9.6 1.1-2.8 6.1-6 15.1-9.4 9-3.4 20.4-6.6 34.2-9.7 13.8-3.1 29.3-6 46.5-8.6 17.2-2.6 34.3-4.7 51.5-6.2 17.2-1.5 33.6-2.5 49.2-2.9 15.7-.4 28.9.2 39.9 1.6 10.9 1.5 18.7 3.9 23.4 7.5 4.7 3.5 4.5 8.4-.4 14.6-2.3.5-4.7.6-7.2.2-2.5-.4-5-1-7.6-1.7-2.6-.8-5.3-1.5-8.2-2.1-2.8-.6-5.6-.8-8.2-.6-12.5 1.1-24.7 1.5-36.7 1.2-12-.3-23.9-.4-35.9-.4s-23.9.5-35.9 1.4c-11.9.9-23.9 3.1-35.9 6.4-8.3 2.3-15.7 6.4-22.2 12.3s-12.7 13.3-18.5 22.3c-5.82 9-11.7 19.3-17.54 31.1-5.9 11.7-12.45 24.6-19.74 38.7 2.84.8 8.24.2 16.2-1.6 7.9-1.8 17.04-4.1 27.3-6.8 10.2-2.7 21.1-5.4 32.6-8.2 11.4-2.7 22.2-4.7 32.2-5.8 10-1.2 18.8-1.2 26.37 0 7.53 1.2 12.6 4.2 15.2 9.2.3.5.4 1.3.4 2.3s-.1 1.7-.4 1.9c-13.8 2.1-28 4-42.7 5.7-14.7 1.7-29.3 3.8-43.8 6.4-14.5 2.6-28.6 6-42.4 10.3s-26.8 10.1-39.1 17.4c-9.9 17.4-18.75 35.4-26.56 53.9-7.8 18.5-14.7 37.2-20.7 56.2 7.6-2.6 16.38-5.1 26.4-7.6 10-2.5 19.7-4.7 28.9-6.8 9.3-2.1 17.3-3.8 24.2-5.1l12.3-2.3c22.1-3.3 43.4-6 63.9-8 20.47-1.9 41.7-2.2 63.88-.9 1.85.5 3.15 1.6 3.94 3.1.76 1.6 1.3 3.3 1.54 5.3.2 2 .2 3.9 0 5.7-.3 1.8-.5 3.1-.8 3.9-28.4-1.6-56.6-.5-84.6 3.1-28 3.6-55.8 8.4-83.4 14.4-4.4 1.1-9.8 2.9-16.2 5.5-6.3 2.6-12.9 4.9-19.5 7-6.6 2.1-13 3.5-19.1 4.3-6.1.8-11.3-.3-15.4-3.1-1-.5-1.9-1.2-2.7-2-.8-.7-1.3-1.8-1.6-3.1z"/>
    </g>
    <path fill="#209ADC" fill-rule="nonzero" d="M1767.88 1002.48c-2.34-1.77-3.98-3.5-4.92-5.14-.94-1.67-1.4-3.44-1.4-5.32 0-1.87.35-3.95 1.05-6.25.7-2.3 1.6-4.94 2.5-7.96l1.4-3.8c.7-1.9 1.5-4.2 2.4-6.8.9-2.6 1.9-5.3 3-8.2 1.1-2.8 2.1-5.6 3-8.2l2.4-6.8c.7-1.9 1.1-3.2 1.4-3.8 1-2.9 1.5-5.5 1.4-7.7-.1-2.2-.3-4.3-.6-6.3-.2-2-.3-3.9-.3-5.8.1-1.8.8-4 2.2-6.4.3-.3.8-1 1.6-2.2l2.5-3.6c.9-1.3 1.8-2.5 2.6-3.6s1.3-1.8 1.4-2.1c.4-.6 1.5-1.6 3.4-3.1 1.8-1.4 4.1-3 6.7-4.7 2.6-1.7 5.6-3.5 8.8-5.3 3.3-1.8 6.5-3.4 9.7-4.8 3.2-1.4 6.3-2.4 9.2-3.2 3-.7 5.5-.9 7.6-.6 2.2.3 3.7 1.3 4.7 3s1.1 4.3.4 7.7c-1.2 5.6-3.1 10.6-5.7 14.9-2.6 4.3-5.4 8.1-8.3 11.4-2.9 3.4-5.6 6.3-8.2 8.9-2.6 2.7-4.5 5.1-5.8 7.4 9.4.4 16.2 1.9 20.6 4.5 4.3 2.6 6.8 5.9 7.4 9.9.6 4-.3 8.4-2.8 13.2-2.5 4.9-5.9 9.7-10.3 14.4-4.4 4.8-9.3 9.2-14.9 13.5-5.5 4.2-11.1 7.7-16.6 10.4-5.5 2.7-10.7 4.5-15.5 5.2-4.8.8-8.6.1-11.4-2zm9.26-37.8c-1.48 2.4-2.85 5.03-4.1 7.9-1.25 2.86-2.2 5.67-2.87 8.43-.66 2.8-.96 5.4-.88 7.9 0 2.5.6 4.5 1.7 6s2.7 2.4 5 2.8c2.2.3 5.2-.2 8.9-1.7 8.2-2.5 15.4-5.6 21.6-9.5 6.1-3.8 11.2-7.9 15.2-12.1 4-4.2 7-8.4 8.9-12.6 1.9-4.2 2.8-7.8 2.7-11-.1-3.2-1.3-5.6-3.4-7.2-2.2-1.7-5.3-2.2-9.3-1.5-4.1.7-9.1 2.8-15.1 6.4-6 3.6-12.9 9.1-20.7 16.5-.9 1-1.7 1.4-2.4 1.3-.7 0-1.4-.2-2-.6l-1.8-1c-.6-.3-1.2-.2-1.8.3zm2.58-13.12c0 .3-.02.78-.06 1.4-.03.63-.06 1.28-.06 1.96 0 .67.03 1.32.06 1.95.04.62.06 1.1.06 1.4.63-.2 1.92-1.2 3.87-2.96 1.9-1.7 4.3-4 7-6.8 2.8-2.8 5.8-6 9.1-9.6 3.3-3.6 6.6-7.3 9.9-11.2 3.3-3.9 6.5-7.8 9.5-11.7 3-3.9 5.6-7.5 7.8-11 2.2-3.4 3.8-6.5 4.9-9.1 1.1-2.6 1.4-4.7 1-6.1-3.5-.6-7.1-.3-10.9.9-3.8 1.2-7.5 3-11.2 5.3-3.7 2.3-7 4.9-10.2 7.9-3.2 3-5.8 5.9-7.9 8.7-.5 1.4-1.3 3.8-2.4 7.2-1.1 3.4-2.3 7.1-3.6 10.9-1.3 3.9-2.5 7.5-3.6 10.9-1.1 3.4-1.9 5.8-2.4 7.1 0 .2-.2.8-.6 1.7-.4.9-.6 1.5-.7 1.7zm65.74 47.8c-.47-.52-.36-1.1.35-1.7.8-3.76 1.6-7.35 2.4-10.8.9-3.43 1.7-6.84 2.7-10.23 1-3.38 2-6.82 3-10.3l3.4-11.02c.4-.9.4-1.9-.2-2.8-.5-1-1.1-2-1.7-2.9-.6-1-1.1-2-1.4-3.1-.3-1.1 0-2.2.9-3.3.1-.1.4-.2.9-.4s1.1-.4 1.7-.5l1.7-.5c.5-.1.9-.3 1-.4.3-.2.7-.7 1.4-1.6.7-.9 1.1-1.5 1.3-1.8 1.3-2.8 2.5-5.3 3.6-7.5s2.2-4.4 3.2-6.5c1-2.2 1.9-4.5 2.7-6.9.8-2.4 1.5-5.2 2.1-8.4.3-1.2.1-2-.6-2.4-.6-.3-1.4-.7-2.3-1-.8-.3-1.5-.8-2.1-1.5-.5-.6-.6-1.9-.1-3.8.3-1.1 1.8-2.4 4.5-3.7s6.2-2.6 10.3-3.9 8.8-2.4 14-3.4c5.2-1 10.3-1.8 15.5-2.5 5.2-.6 10.1-1 14.8-1.1 4.7-.2 8.7 0 12 .6 3.3.6 5.6 1.6 7 3 1.4 1.4 1.3 3.4-.1 5.9-.7.3-1.4.3-2.1.1-.7-.1-1.5-.4-2.3-.7-.7-.3-1.6-.6-2.4-.8-.8-.2-1.7-.3-2.5-.2-3.7.4-7.4.6-11 .5-3.6-.1-7.2-.1-10.8-.1-3.6 0-7.1.2-10.7.6-3.6.4-7.2 1.2-10.8 2.6-2.5.9-4.7 2.6-6.6 4.9s-3.8 5.3-5.6 8.9c-1.7 3.6-3.5 7.7-5.3 12.4l-5.9 15.5c.9.3 2.5.1 4.9-.6 2.4-.7 5.1-1.7 8.2-2.7 3.1-1.1 6.3-2.2 9.8-3.3 3.4-1.1 6.6-1.9 9.7-2.4 3-.5 5.6-.5 7.9 0 2.3.4 3.8 1.7 4.6 3.6.1.2.1.6.1 1s0 .7-.1.8c-4.1.8-8.4 1.6-12.8 2.3-4.4.7-8.8 1.6-13.1 2.6-4.3 1-8.6 2.4-12.7 4.1-4.2 1.8-8.1 4.1-11.7 7-2.9 7-5.6 14.2-7.9 21.6-2.3 7.4-4.4 14.9-6.2 22.5 2.3-1 4.9-2 7.9-3s5.9-1.9 8.7-2.7c2.8-.9 5.2-1.5 7.3-2.1l3.7-.9c6.7-1.3 13.1-2.4 19.2-3.2 6.1-.8 12.5-.9 19.2-.4.56.2.95.7 1.18 1.3.2.7.4 1.4.5 2.1.1.8.1 1.6 0 2.3-.1.8-.1 1.3-.2 1.6-8.5-.6-17-.2-25.4 1.3-8.4 1.4-16.77 3.4-25 5.8-1.4.4-3 1.2-4.9 2.2-1.9 1-3.85 2-5.8 2.8-2 .8-3.9 1.4-5.8 1.7-1.85.3-3.4-.1-4.6-1.3-.36-.2-.6-.5-.86-.8-.3-.3-.4-.7-.5-1.2zm87.4 1.87c-.6-2.4-.26-6.1 1.07-11.16 1.32-5.05 3.14-10.78 5.45-17.2 2.3-6.4 4.88-13.03 7.73-19.9 2.9-6.88 5.5-13.3 7.9-19.3s4.4-11.1 5.9-15.32c1.5-4.22 2.2-6.9 1.8-8.04-.9-.4-1.9-.2-3 .5l-3.1 2.2c-1 .7-2.1 1.2-3.1 1.3-1 .1-1.9-.6-2.7-2.2-.4-.7-.5-1.4-.4-2.1.1-.7.4-1.3.7-1.9.4-.6.8-1.1 1.2-1.6l1.1-1.2c8.9-7.8 17.4-13.9 25.4-18.3s15.2-7.3 21.6-8.9c6.4-1.5 11.7-1.9 16.1-.9 4.4 1 7.4 2.9 9 5.7 1.7 2.9 1.8 6.6.3 11.1-1.4 4.6-4.7 9.6-9.9 15.3-5.2 5.6-12.5 11.7-21.9 18.1-9.4 6.4-21.2 13-35.4 19.6-.7 1.7-.5 3.6.7 5.7s3 4.4 5.4 6.8c2.4 2.5 5.2 5 8.4 7.6l9.9 7.9c3.3 2.7 6.5 5.3 9.5 7.8 3 2.6 5.5 5 7.5 7.3s3.2 4.5 3.8 6.4c.6 2 .1 3.7-1.5 5.2-.1.1-.5-.2-1.4-1.1-.9-.9-2-2-3.3-3.4-1.3-1.4-2.8-2.9-4.3-4.6-1.5-1.6-3-3.2-4.3-4.7l-3.5-3.7-1.7-1.9-14-11.7c-4.7-3.8-9.2-8.1-13.7-12.9-1.5-.6-3 .4-4.4 3.2-1.5 2.7-2.9 6.2-4.3 10.4s-2.8 8.7-4.1 13.5c-1.3 4.8-2.6 8.9-3.8 12.4-1.2 3.5-2.2 5.9-3.1 7.2-.9 1.3-1.8.6-2.5-2.2zm27.9-65.14c1.7.7 4.04.6 6.98-.2 2.92-.9 6.17-2.3 9.72-4.2 3.56-2 7.26-4.4 11.13-7.2 3.8-2.8 7.5-5.8 11-8.8 3.5-3.1 6.7-6.2 9.6-9.3 2.9-3.2 5.2-6.1 6.8-8.7 1.6-2.7 2.5-4.9 2.6-6.8.1-1.9-.9-3.1-2.9-3.6-8.5-.2-15.6.3-21.6 1.6-6 1.3-11 3.7-15.3 7.2-4.2 3.5-7.8 8.4-10.7 14.5-2.9 6.1-5.5 13.9-7.8 23.4v1.9zm53.9 65.1c-1.25-1.2-1.76-2.9-1.52-5.2.24-2.3.78-4.7 1.64-7.1.86-2.7 2.1-5.7 3.75-8.9l6.74-17.1c2-5.1 3.85-9.8 5.57-14.3 1.7-4.5 3.36-8.8 4.92-13s3.14-8.6 4.74-13.2 3.26-9.5 4.98-14.7c1.72-5.2 3.63-11.1 5.75-17.8.15-.4.4-1 .75-1.8.36-.8.78-1.4 1.3-1.9.5-.5 1.03-.7 1.58-.5.54.1 1.1.9 1.64 2.2.78 2.1.84 4.9.17 8.6-.66 3.6-1.8 7.8-3.46 12.5-1.6 4.7-3.5 9.8-5.8 15.3-2.2 5.5-4.6 11-7.1 16.7-2.5 5.6-4.9 11.2-7.3 16.7s-4.5 10.6-6.4 15.4c-1.8 4.8-3.2 9.1-4.2 13-1 3.9-1.3 7-1 9.3 5.6.7 11.2.6 16.8-.2 5.7-.8 11.3-1.9 16.9-3.1 5.6-1.2 11.3-2.3 16.9-3.2 5.7-1 11.3-1.2 17-.7 1-.2 1.9.2 2.6 1.4.7 1.1.8 2.4.1 3.7-.2 0-.5-.1-1-.1s-1-.1-1.6-.1h-1.6s-.8.1-1.1.1c-4.3.5-9.5 1.4-15.3 2.7-5.8 1.3-11.9 2.5-18.1 3.6-6.3 1.1-12.5 2-18.7 2.6-6.2.6-11.8.6-16.8-.2-.1 0-.5-.3-1.1-.7-.6-.5-1.1-.8-1.3-1zm80.04-3.6c-.16-.8-.18-1.8-.06-3.1.1-1.3.27-2.7.47-4 .2-1.4.5-2.6.7-3.6.3-1.1.4-1.6.4-1.7l26.5-91.9c.6-1.9 1.1-2.6 1.5-2.1.5.5.9 1.4 1.1 3 .3 1.5.4 3.2.4 5.1 0 1.9-.1 3.4-.5 4.6l-7.5 23.8c-2.5 7.9-4.9 16-7.2 24s-4.5 16.2-6.5 24.3c-2 8.2-3.7 16.5-5.1 24.9-.6.5-1.1.7-1.6.6-.4-.1-.8-.4-1.1-.9s-.6-1.1-.8-1.7c-.2-.6-.3-1.2-.4-1.7zm25.78 1.7c.54-3.2 1.5-6.8 2.87-10.8 1.36-4 2.87-7.9 4.5-11.8 1.65-3.9 3.25-7.6 4.8-11 1.57-3.5 2.83-6.5 3.76-8.9.5-1.3 1.2-3.2 2.2-5.7 1-2.6 2.1-5.5 3.3-8.8 1.2-3.3 2.5-6.7 3.9-10.3 1.4-3.6 2.7-7 3.9-10.3 1.2-3.3 2.3-6.2 3.3-8.8l2.2-5.7c2.5-3.3 4.5-4.3 6.1-2.8 1.6 1.4 3.1 4.4 4.3 8.9 1.3 4.5 2.4 10 3.4 16.5s2.1 13.3 3.3 20.1c1.2 6.9 2.5 13.4 4 19.7 1.5 6.2 3.3 11.3 5.4 15.1 1 .6 2.3-.1 3.7-2 1.5-2 3.1-4.9 4.8-8.7 1.7-3.8 3.5-8.3 5.4-13.4 1.9-5.1 3.8-10.5 5.7-16.1 2-5.6 3.8-11.3 5.6-17l5-15.9c1.6-4.9 2.9-9.1 4.1-12.8 1.2-3.6 2-6.2 2.7-7.6.6-1.4 1.2-2 1.7-2 .6 0 1.1.4 1.5 1.2.4.7.7 1.7.9 2.9.2 1.2.2 2.3 0 3.2-2.5 9.1-4.8 17.3-7 24.6-2.2 7.3-4.4 14.3-6.7 21.1-2.3 6.8-4.8 13.7-7.4 20.7-2.6 7-5.6 14.8-9 23.3-2.5 4.1-4.9 6.3-7.2 6.8s-4.7-1.8-7.2-6.8c-2.6-6-4.6-11.8-6.1-17.2-1.5-5.4-2.7-10.8-3.8-16-1-5.2-2-10.6-2.9-16.1-.8-5.4-1.9-11.4-3.2-17.7-.7-.6-1.9.4-3.5 3.3-1.6 2.8-3.5 6.6-5.7 11.2-2.1 4.7-4.4 9.9-6.7 15.8-2.3 5.8-4.6 11.4-6.7 16.8L2134 981c-1.7 4.3-2.8 7.23-3.6 8.9l-1.4 3.4-1.8 4.05-1.5 3.43-.7 1.4h-4c-.1-.2-.1-.8-.1-1.7s.1-1.6.1-1.9z"/>
    <path fill="#fff" stroke="#209ADC" stroke-width="4.98" d="M2215.83 4.35v.1c-.67 0-1.3.33-1.93.72V59.1l-.4 2.9-.47 104.45-1.64 11.8.2 89.96-.8 9.1v21l-2.4 12.2h-14.9v5h2.5v62.2h-2.5l-1.1 4.6c-15.8 8.5-26.6 25.2-26.6 44.5 0 23 16.6 41.9 37.6 48 0 2.9.1 4.6 0 7.5h-4.9v7.5h5v2.4h-5v7.5h4.9c-1.9 161.9-12.9 328-18.4 489.6-.1 0 11.8-7.6 28-8.7 9.2-.4 19.8 1 30.3 7.4-5.6-161.6-13.1-326.4-15-488.3h4.9V492h-5v-2.4h5V482h-5v-7.5c21-6.03 37.5-24.97 37.5-47.97 0-19.18-10.8-35.9-26.6-44.45l-1-4.6h-2.5v-62.13h2.5v-4.98h-15l-2.4-12.23V277.2l-.8-9.08.3-89.97-1.6-11.8-.5-104.5-.4-2.9V5.07c-.7-.4-1.3-.63-2-.72v-.1h-.2z"/>
  </symbol>
  <symbol id="logo-husky" viewBox="0 0 1225 1670" fill-rule="evenodd" stroke-miterlimit="1.41" clip-rule="evenodd" stroke-linejoin="round">
    <path fill="#4F504E" fill-rule="nonzero" d="M1224.25 554.73c-.35-10.94-11.96-15.83-20.42-20.25-9.5 28-32.88 47.77-55.9 65.4-65.08 48.5-140.86 81.05-217.4 108.22-15.13 4.63-30.45 8.63-45.9 12.25-28.73 3.27-59.3 9.8-86.56-3.5.18 7.84.67 15.67 1.06 23.5 12.35 9.56 27.57 14.38 43.36 13.38 56.7 3.3 111.2-15.62 163.9-33.73 30.5-13.4 62.2-24.62 90.6-42.04 38.7-21.7 77.1-45.73 107-78.46 10.7-12.6 23.2-27.1 20.1-44.77z"/>
    <path fill="#4F504E" fill-rule="nonzero" d="M1168.12 545.8c-9.88-2.6-19.58-8.94-30.16-6.7-7.54 1.5-15 3.5-22.72 4.28-27.3 2.6-53.77 10.42-79.2 20.1-44.86 16.7-89.95 33.84-130.87 58.64-26.05 15.07-52.73 30.52-72.87 53-5.45 5.84-7.22 13.74-9.88 20.9 22.1 7.4 45.94 3.8 68.5.53 58.67-12.83 114.63-35.63 167.83-62.67 35.18-16.9 69.1-37.25 96.9-64.46 6.45-6.55 11.9-14.3 12.47-23.63z"/>
    <g fill-rule="nonzero">
      <path fill="#4F504E" d="M434.83 0c10.04 7.73 21 14.83 34.27 10.77L481 21.5c3-3.5 8.96-10.4 11.95-13.87 1.17 4.75 3.48 14.3 4.6 19.05 8.13-4.46 16.06-9.35 24.14-13.96 4.3 6.9 6.7 15.57 13.2 20.8 8.8 3.6 18 5.84 27.2 8.3.9 3.27 2.6 9.83 3.4 13.06 10.6.34 21.1.34 31.7.3 2.5 5.53 1.3 13.65 6.8 17.47 11.1 3.63 22.7 5.54 34.2 7.74-2.8 5-5.4 10.1-7.8 15.3 4.8 8.3 13.1 13.8 19.5 20.8 19.2-8.8 38.3-17.8 57.5-26.5 14.6-1.4 29-3.9 43.4-6.6-9.5 43.1-43.6 74-71.1 106.4 6.8 28.2 23.5 57 14.3 86.6-4.6 15-1.3 31.7-9.5 45.8-7.7-16.6-13.4-35.6-28.9-46.8-.4-14 .2-29.9-12.4-39.3-5.4.1-10.9.2-16.3.2-6.4 6-12.6 12.2-18.5 18.5-1.6 16.9-5.8 33.3-6.8 50.3-1.9.1-5.8.3-7.7.5-.6-16.7-2.7-33.2-5.6-49.6-6.6-7-12.3-14.9-20.2-20.3-10.1-2.5-20.6-1.2-30.8-.9-28.9 41.6-82.2 49-128.1 58.7-21.6 3.1-33.5 22.9-47 37.7l.2 13c-4.1 3.8-8.2 7.5-12.2 11.4-13.9 8.3-41.8 10.9-36.1 33.1 10.4 24.1 2.9 50.8-5.1 74.3-17.3 22.7-37 43.6-53.1 67.3-18.1-19.5-30.5-43.3-37.9-68.7l-4.9-2.2c-3.2 9.1-9.1 8.7-15.5 2.6l-8.6-2.8c-10.2-11.6-20.6-23.2-33.2-32.3-15.6 27.5-32.7 54.2-52.8 78.6 1.2 6.8 2.4 13.6 3.7 20.4 1 16.2.9 32.7 4.6 48.7 1.6 10.1 2.5 20.5.6 30.7-5.8-7.2-11-14.9-15.5-22.9-2.7-5.7-6.3-10.8-10.2-15.6-1.6 14.6-2.3 29.5-6.9 43.5-9.1 27.2-10.7 56.1-17.6 83.7-5.7-14.9-8.5-31-11.7-47-.6 20.6-.6 41.2-4.2 61.5 2.3 11.6 10.3 22.7 5.7 34.7 2.4 4.3 4.9 8.6 7.5 12.9 1 20.9-1.1 41.7 1.4 62.5 2.8.3 8.6.8 11.4 1-2.9 9.1-7 17.8-11.9 26 8.7 4.1 13.7 12.1 17.5 20.6 6.1.3 12.3.1 18.3 1.4.2 21.3 8.4 41.1 10.1 62.2 5.7-4.5 11.2-9.3 16.8-13.9 2.8 18.9 5.4 37.9 6.7 57 4 16.2 2.7 33.7 11.7 48.4 1.1 8.3 2 16.7 2.8 25.1l7.3 13.4c1.4 12.8 3.2 26.1-4.3 37.7l13.6-.6c3 25.6 13.3 49.5 19.2 74.6 5 24.3 5.3 49.1 8.2 73.7 4-3.3 8-6.5 12-9.6 9.1 22.6 15.9 46.7 31.9 65.8 14.2 22.9 34.7 42.8 42.7 69.1l9 7.1c5.5 21.8 11.1 44.4 26.1 62 24.1 26.9 42.1 58.7 66.9 85.2 6.4 24.4 21 46.3 35.3 66.9 31.9 21 67 37.3 96.9 61.5l7.2 16.4c-32.7-16.6-65.8-32.4-98-49.9-15.4-23.9-29.8-48.5-45.1-72.6-17.4-19-28.5-42.5-45.8-61.5-13.4-23.2-32.5-42.17-46.5-64.9l-.6-12.2c-6.4-34.2-39.5-52.07-55.1-81.2-13.8-21.1-23-45.7-41-63.8-1.2 4-3.5 12.1-4.7 16.1-.7-24-4.5-47.6-6.7-71.5l-10.16 9.9c-1.43-33.3-3.53-67.2-13.33-99.3-5.3 4.7-10.6 9.6-15.9 14.5.74-8.7.9-17.4-4.26-24.9 3.1-11.2 5.4-22.5 7.9-33.7-8.4-23.2-6.4-48.7-15.7-71.7-5.1-19.9-4.4-40.8-9.3-60.8-4.2 8.3-8.2 16.7-12.6 24.9-4.35-26.6-12.7-52.3-16.43-79l-11 15.76c-3.6-11.05-7.14-22.1-9.7-33.43-14.7-.5-25.5 11.8-39.84 13.1 6.5-9.4 14.1-17.9 21.5-26.6H26.3c5.6-10.2 10.9-20.5 16.3-30.8-8.52-23.9-8.1-49.6-9.2-74.6-8-37.9-23.3-74-27.6-112.66-2.3-20.8-10.65-42.5-1.7-63 5.86-47.93 12.5-96 29.26-141.6 1-17.43 3.1-35.9 13.5-50.53 18.9-23.8 21-57.66 46.83-76.5L73.6 310c22.9-28.4 46-56.97 66.3-87.37l-18.4-4.4c1.8-1 5.5-2.93 7.2-3.86-1.7-3.3-5.3-9.6-7.1-12.8l-5.6-4c10-.7 20.1-1.3 30.2-1.7 2.4 11.3-.4 26.54 10.8 33.64 13.6 9.9 27.5 19.5 41.4 29-15.9 5.3-32.5 8.5-47.8 15-9.8 8-16.2 19.5-24.7 28.8 27.7 9.6 55.8 19.8 79.6 37.3 1.6 8.2 2.7 16.5 4.2 24.7.5 9.3.9 18.6 1.3 27.8 14.4 15 29.6 29.2 44.1 44.1 7.9 6.7 6.7 19.1 15.2 25.5 2.1-11.9-8.1-20-12.3-30-11.1-18.8-15.3-40.4-20.2-61.3-14.3-24.9-25.8-53.3-51.9-68.4-.3-4.1-.8-12.2-1.1-16.3 10.4-1.9 21.7-.6 31.5-5.3 7-8.4 10.2-19.2 15.2-28.9-9.1-5.9-18.4-11.4-27.2-17.7 5-14.1 21.77-21.1 32.15-31.4-2.4-2.2-7.3-6.6-9.7-8.8 13.5-2.5 26.6-6.7 39.7-10.6-2.4-8.4-6.5-16-10.9-23.5 5.9-6.4 11.7-12.9 17.3-19.5-15.6 3.8-30.6 9.5-45.9 14.5-27.6 8-55.56 14.6-82.5 24.6 12.3-15.7 25.03-31 39.32-44.8 15.6-12.6 33.54-22 50-33.4 2.64-5.2 2.1-13 7.3-16.5 10.2-2.4 20.6-3.9 30.93-5.7-.9-2.3-2.74-6.8-3.6-9.1 17-5 34-10.3 50.9-15.9l-2.8-8.5c10.3.5 20.66.9 31 1.3.2-7.6.58-15.2.9-22.8 11.2 3 22.2 6.3 33.47 8.9L371 15.3c14.27 3.42 28.4 7.14 42.57 10.96-2.8-6-5.63-12.03-8.37-18.1 7.9 3.83 15.56 8 23.2 12.2 2.3-6.66 4.3-13.4 6.4-20.16z"/>
      <path fill="#fff" d="M325.25 97.48c4.95-.2 9.84-.05 14.8.4 22.8 17.22 41.36 39.2 61.63 59.23-1.5 13.2 7.05 30.6-7.98 38.1-.54 3.1-1.7 9.1-2.3 12.1-8.22-2.2-16.4-4.5-24.68-6.6 2.7 5.8 5.4 11.6 8 17.4-11.18-4.2-22.83-7.9-32.92-14.4-10.43-8.7-15.18-21.9-21.93-33.3-3.53-14.9-5.58-30-5.34-45.4 3.18-9.3 6.66-18.5 10.72-27.4z"/>
      <path fill="#4F504E" d="M631.22 296.17c4.8-5.73 9.15-11.8 13.46-17.88 2.3 2.9 4.56 5.8 6.86 8.8-3.48 9-7.2 18.6-18.27 19.6-.5-2.7-1.56-8-2.05-10.6zm-144.82-5.1c7.92-2.3 15.9-4.5 23.93-6.5 6.4 7.48 13.6 14.2 21.35 20.26 2.6-2.25 5.24-4.55 7.88-6.8.1-2.5.2-7.4.3-9.85l8.46.84c3.68 4.35 7.4 8.7 11.17 13.02-6 4.75-11.7 9.94-18.3 13.96-19.7-4.9-37.1-15.67-54.9-24.93zm190.1 69.68c-2.98-16.4 4.4-32.42 16.2-43.48l9.5 8.27c-2.3 3.28-6.94 9.8-9.3 13.03l10.93.4c-10.48 11.84-18.4 25.74-29.97 36.66.74 16.3 9.26 30.3 15.48 44.9-1.47 25.36-23.7 40.98-45.88 48.13-8.57.34-17.14.6-25.7.83 2.3 5 6.85 15.1 9.1 20.2-5.24 8.2-9.55 17.7-18.7 22.3-1.03 17.8 4.6 37-3.14 53.9-7.6 10.1-19.4 15.9-29.67 22.8 23.94 34.2 44.26 70.7 69 104.4 9.78 13 22.66 24.1 29.37 39.3 10.67 24 26.04 45.3 41.03 66.7 16 25 31.92 50.2 47.54 75.5 1.2 5.1 2.5 10.2 3.8 15.3 14.2 38.7 12.7 80.9 25 120.1 1.2 6.8 4.6 12.7 9.6 17.5 5 10.3 7.7 21.6 6.1 33.1-2.7 7.3-3.7 15-4.3 22.7-8.4 8.3-16.2 18.2-28.3 21l.3 2c-23.1-.3-46.2-.2-69.3-.3l.1-5.7c-2 .6-5.9 2-7.8 2.7-4.9-4.4-9.8-8.8-14.7-13.1-3-4.3-5.9-8.5-8.8-12.8l-4.2-.1c.6-2.5 1.9-7.6 2.6-10.1l-6.4 1.7c2-31.2-2.4-63 4.1-93.9 6.2-19-13.3-30.2-21.8-44.5l-5.1 1.6c.2 15-6.7 28.2-14.4 40.6-10.3-17.7-13-38-18-57.5-1.5.3-4.5.8-6 1.1-6.6 9-13 18.1-19.3 27.3-1.9-6.8-4.1-13.5-6.5-20-1-4-2.9-11.9-3.9-15.8-2.6 2.7-7.7 8.3-10.3 11.1l-5.2 1.5c-.4-14.4-4.3-28.1-8.8-41.6l-11.3-9.4c-1 2.8-2.9 8.5-3.9 11.2l-2.7-14.5c-2.6.6-7.7 1.9-10.3 2.5l1.5-6.9-4.8.7c-4.7-17.9-5.5-36.4-8.7-54.5-.9 4-2.8 12-3.8 15.9l-7.8-.3c.1-22.2-14.7-41.4-10.6-63.8l-2.6-.8c-2.9 8-5.9 16-9 24-7.4-22.3-18.2-43.2-26.3-65.2-2.1 2.3-6.3 6.8-8.3 9.1-10-19.6-21.6-38.5-30.1-58.8-.7 4.7-2.3 14.3-3 19.1-18.3-17.4-41.6-32-53.3-55.1 14.4 1.4 29.1 3.9 42.7 9.4 12.4 8 22.6 19 34.2 28.3 1.2-4.1 3.7-12.2 4.9-16.4 24.9 38.1 41.7 80.9 58.7 123 2.4 4 5 7.9 7.7 11.7-1.4-14.1-6.1-28-4.3-42.4 4.6 6.8 8.5 14 12 21.4 10.8 27.7 5.8 59 16.6 86.5 1.1-16.5 1-32.9.2-49.4 2.03-3.2 6.05-9.7 8.1-13-6.2 17.9.5 36.4 3.84 54.1l4.9-19.4c3.3 13 7.7 25.8 9.42 39.2 1.9 6.22 3.9 12.5 6.1 18.6l4.5 19c3.4-11.16 5.9-22.5 8.1-33.9l7.2-1.3c1.4 17.6-.6 36.5 8.1 52.5 2.3-7 4.6-13.98 7.1-20.9.8-3.7 2.6-11.1 3.4-14.77 1.1 2.7 2.2 5.3 3.3 7.96 22 11.3 20.2 38.86 27 59.2 1.6-8.05 2.93-16.1 4-24.26-.7-7.1-1.4-14.1-2.05-21.2 7.1 2.3 14.24 4.6 21.34 7 10.1 17.4 21 34.37 32.8 50.67-.8 2.4-2.5 7.1-3.34 9.4-2.7 28.8-7.8 57.6-6.8 86.6 6.7 19.6 27.1 29.5 45.9 34.1 14.7-1.4 5-21.43 8.1-31.1 10.2 8.25 9.4 21.56 10.7 33.36 6-3.9 11.7-8.08 17.4-12.4 1.6-10.48-1.9-20.8-3.4-31.1l9.5 2c1.1 15.4 1.27 30.9.34 46.4 8.4-8.9 18.1-16.47 27.8-23.9.8-11.96 4-24 2-35.95-9.2-22.4-20.17-44.82-22.17-69.4-12.5-38.93-18.2-80.3-35.6-117.62-22.3-35.8-45.6-70.96-68.4-106.36-11.37-16.5-19.7-38.6-41.97-42.5C607 666.2 585.9 628.6 567 590c-2.5-1.8-7.3-5.3-9.8-7-11.2-18.4-21.4-37.4-33-55.5-20.5-25.4-39.04-53.1-48.3-84.7-3-18.17-9.9-37.3-1-55 10.4 5.05 21.8 9.4 29.2 18.8 18.4 21.5 42 37.5 65.2 53.3 15.3.96 30.7 1.45 46-.75 15.1 1.5 3.66-16.5 1.1-22.54l14.4-10c-8.3-.9-16.55.5-24.83.5-4-13.1 8.8-20.4 17.1-27.5 18 4.5 36.5 7.1 53.9 13.4-10.1-15.6-19.9-39.6-1-52.7z"/>
      <path fill="#4F504E" d="M610.5 339.8c21.3 13 32.47 36.66 44.76 57.42-9.26-2.35-18.56-4.6-27.96-6.4 1.18-18.86-10.62-34.2-16.8-51.03z"/>
      <path fill="#fff" d="M496.43 418.82c19.48 1.17 17.03 22.76 26.63 34.27l-3.38-14.5c16.4 3 26.64 17.4 40.84 24.7 8.32 3.3 17.23 4.9 25.85 7.3 6.3 20 13.32 39.9 15.47 61-1.27 10.2-2.8 20.4-4.3 30.7-8.38 6.4-17.4 12-26.84 16.6-16.7-13.4-23.45-34.5-33.98-52.4-10.77-16.2-4.9-37.5-16.65-53.4.25-7.5.35-14.9.35-22.4l-9 3.6c-.65-9-4.13-17.3-7.5-25.5-1.86-2.6-5.63-7.7-7.5-10.2zm172.54 25.46c3.13-11.4 5.82-22.97 9.9-34.13 10.42 19.78-6.28 36.18-22.2 44.6l-.58-8.03c2.6 0 7.7.05 10.3.05l2.5-2.5z"/>
      <path fill="#4F504E" d="M327.6 443.6c14.7 8.95 28.25 19.62 41.18 30.98.2-4.06.54-12.3.74-16.35 1.07 1.18 3.23 3.57 4.3 4.8 5.73 5.53 11.12 11.46 16.55 17.38 5.3-2.4 10.58-4.8 15.92-7.1 0 13.1.6 26 .8 39.1-7-8.8-13.5-17.9-20.6-26.5.1 10.1 2.6 19.9 5.6 29.4-1.7-.1-5.2-.5-6.9-.6-16.7-20.2-39.8-34.2-55.5-55.2-.6-3.9-1.7-11.7-2.2-15.6zm228.07 31.82c2.7-.05 8.03-.15 10.72-.25 4.6 10.53 10.4 20.47 14.6 31.1 4.3 14.83 2.2 30.45 1.1 45.62-2.8 3.3-5.5 6.7-8.2 10 0-2.5 0-7.5.1-10 9-10.6 3.1-23.9 0-35.5-3.4-14.9-12.8-27.2-18.5-41.1z"/>
      <path fill="#fff" d="M595.08 471.1l17.48-2.34c.15 12.48.2 25.02.35 37.5l-8.1-.05c-2.6-11.8-6.1-23.4-9.7-35.1z"/>
      <path fill="#4F504E" d="M172.83 623.97c13.96-27.27 34.72-50.58 52.88-75.1 3.4 5.57 6.8 11.1 10.2 16.7-12.6 22.95-26.3 45.9-36.1 70.1 3.1 29.62 1.2 59.63 5.4 89.16 15.6 49.1 67.9 81.62 70.4 135.87.6 4.45 1.3 8.96 2.2 13.4 3.7 41.1 13.6 81.63 11.6 123.1 2.4 15.57-1.4 32.03-15.7 41.28 9.6-25.9 6.1-53.47 2.9-80.15-2.7-27.86-6.6-55.57-10.5-83.3-2-15.8-1.6-32.74-10.2-46.84-19.2-33-42.3-63.7-61.9-96.5-8.2-12.9-5-29.1-10.4-42.9-7.7-20.7-8.9-43.1-10.6-64.9z"/>
      <path fill="#4F504E" d="M74.18 687.76c17.67 28.2 31.58 58.47 49.94 86.23 14.1 21.3 18.7 47.5 33.24 68.7 8.47 15.2 20.32 29.5 22.67 47.3 3.67 24.3-1.08 48.9 3.43 73.3-2.16 28.2 9.5 56 18.56 82.5 2.2-2.7 6.65-8.1 8.86-10.7.44 14.8 5.24 28.6 18.75 36.3.83-8.7 1.76-17.4 2.8-26.1 1.4 3.7 2.83 7.5 4.1 11.4 3.38 6.2 7.4 11.9 11.3 17.8 3-7.8 5.9-15.6 8.73-23.4 2.4.3 7.2 1.1 9.6 1.4 5-6.7 14.98-20 20.02-26.6-2.94 20.9-11.6 39.7-25.8 55.1-11.2.4-22.33 1.3-33.5 2.1-10.52-9.5-20.8-19.4-29.96-30.2-8.07-12.6-11.94-27.3-17.67-41.1-4.7-12.9-9.9-27.3-3.82-40.6-8.62-35.2 3.77-73.4-14.25-106.5-26.1-49-55.9-95.9-86.22-142.2 0-11.8-.6-23.5-.78-35.3zm340.72 346.4c35.1 1.9 66.15-18.06 100.47-20.8-10.96 4.3-22.13 8.23-33.14 12.5-14.74 6.84-34.9 9.1-39.22 27.7-27.9 3.87-57.4 9.3-84.5-1.13-10.1-11.35-21.2-21.98-28.9-35.2 26.1 2.35 45.7 31.97 72.8 22.23.5-2.64 1.3-7.93 1.7-10.58l1.6 13.7 11.6.2c-.5-2.15-1.7-6.45-2.3-8.6z"/>
    </g>
  </symbol>

  <use xlink:href="#logo-font" width="60%" height="60%" x="21.5%" y="41.5%"></use>
  <use xlink:href="#logo-husky" width="90%" height="90%" x="-14%" y="0%" data-anchor-target="#logo" data-300-top-top="opacity: 1;" data-150-top-top="opacity: 0;"></use>
</svg>
