<svg xmlns="http://www.w3.org/2000/svg" fill-rule="evenodd" stroke-miterlimit="1.414" viewBox="0 0 852 852" clip-rule="evenodd" stroke-linejoin="round">
  <g transform="translate(-208.438 -221.98) scale(1.09045)">
    <clipPath id="a">
      <circle cx="581.548" cy="593.967" r="390.399"/>
    </clipPath>
    <g fill-rule="nonzero" clip-path="url(#a)">
      <path fill="#4F504E" d="M580.056 324.615c9.687 7.466 20.27 14.317 33.076 10.395l11.482 10.348c2.883-3.355 8.647-10.017 11.53-13.372 1.133 4.583 3.354 13.797 4.44 18.38 7.845-4.3 15.5-9.024 23.296-13.466 4.158 6.663 6.473 15.026 12.758 20.082 8.505 3.45 17.435 5.623 26.27 7.985.852 3.166 2.506 9.498 3.31 12.616 10.205.33 20.364.33 30.57.284 2.41 5.34 1.323 13.183 6.568 16.87 10.726 3.495 21.925 5.338 32.98 7.464-2.692 4.87-5.196 9.83-7.51 14.84 4.676 7.99 12.662 13.37 18.852 20.13 18.522-8.46 36.95-17.15 55.473-25.56 14.08-1.37 28.02-3.78 41.87-6.33-9.16 41.58-42.1 71.4-68.61 102.72 6.52 27.27 22.73 55.05 13.8 83.59-4.44 14.51-1.27 30.62-9.12 44.18-7.42-16.02-12.85-34.3-27.88-45.12-.37-13.51.24-28.87-11.95-37.89-5.24.1-10.49.19-15.69.24-6.14 5.81-12.09 11.77-17.86 17.91-1.46 16.3-5.53 32.18-6.57 48.53-1.84.1-5.62.33-7.46.48-.56-16.06-2.6-31.99-5.34-47.82-6.33-6.71-11.81-14.36-19.46-19.61-9.73-2.36-19.84-1.18-29.72-.8-27.88 40.17-79.29 47.25-123.56 56.61-20.79 3.03-32.32 22.07-45.31 36.34.05 3.17.14 9.5.19 12.62-3.97 3.64-7.84 7.28-11.72 11.01-13.42 8.03-40.35 10.54-34.82 31.94 10.02 23.2 2.79 48.95-4.91 71.63-16.68 21.93-35.67 42.1-51.22 64.92-17.48-18.8-29.44-41.72-36.62-66.24l-4.72-2.08c-3.07 8.74-8.74 8.37-14.98 2.46-2.08-.66-6.24-2.03-8.27-2.69-9.87-11.19-19.89-22.39-32.03-31.18-15.02 26.56-31.51 52.35-50.98 75.89 1.13 6.57 2.31 13.09 3.54 19.66.94 15.69.9 31.57 4.39 47.02 1.56 9.78 2.46 19.8.57 29.67-5.57-6.99-10.63-14.36-14.98-22.16-2.6-5.43-6.04-10.35-9.87-14.98-1.56 14.04-2.22 28.4-6.71 41.92-8.74 26.22-10.3 54.1-16.96 80.8-5.67-14.65-8.41-30.19-11.48-45.55-.52 19.84-.57 39.74-4.06 59.35 2.27 11.2 9.97 21.88 5.48 33.5 2.36 4.16 4.77 8.32 7.23 12.43 1.04 20.13-.99 40.26 1.37 60.34 2.74.28 8.27.76 11.01.99-2.84 8.79-6.71 17.2-11.53 25.09 8.41 4.02 13.18 11.72 16.87 19.89 5.9.33 11.86.14 17.67 1.37.24 20.56 8.13 39.65 9.78 60.01 5.53-4.34 10.82-8.93 16.21-13.42 2.7 18.29 5.29 36.62 6.52 55.1 3.83 15.59 2.6 32.55 11.3 46.68 1.09 8.03 1.94 16.11 2.7 24.19 2.36 4.34 4.68 8.64 7.04 12.99 1.42 12.33 3.07 25.18-4.11 36.34l13.14-.56c2.93 24.76 12.9 47.82 18.52 71.96 4.87 23.44 5.15 47.397 7.99 71.117 3.83-3.114 7.7-6.233 11.63-9.26 8.84 21.83 15.36 45.128 30.76 63.556 13.75 22.16 33.5 41.296 41.25 66.67 2.93 2.27 5.82 4.49 8.75 6.804 5.34 21.074 10.77 42.86 25.187 59.87 23.296 25.99 40.684 56.7 64.59 82.215 6.19 23.626 20.22 44.747 34.02 64.59 30.81 20.32 64.735 36.005 93.558 59.39 1.75 3.97 5.2 11.86 6.95 15.83-31.56-15.97-63.45-31.28-94.55-48.1-14.88-23.104-28.77-46.824-43.47-70.024-16.72-18.33-27.45-41.01-44.13-59.35-12.95-22.35-31.37-40.64-44.89-62.61-.14-2.93-.42-8.79-.57-11.72-6.19-33.03-38.13-50.23-53.2-78.34-13.32-20.36-22.16-44.13-39.59-61.52-1.13 3.88-3.354 11.63-4.49 15.5-.66-23.1-4.345-45.97-6.424-68.98l-9.78 9.59c-1.42-32.13-3.45-64.83-12.9-95.78-5.15 4.58-10.25 9.26-15.357 13.98.71-8.41.9-16.82-4.11-24.05 2.98-10.73 5.2-21.642 7.61-32.51-8.124-22.4-6.19-47.014-15.12-69.175-4.864-19.18-4.25-39.36-8.975-58.64-3.97 8.034-7.89 16.16-12.1 24.1-4.2-25.705-12.232-50.51-15.87-76.26-2.74 3.73-8.17 11.25-10.87 14.98-3.49-10.68-6.89-21.36-9.35-32.27-14.22-.52-24.612 11.38-38.46 12.66 6.24-9.077 13.61-17.3 20.7-25.75-4.21 0-12.62-.05-16.82-.05 5.38-9.83 10.488-19.8 15.73-29.72-8.27-23.06-7.8-47.87-8.93-72.01-7.66-36.53-22.4-71.35-26.56-108.63-2.22-20.18-10.25-41.16-1.603-60.91 5.67-46.26 12.1-92.61 28.26-136.65.89-16.82 2.93-34.636 12.94-48.76 18.24-22.97 20.27-55.62 45.22-73.81-4.863.66-14.55 2.03-19.37 2.69 22.11-27.4 44.417-54.95 63.98-84.29-4.443-1.04-13.28-3.12-17.72-4.21 1.748-.94 5.24-2.83 6.94-3.73-1.7-3.112-5.1-9.26-6.85-12.33-1.37-.94-4.06-2.88-5.43-3.83 9.69-.71 19.42-1.23 29.16-1.65 2.32 10.87-.375 25.61 10.445 32.46 13.18 9.5 26.556 18.81 40.02 28.02-15.31 5.06-31.33 8.18-46.16 14.46-9.45 7.75-15.59 18.81-23.77 27.787 26.75 9.26 53.82 19.09 76.83 36.056 1.56 7.89 2.6 15.88 4.07 23.82.47 8.93.94 17.91 1.32 26.84 13.89 14.46 28.59 28.11 42.573 42.525 7.656 6.47 6.52 18.427 14.65 24.57 2.04-11.48-7.79-19.326-11.86-29.01-10.67-18.15-14.74-38.984-19.42-59.21-13.79-24.05-24.85-51.455-50.04-66.01-.28-3.92-.8-11.764-1.08-15.686 10.07-1.8 20.98-.62 30.38-5.11 6.76-8.13 9.88-18.57 14.65-27.88-8.74-5.63-17.72-10.97-26.174-17.06 4.77-13.61 20.98-20.37 30.995-30.29-2.318-2.13-6.996-6.38-9.358-8.51 13.04-2.36 25.65-6.42 38.32-10.25-2.32-8.08-6.24-15.45-10.54-22.63 5.72-6.19 11.29-12.42 16.73-18.85-15.03 3.64-29.53 9.17-44.23 13.99-26.6 7.75-53.58 14.08-79.62 23.72 11.86-15.07 24.19-29.86 37.99-43.182 15.07-12.19 32.37-21.266 48.24-32.23 2.555-5.052 1.99-12.57 7.044-15.97 9.83-2.313 19.895-3.73 29.865-5.43-.9-2.22-2.645-6.62-3.495-8.84 16.49-4.73 32.88-9.88 49.23-15.262-.71-2.17-2.13-6.42-2.84-8.55 9.97.427 19.94.85 29.91 1.23.235-7.32.565-14.644.896-22.02 10.77 2.887 21.41 6.1 32.27 8.65-3.59-5.67-7.18-11.29-10.77-16.96 13.75 3.308 27.41 6.9 41.06 10.585-2.69-5.81-5.43-11.62-8.08-17.48 7.61 3.69 15.03 7.71 22.4 11.77 2.18-6.47 4.11-12.99 6.15-19.51z"/>
      <path fill="#fff" d="M474.308 418.692c4.773-.19 9.498-.047 14.27.378 22.02 16.632 39.927 37.848 59.49 57.174-1.465 12.663 6.804 29.484-7.703 36.76-.52 2.93-1.653 8.742-2.22 11.672-7.94-2.126-15.83-4.394-23.815-6.38 2.6 5.53 5.198 11.152 7.702 16.728-10.773-4.11-22.02-7.607-31.753-13.94-10.07-8.41-14.65-21.168-21.17-32.13-3.4-14.364-5.39-29.012-5.15-43.802 3.07-8.977 6.42-17.86 10.34-26.46z"/>
      <path fill="#4F504E" d="M769.58 610.437c4.63-5.53 8.837-11.388 12.995-17.247 2.22 2.835 4.394 5.67 6.615 8.505-3.355 8.742-6.946 18.003-17.625 18.9-.472-2.55-1.512-7.654-1.984-10.158zm-139.768-4.914c7.654-2.22 15.356-4.347 23.106-6.285 6.19 7.23 13.135 13.703 20.6 19.562 2.505-2.173 5.057-4.394 7.61-6.568.093-2.41.188-7.135.282-9.497 2.032.19 6.143.614 8.174.803 3.544 4.205 7.135 8.41 10.774 12.57-5.765 4.582-11.293 9.59-17.578 13.465-18.947-4.725-35.816-15.12-52.968-24.05zm183.476 67.237c-2.882-15.828 4.252-31.28 15.64-41.958l9.167 7.985c-2.22 3.166-6.71 9.45-8.978 12.57l10.537.377c-10.112 11.435-17.766 24.854-28.918 35.39.71 15.736 8.93 29.25 14.932 43.33-1.418 24.477-22.87 39.55-44.275 46.448-8.27.33-16.538.567-24.806.804 2.22 4.867 6.615 14.648 8.788 19.514-5.056 7.89-9.214 17.105-18.05 21.5-.992 17.246 4.442 35.72-3.024 52.023-7.32 9.78-18.71 15.404-28.63 22.066 23.11 32.98 42.72 68.27 66.58 100.74 9.45 12.61 21.88 23.29 28.35 37.94 10.3 23.15 25.14 43.75 39.6 64.4 15.45 24.14 30.81 48.43 45.88 72.86 1.23 4.96 2.51 9.87 3.74 14.84 13.75 37.37 12.24 78.1 24.19 115.95 1.23 6.57 4.44 12.28 9.26 16.91 4.82 10.02 7.42 20.84 5.91 31.99-2.55 7.04-3.54 14.5-4.16 21.97-8.08 7.98-15.59 17.62-27.26 20.27l.29 1.94c-22.25-.29-44.55-.19-66.81-.29.05-1.37.1-4.16.15-5.53-1.89.61-5.67 1.93-7.51 2.55-4.72-4.25-9.4-8.46-14.17-12.62-2.83-4.11-5.67-8.23-8.46-12.34l-4.01-.1c.62-2.41 1.89-7.28 2.56-9.69l-6.19 1.65c1.99-30.19-2.26-60.86 3.97-90.63 6-18.38-12.85-29.16-21.02-43-1.23.42-3.64 1.23-4.86 1.61.24 14.55-6.42 27.22-13.89 39.22-9.92-17.06-12.47-36.67-17.39-55.43-1.41.28-4.3.8-5.71 1.08-6.33 8.69-12.57 17.43-18.57 26.37-1.84-6.52-3.97-12.95-6.29-19.28-.9-3.83-2.74-11.48-3.69-15.26-2.45 2.64-7.41 8.03-9.87 10.72-1.23.37-3.73 1.13-4.96 1.51-.33-13.85-4.16-27.08-8.45-40.12l-10.96-9.07c-.9 2.74-2.74 8.18-3.68 10.87l-2.6-14.03c-2.5.61-7.42 1.84-9.92 2.45l1.47-6.61-4.68.66c-4.49-17.3-5.29-35.11-8.362-52.59-.94 3.87-2.74 11.53-3.685 15.35l-7.51-.33c.09-21.41-14.18-39.93-10.3-61.62l-2.51-.76c-2.79 7.75-5.67 15.45-8.65 23.15-7.14-21.5-17.58-41.67-25.42-62.93-2.037 2.22-6.05 6.56-8.04 8.74-9.69-18.95-20.84-37.14-29.06-56.8-.71 4.58-2.174 13.8-2.93 18.43-17.766-16.92-40.21-31.05-51.503-53.3 13.985 1.37 28.16 3.73 41.25 9.07 12 7.7 21.876 18.33 32.98 27.31 1.18-3.97 3.59-11.81 4.77-15.78 24.05 36.76 40.26 78.15 56.7 118.74 2.36 3.82 4.867 7.6 7.42 11.29-1.37-13.61-5.905-26.98-4.16-40.88 4.49 6.52 8.27 13.46 11.62 20.65 10.397 26.69 5.58 56.89 16.067 83.44 1.04-15.88.99-31.76.19-47.63 1.983-3.12 5.86-9.41 7.84-12.52-5.95 17.24.474 35.1 3.735 52.16 1.18-4.68 3.543-13.99 4.724-18.67 3.21 12.52 7.42 24.9 9.12 37.8 1.84 6 3.78 12.05 5.9 17.95l4.35 18.34c3.215-10.77 5.67-21.737 7.75-32.74 1.75-.33 5.246-.95 6.99-1.28 1.28 16.96-.61 35.2 7.75 50.65 2.177-6.76 4.44-13.47 6.81-20.18.8-3.55 2.46-10.68 3.26-14.23 1.04 2.55 2.08 5.1 3.166 7.654 21.17 10.912 19.47 37.514 25.99 57.124 1.56-7.75 2.88-15.547 3.92-23.39-.71-6.805-1.37-13.61-1.99-20.41 6.85 2.172 13.75 4.44 20.6 6.71 9.73 16.773 20.27 33.12 31.658 48.86-.806 2.312-2.41 6.85-3.26 9.12-2.6 27.78-7.516 55.564-6.57 83.584 6.52 18.9 26.175 28.442 44.32 32.93 14.22-1.37 4.82-20.7 7.843-30.01 9.877 7.94 9.07 20.79 10.35 32.18 5.716-3.78 11.29-7.797 16.726-12 1.51-10.066-1.89-20.08-3.31-30.006 2.32.47 6.85 1.46 9.12 1.933 1.09 14.89 1.23 29.86.33 44.8 8.13-8.6 17.44-15.88 26.79-23.06.8-11.53 3.92-23.15 1.98-34.68-8.93-21.64-19.46-43.28-21.4-66.956-12.05-37.62-17.58-77.5-34.35-113.55-21.55-34.54-44.04-68.47-66.06-102.63-10.96-15.97-19.04-37.28-40.495-41.06-18.14-37.38-38.46-73.67-56.75-110.9-2.36-1.7-7.04-5.105-9.4-6.76-10.82-17.765-20.644-36.1-31.842-53.58-19.79-24.523-37.66-51.22-46.59-81.696-2.88-17.53-9.59-36.01-.94-53.06 10.06 4.86 21.027 9.07 28.21 18.14 17.72 20.74 40.5 36.2 62.85 51.41 14.836.95 29.673 1.42 44.415-.71 14.556 1.47 3.546-15.87 1.09-21.73 3.45-2.41 10.395-7.28 13.845-9.69-8.04-.9-16.02.43-24.01.43-3.92-12.71 8.51-19.71 16.49-26.56 17.34 4.3 35.16 6.8 52.028 12.9-9.74-15.08-19.28-38.18-.99-50.85z"/>
      <path fill="#4F504E" d="M749.593 652.538c20.555 12.568 31.328 35.39 43.188 55.425-8.93-2.268-17.9-4.442-26.98-6.19 1.14-18.192-10.25-32.98-16.2-49.235z"/>
      <path fill="#fff" d="M639.498 728.8c18.806 1.135 16.444 21.973 25.705 33.077l-3.26-13.94c15.83 2.93 25.704 16.822 39.407 23.862 8.033 3.21 16.632 4.77 24.95 7.04 6.094 19.32 12.85 38.55 14.93 58.87-1.23 9.87-2.693 19.75-4.158 29.62-8.08 6.23-16.774 11.57-25.894 16.06-16.112-12.95-22.633-33.27-32.792-50.56-10.395-15.6-4.725-36.2-16.065-51.51.24-7.18.33-14.37.33-21.55-2.17.85-6.52 2.6-8.69 3.45-.61-8.65-3.97-16.64-7.23-24.57-1.79-2.46-5.43-7.42-7.23-9.88zm166.512 24.57c3.025-11.008 5.624-22.16 9.546-32.933 10.064 19.09-6.048 34.92-21.405 43.046l-.56-7.75c2.51 0 7.52.048 10.02.048l2.41-2.41z"/>
      <path fill="#4F504E" d="M476.576 752.71c14.176 8.647 27.264 18.948 39.74 29.91.188-3.922.518-11.86.707-15.782 1.04 1.134 3.12 3.45 4.16 4.63 5.527 5.34 10.725 11.057 15.97 16.775 5.103-2.363 10.206-4.63 15.356-6.852.09 12.57.61 25.1.8 37.66-6.71-8.5-13-17.29-19.85-25.61.14 9.69 2.55 19.14 5.43 28.35-1.66-.14-4.96-.47-6.62-.66-16.12-19.51-38.42-33.03-53.59-53.3-.57-3.78-1.61-11.34-2.13-15.12zm220.096 30.713c2.6-.047 7.75-.142 10.348-.236 4.442 10.16 10.065 19.75 14.175 30.004 4.16 14.32 2.127 29.39 1.087 44.04-2.646 3.22-5.245 6.48-7.843 9.69 0-2.41.04-7.23.09-9.64 8.69-10.2 3.02-23.06 0-34.25-3.26-14.31-12.29-26.22-17.86-39.59z"/>
      <path fill="#fff" d="M734.71 779.265c4.252-.567 12.663-1.7 16.868-2.268.142 12.05.19 24.145.33 36.194l-7.843-.04c-2.504-11.43-5.954-22.63-9.356-33.88z"/>
      <path fill="#4F504E" d="M327.216 926.783c13.466-26.32 33.5-48.81 51.03-72.483 3.26 5.386 6.522 10.726 9.782 16.112-12.19 22.16-25.374 44.322-34.824 67.664 2.977 28.587 1.134 57.552 5.197 86.044 15.08 47.393 65.54 78.768 67.95 131.122.57 4.3 1.23 8.647 2.08 12.947 3.5 39.64 13.14 78.76 11.2 118.78 2.27 15.02-1.41 30.9-15.16 39.83 9.26-25 5.86-51.6 2.79-77.35-2.6-26.89-6.42-53.63-10.16-80.38-1.93-15.27-1.6-31.61-9.82-45.22-18.57-31.85-40.82-61.43-59.72-93.09-7.94-12.48-4.86-28.02-10.06-41.4-7.46-19.99-8.6-41.58-10.25-62.61z"/>
    </g>
  </g>
</svg>
